<?xml version="1.0" standalone="no"?>
<!DOCTYPE svg PUBLIC "-//W3C//DTD SVG 1.1//EN" "http://www.w3.org/Graphics/SVG/1.1/DTD/svg11.dtd" >
<svg xmlns="http://www.w3.org/2000/svg" xmlns:xlink="http://www.w3.org/1999/xlink" version="1.1">
<metadata>
Created by FontForge 20200427 at Thu Nov  6 01:48:55 2014
 By www
Copyright (c) 2010 Linotype GmbH, www.linotype.com. All rights reserved. This font software may not be reproduced, modified, disclosed or transferred without the express written approval of Linotype GmbH.
</metadata>
<defs>
<font id="DINNextLTW04-MediumCond" horiz-adv-x="398" >
  <font-face 
    font-family="DINNextLTW04-MediumCond"
    font-weight="500"
    font-stretch="condensed"
    units-per-em="1000"
    panose-1="2 11 6 6 2 2 3 5 2 3"
    ascent="800"
    descent="-200"
    x-height="482"
    cap-height="680"
    bbox="-92.6923 -221 872 902"
    underline-thickness="50"
    underline-position="-125"
    unicode-range="U+0020-FB04"
  />
<missing-glyph horiz-adv-x="388" 
d="M0 670q0 10 10 10h368q10 0 10 -10v-660q0 -10 -10 -10h-368q-10 0 -10 10v660zM59 61q0 -6 6 -6h259q6 0 6 6v558q0 6 -6 6h-259q-6 0 -6 -6v-558zM168 224q-10 0 -10 10v46q0 21 13 44l36 67q9 17 13 30t4 34q0 19 -3 28q-7 20 -30 20q-22 0 -29 -20q-2 -5 -2.5 -13
t-0.5 -28q0 -10 -11 -8l-46 4q-9 1 -9 11q0 23 2 34.5t4 18.5q9 28 34 44.5t59 16.5q35 0 60 -16.5t34 -44.5q2 -7 4 -18t2 -26q0 -26 -5 -42.5t-16 -36.5l-35 -67q-5 -9 -7.5 -17.5t-2.5 -18.5v-42q0 -10 -10 -10h-48zM158 182q0 10 10 10h48q10 0 10 -10v-58
q0 -10 -10 -10h-48q-10 0 -10 10v58z" />
    <glyph glyph-name="IJ" unicode="IJ" horiz-adv-x="567" 
d="M53 670q0 10 10 10h87q10 0 10 -10v-660q0 -10 -10 -10h-87q-10 0 -10 10v660zM229 36q-6 8 1 14l59 54q7 6 15 -1q17 -15 40 -15q31 0 48 18.5t17 60.5v503q0 10 10 10h87q10 0 10 -10v-494q0 -49 -12.5 -84t-36 -57.5t-55.5 -33t-71 -10.5q-35 0 -65 11.5t-47 33.5z
" />
    <glyph glyph-name="ij" unicode="ij" horiz-adv-x="408" 
d="M61 574q-10 0 -10 10v86q0 10 10 10h82q10 0 10 -10v-86q0 -10 -10 -10h-82zM61 0q-10 0 -10 10v462q0 10 10 10h82q10 0 10 -10v-462q0 -10 -10 -10h-82zM265 574q-10 0 -10 10v86q0 10 10 10h82q10 0 10 -10v-86q0 -10 -10 -10h-82zM200 -180q-10 0 -10 10v72
q0 10 10 10l14 1q22 2 31.5 13t9.5 43v503q0 10 10 10h82q10 0 10 -10v-508q0 -73 -33.5 -108.5t-108.5 -35.5h-15z" />
    <glyph glyph-name="napostrophe" unicode="&#x22;n" horiz-adv-x="405" 
d="M-6 511q-9 0 -9 9v150q0 10 10 10h69q10 0 10 -10v-57q0 -8 -1.5 -12.5t-5.5 -9.5l-60 -73q-6 -7 -13 -7zM266 0q-10 0 -10 10v317q0 70 -52 70q-51 0 -51 -70v-317q0 -10 -10 -10h-82q-10 0 -10 10v462q0 10 10 10h82q10 0 10 -10v-38h1q13 25 35 41t57 16
q54 0 83 -35.5t29 -114.5v-331q0 -10 -10 -10h-82z" />
    <glyph glyph-name="uniFB00" unicode="ff" horiz-adv-x="512" 
d="M78 0q-10 0 -10 10v388q0 6 -6 6h-29q-10 0 -10 10v58q0 10 10 10h29q6 0 6 6v41q0 70 32.5 110.5t110.5 40.5h21q10 0 10 -10v-74q0 -10 -10 -10h-25q-21 0 -29 -8.5t-8 -29.5v-60q0 -6 6 -6h56q10 0 10 -10v-58q0 -10 -10 -10h-56q-6 0 -6 -6v-388q0 -10 -10 -10h-82z
M334 0q-10 0 -10 10v388q0 6 -6 6h-29q-10 0 -10 10v58q0 10 10 10h29q6 0 6 6v41q0 70 32.5 110.5t110.5 40.5h21q10 0 10 -10v-74q0 -10 -10 -10h-25q-21 0 -29 -8.5t-8 -29.5v-60q0 -6 6 -6h56q10 0 10 -10v-58q0 -10 -10 -10h-56q-6 0 -6 -6v-388q0 -10 -10 -10h-82z
" />
    <glyph glyph-name="uniFB01" unicode="fi" horiz-adv-x="460" 
d="M78 0q-10 0 -10 10v388q0 6 -6 6h-29q-10 0 -10 10v58q0 10 10 10h29q6 0 6 6v41q0 70 32.5 110.5t110.5 40.5h21q10 0 10 -10v-74q0 -10 -10 -10h-25q-21 0 -29 -8.5t-8 -29.5v-60q0 -6 6 -6h56q10 0 10 -10v-58q0 -10 -10 -10h-56q-6 0 -6 -6v-388q0 -10 -10 -10h-82z
M317 574q-10 0 -10 10v86q0 10 10 10h82q10 0 10 -10v-86q0 -10 -10 -10h-82zM317 0q-10 0 -10 10v462q0 10 10 10h82q10 0 10 -10v-462q0 -10 -10 -10h-82z" />
    <glyph glyph-name="uniFB02" unicode="fl" horiz-adv-x="489" 
d="M78 0q-10 0 -10 10v388q0 6 -6 6h-29q-10 0 -10 10v58q0 10 10 10h29q6 0 6 6v41q0 70 32.5 110.5t110.5 40.5h21q10 0 10 -10v-74q0 -10 -10 -10h-25q-21 0 -29 -8.5t-8 -29.5v-60q0 -6 6 -6h56q10 0 10 -10v-58q0 -10 -10 -10h-56q-6 0 -6 -6v-388q0 -10 -10 -10h-82z
M450 -6q-40 1 -67 9.5t-44 26t-24.5 45t-7.5 65.5v530q0 10 10 10h82q10 0 10 -10v-530q0 -24 9.5 -36t29.5 -16l5 -1q10 -2 10 -11v-72q0 -10 -10 -10h-3z" />
    <glyph glyph-name="uniFB03" unicode="ffi" horiz-adv-x="716" 
d="M78 0q-10 0 -10 10v388q0 6 -6 6h-29q-10 0 -10 10v58q0 10 10 10h29q6 0 6 6v41q0 70 32.5 110.5t110.5 40.5h21q10 0 10 -10v-74q0 -10 -10 -10h-25q-21 0 -29 -8.5t-8 -29.5v-60q0 -6 6 -6h56q10 0 10 -10v-58q0 -10 -10 -10h-56q-6 0 -6 -6v-388q0 -10 -10 -10h-82z
M334 0q-10 0 -10 10v388q0 6 -6 6h-29q-10 0 -10 10v58q0 10 10 10h29q6 0 6 6v41q0 70 32.5 110.5t110.5 40.5h21q10 0 10 -10v-74q0 -10 -10 -10h-25q-21 0 -29 -8.5t-8 -29.5v-60q0 -6 6 -6h56q10 0 10 -10v-58q0 -10 -10 -10h-56q-6 0 -6 -6v-388q0 -10 -10 -10h-82z
M573 574q-10 0 -10 10v86q0 10 10 10h82q10 0 10 -10v-86q0 -10 -10 -10h-82zM573 0q-10 0 -10 10v462q0 10 10 10h82q10 0 10 -10v-462q0 -10 -10 -10h-82z" />
    <glyph glyph-name="uniFB04" unicode="ffl" horiz-adv-x="745" 
d="M78 0q-10 0 -10 10v388q0 6 -6 6h-29q-10 0 -10 10v58q0 10 10 10h29q6 0 6 6v41q0 70 32.5 110.5t110.5 40.5h21q10 0 10 -10v-74q0 -10 -10 -10h-25q-21 0 -29 -8.5t-8 -29.5v-60q0 -6 6 -6h56q10 0 10 -10v-58q0 -10 -10 -10h-56q-6 0 -6 -6v-388q0 -10 -10 -10h-82z
M334 0q-10 0 -10 10v388q0 6 -6 6h-29q-10 0 -10 10v58q0 10 10 10h29q6 0 6 6v41q0 70 32.5 110.5t110.5 40.5h21q10 0 10 -10v-74q0 -10 -10 -10h-25q-21 0 -29 -8.5t-8 -29.5v-60q0 -6 6 -6h56q10 0 10 -10v-58q0 -10 -10 -10h-56q-6 0 -6 -6v-388q0 -10 -10 -10h-82z
M706 -6q-40 1 -67 9.5t-44 26t-24.5 45t-7.5 65.5v530q0 10 10 10h82q10 0 10 -10v-530q0 -24 9.5 -36t29.5 -16l5 -1q10 -2 10 -11v-72q0 -10 -10 -10h-3z" />
    <glyph glyph-name=".notdef" horiz-adv-x="388" 
d="M0 670q0 10 10 10h368q10 0 10 -10v-660q0 -10 -10 -10h-368q-10 0 -10 10v660zM59 61q0 -6 6 -6h259q6 0 6 6v558q0 6 -6 6h-259q-6 0 -6 -6v-558zM168 224q-10 0 -10 10v46q0 21 13 44l36 67q9 17 13 30t4 34q0 19 -3 28q-7 20 -30 20q-22 0 -29 -20q-2 -5 -2.5 -13
t-0.5 -28q0 -10 -11 -8l-46 4q-9 1 -9 11q0 23 2 34.5t4 18.5q9 28 34 44.5t59 16.5q35 0 60 -16.5t34 -44.5q2 -7 4 -18t2 -26q0 -26 -5 -42.5t-16 -36.5l-35 -67q-5 -9 -7.5 -17.5t-2.5 -18.5v-42q0 -10 -10 -10h-48zM158 182q0 10 10 10h48q10 0 10 -10v-58
q0 -10 -10 -10h-48q-10 0 -10 10v58z" />
    <glyph glyph-name=".null" horiz-adv-x="0" 
 />
    <glyph glyph-name="nonmarkingreturn" horiz-adv-x="333" 
 />
    <glyph glyph-name="glyph219" horiz-adv-x="500" 
 />
    <glyph glyph-name="glyph219" horiz-adv-x="500" 
 />
    <glyph glyph-name="space" unicode=" " horiz-adv-x="194" 
 />
    <glyph glyph-name="exclam" unicode="!" horiz-adv-x="241" 
d="M97 170q-10 0 -10 10l-22 490q0 10 10 10h91q10 0 10 -10l-22 -490q0 -10 -10 -10h-47zM68 109q0 10 10 10h85q10 0 10 -10v-99q0 -10 -10 -10h-85q-10 0 -10 10v99z" />
    <glyph glyph-name="quotedbl" unicode="&#x22;" horiz-adv-x="278" 
d="M173 493q-10 0 -10 10v167q0 10 10 10h55q10 0 10 -10v-167q0 -10 -10 -10h-55zM50 493q-10 0 -10 10v167q0 10 10 10h55q10 0 10 -10v-167q0 -10 -10 -10h-55z" />
    <glyph glyph-name="numbersign" unicode="#" horiz-adv-x="509" 
d="M111 216h-50q-10 0 -10 10v52q0 10 10 10h58l13 122h-52q-10 0 -10 10v52q0 10 10 10h59l20 188q2 10 11 10h57q11 0 9 -10l-20 -188h97l20 188q2 10 11 10h57q11 0 9 -10l-20 -188h58q10 0 10 -10v-52q0 -10 -10 -10h-65l-13 -122h59q10 0 10 -10v-52q0 -10 -10 -10h-67
l-21 -206q-2 -10 -11 -10h-57q-11 0 -9 10l21 206h-97l-21 -206q-2 -10 -11 -10h-57q-11 0 -9 10zM293 288l13 122h-97l-13 -122h97z" />
    <glyph glyph-name="dollar" unicode="$" 
d="M35 165q0 10 8 11l75 13q11 1 11 -9q1 -47 12.5 -68.5t37.5 -26.5v221l-28 11q-32 13 -53 29t-34 38.5t-18 52.5t-5 70q0 84 33 130.5t105 50.5v41q0 10 10 10h17q10 0 10 -10v-41q68 -6 98.5 -48t36.5 -112q1 -9 -9 -11l-73 -11q-9 -2 -11 8q-3 36 -12 55t-30 24v-190
l26 -10q31 -12 53 -28t35.5 -39t19.5 -55t6 -76q0 -101 -34 -149.5t-106 -53.5v-55q0 -10 -10 -10h-17q-10 0 -10 10v55q-74 5 -107.5 47.5t-36.5 125.5zM179 594q-22 -5 -31 -25t-9 -58t7 -58.5t33 -33.5v175zM216 86q22 5 32 25.5t10 69.5q0 46 -9.5 70.5t-32.5 38.5v-204
z" />
    <glyph glyph-name="percent" unicode="%" horiz-adv-x="674" 
d="M426 679q4 10 13 10h54q10 0 7 -10l-252 -678q-4 -10 -13 -10h-54q-10 0 -7 10zM161 328q-37 0 -60.5 16t-32.5 45q-3 8 -4.5 15.5t-2 20t-1 31.5t-0.5 51q0 31 0.5 51t1 32t2 19.5t4.5 15.5q9 29 32.5 45t60.5 16q38 0 61 -16t32 -45q3 -8 4.5 -15.5t2 -19.5t1 -32
t0.5 -51q0 -32 -0.5 -51t-1 -31.5t-2 -20t-4.5 -15.5q-9 -29 -32 -45t-61 -16zM161 392q20 0 25 17q1 2 1.5 6t1 14.5t0.5 28.5v49v49.5t-0.5 28.5t-1 14t-1.5 6q-5 17 -25 17t-25 -17q-1 -2 -1.5 -6t-1 -14t-0.5 -28.5v-49.5v-49t0.5 -28.5t1 -14.5t1.5 -6q5 -17 25 -17z
M420 55q-3 7 -4.5 15t-2 20t-1 31.5t-0.5 51.5q0 31 0.5 50.5t1 32t2 20t4.5 15.5q9 29 32 45t61 16q37 0 60.5 -16t32.5 -45q3 -8 4.5 -15.5t2 -20t1 -32t0.5 -50.5q0 -32 -0.5 -51.5t-1 -31.5t-2 -20t-4.5 -15q-9 -29 -32.5 -45t-60.5 -16q-38 0 -61 16t-32 45zM488 75
q5 -17 25 -17t25 17q1 2 1.5 6t1 14t0.5 28.5v49.5v49t-0.5 28.5t-1 14.5t-1.5 6q-5 17 -25 17t-25 -17q-1 -2 -1.5 -6t-1 -14.5t-0.5 -28.5v-49v-49.5t0.5 -28.5t1 -14t1.5 -6z" />
    <glyph glyph-name="ampersand" unicode="&#x26;" horiz-adv-x="553" 
d="M63 143q0 50 31 100.5t90 119.5q-20 33 -34.5 59t-23.5 47.5t-13 40.5t-4 38q0 32 11 58t30 44.5t45.5 28.5t58.5 10q31 0 58 -10t46 -28.5t30 -44.5t11 -58q0 -18 -4.5 -37t-15.5 -41.5t-31 -51t-51 -64.5l71 -119l45 77q5 8 13 3l55 -31q8 -5 3 -14l-67 -117l23 -38
q9 -16 15.5 -20.5t16.5 -4.5h3q10 0 10 -10v-70q0 -10 -10 -10h-30q-29 0 -42 8.5t-26 29.5l-16 26q-31 -39 -65.5 -56t-79.5 -17q-72 0 -112.5 41.5t-40.5 110.5zM249 437q18 21 29.5 37t18 29t8.5 24.5t2 23.5q0 58 -52 58t-52 -58q0 -14 8.5 -38.5t37.5 -75.5zM158 145
q0 -32 17.5 -49.5t46.5 -17.5q23 0 44 13.5t48 52.5l-82 137q-38 -45 -56 -76t-18 -60z" />
    <glyph glyph-name="quotesingle" unicode="'" horiz-adv-x="155" 
d="M50 493q-10 0 -10 10v167q0 10 10 10h55q10 0 10 -10v-167q0 -10 -10 -10h-55z" />
    <glyph glyph-name="parenleft" unicode="(" horiz-adv-x="271" 
d="M161 -74q-47 91 -71.5 195t-24.5 207t24.5 207t71.5 195q3 10 13 10h49q10 0 7 -10q-30 -91 -46.5 -195t-16.5 -207t16.5 -207t46.5 -195q3 -10 -7 -10h-49q-10 0 -13 10z" />
    <glyph glyph-name="parenright" unicode=")" horiz-adv-x="271" 
d="M41 -74q30 91 46.5 195t16.5 207t-16.5 207t-46.5 195q-3 10 7 10h50q8 0 13 -10q46 -91 70.5 -195t24.5 -207t-24.5 -207t-70.5 -195q-5 -10 -13 -10h-50q-10 0 -7 10z" />
    <glyph glyph-name="asterisk" unicode="*" horiz-adv-x="328" 
d="M144 392q-10 0 -10 10l1 84l-59 -36q-8 -5 -13 4l-20 35q-5 9 3 14l59 33l-59 33q-8 5 -3 14l20 35q5 9 13 4l59 -36l-1 84q0 10 10 10h40q10 0 10 -10l-2 -84l60 36q8 5 13 -4l20 -35q5 -9 -3 -14l-60 -33l60 -33q8 -5 3 -14l-20 -35q-5 -9 -13 -4l-60 35l2 -83
q0 -10 -10 -10h-40z" />
    <glyph glyph-name="plus" unicode="+" 
d="M153 225q0 6 -6 6h-101q-10 0 -10 10v70q0 10 10 10h101q6 0 6 6v102q0 10 10 10h73q10 0 10 -10v-102q0 -6 6 -6h100q10 0 10 -10v-70q0 -10 -10 -10h-100q-6 0 -6 -6v-102q0 -10 -10 -10h-73q-10 0 -10 10v102z" />
    <glyph glyph-name="comma" unicode="," horiz-adv-x="191" 
d="M46 109q0 10 10 10h79q10 0 10 -10v-82q0 -17 -8 -28l-71 -95q-5 -6 -11 -6q-9 0 -9 9v202z" />
    <glyph glyph-name="hyphen" unicode="-" horiz-adv-x="368" 
d="M52 218q-10 0 -10 10v75q0 10 10 10h264q10 0 10 -10v-75q0 -10 -10 -10h-264z" />
    <glyph glyph-name="period" unicode="." horiz-adv-x="197" 
d="M46 109q0 10 10 10h85q10 0 10 -10v-99q0 -10 -10 -10h-85q-10 0 -10 10v99z" />
    <glyph glyph-name="slash" unicode="/" horiz-adv-x="245" 
d="M146 679q2 10 11 10h57q11 0 9 -10l-125 -678q-1 -10 -11 -10h-57q-11 0 -9 10z" />
    <glyph glyph-name="zero" unicode="0" 
d="M57 84q-3 9 -5 20.5t-3.5 37.5t-2 72.5t-0.5 125.5t0.5 125.5t2 72.5t3.5 37.5t5 20.5q14 45 51 69t91 24t91 -24t52 -69q3 -9 4.5 -20.5t3 -37.5t2 -72.5t0.5 -125.5t-0.5 -125.5t-2 -72.5t-3 -37.5t-4.5 -20.5q-15 -45 -52 -69t-91 -24t-91 24t-51 69zM154 115
q5 -14 15.5 -22.5t29.5 -8.5t30 8.5t16 22.5q1 5 2 12.5t2 30t1 65v117.5v117.5t-1 65t-2 30t-2 12.5q-5 14 -16 22.5t-30 8.5t-29.5 -8.5t-15.5 -22.5q-2 -5 -3 -12.5t-1.5 -30t-1 -65t-0.5 -117.5t0.5 -117.5t1 -65t1.5 -30t3 -12.5z" />
    <glyph glyph-name="one" unicode="1" 
d="M167 562h-2l-85 -60q-4 -3 -7.5 -1.5t-3.5 7.5v85q0 9 10 17l87 64q9 6 18 6h75q10 0 10 -10v-660q0 -10 -10 -10h-82q-10 0 -10 10v552z" />
    <glyph glyph-name="two" unicode="2" 
d="M49 81q0 9 5 20l169 304q7 12 12 23.5t8 24.5t4.5 28.5t1.5 35.5t-1 29t-3 17q-11 33 -47 33q-35 0 -46 -33l-2 -8t-1.5 -10.5t-0.5 -17v-26.5q0 -12 -12 -10l-78 7q-9 1 -9 12q0 32 1.5 51t6.5 33q15 45 50.5 70t92.5 25t92 -24.5t50 -69.5q5 -14 7 -33t2 -45
q0 -28 -2.5 -50t-7.5 -40.5t-13 -36t-19 -36.5l-149 -260v-1h181q10 0 10 -10v-73q0 -10 -10 -10h-282q-10 0 -10 10v71z" />
    <glyph glyph-name="three" unicode="3" 
d="M56 86q-5 14 -7 32.5t-2 45.5q0 11 10 12l77 7q12 2 12 -10q0 -28 1 -38t3 -18q11 -33 46 -33q36 0 47 32q1 4 2 8.5t1.5 13t0.5 22v35.5v38.5t-0.5 23t-1.5 12.5t-2 7q-5 17 -17.5 23.5t-32.5 6.5h-15q-10 0 -10 10v72q0 10 10 10h15q20 0 32.5 6t17.5 23q1 3 2 7
t1.5 12t0.5 20.5v33.5v26.5t-0.5 17.5t-1.5 11.5t-2 8.5q-11 32 -47 32q-35 0 -46 -33q-2 -8 -3 -18t-1 -38q0 -12 -12 -10l-77 7q-10 1 -10 12q0 27 2 45.5t7 32.5q14 45 49.5 70t91.5 25q58 0 93 -24t50 -69q5 -14 7 -36t2 -60q0 -20 -0.5 -34t-1 -23.5t-2 -16t-3.5 -12.5
q-6 -20 -18.5 -33.5t-30.5 -24.5v-2q18 -11 30.5 -24.5t18.5 -33.5q2 -6 3.5 -12.5t2 -17.5t1 -28t0.5 -43q0 -25 -0.5 -42.5t-1.5 -30.5t-3 -22t-4 -16q-15 -45 -50.5 -69t-92.5 -24q-56 0 -91.5 25t-49.5 70z" />
    <glyph glyph-name="four" unicode="4" 
d="M34 101q-10 0 -10 10v72q0 5 2 11l140 478q3 8 12 8h83q11 0 8 -11l-140 -473v-2h86q6 0 6 6v180q0 10 10 10h82q10 0 10 -10v-180q0 -6 5 -6h34q10 0 10 -10v-73q0 -10 -10 -10h-33q-6 0 -6 -6v-85q0 -10 -10 -10h-82q-10 0 -10 10v85q0 6 -6 6h-181z" />
    <glyph glyph-name="five" unicode="5" 
d="M57 86q-5 14 -6.5 31t-1.5 37q0 10 9 12l78 8q12 2 12 -10q0 -21 1 -30t3 -17q11 -33 46 -33q36 0 47 32q1 3 2 8t1.5 15.5t0.5 29v48.5v48t-0.5 28.5t-1.5 15.5t-2 8q-10 32 -47 32q-19 0 -30 -8t-16 -22q-4 -9 -15 -9h-68q-10 0 -10 10v350q0 10 10 10h272q10 0 10 -10
v-73q0 -10 -10 -10h-184q-6 0 -6 -6v-166h1q11 12 30.5 20t42.5 8q47 0 75 -20t41 -60q3 -8 4.5 -17.5t3 -25.5t2 -40.5t0.5 -62.5q0 -33 -0.5 -55t-1.5 -37t-3 -24t-4 -16q-15 -45 -50.5 -69.5t-92.5 -24.5q-56 0 -91.5 25t-50.5 70z" />
    <glyph glyph-name="six" unicode="6" 
d="M56 87q-2 7 -4 15.5t-3 21t-1.5 30.5t-0.5 44q0 35 1.5 61t5 47.5t10 41t15.5 43.5l107 279q4 10 14 10h83q12 0 7 -11l-104 -270l2 -2q4 2 13 4t21 2q50 0 78 -23.5t42 -67.5q4 -14 7 -39t3 -75q0 -26 -0.5 -44t-1.5 -30.5t-3 -21t-4 -15.5q-15 -45 -51 -70.5t-93 -25.5
t-93 25.5t-50 70.5zM153 117q11 -33 46 -33q36 0 47 33q1 4 2 8.5t1.5 12.5t0.5 22.5v37.5v37t-0.5 22t-1.5 12.5t-2 7.5q-11 33 -47 33t-46 -33q-1 -3 -2 -7.5t-1.5 -12.5t-0.5 -22v-37v-37.5t0.5 -22.5t1.5 -12.5t2 -8.5z" />
    <glyph glyph-name="seven" unicode="7" 
d="M251 585v2h-104q-6 0 -6 -6v-64q0 -10 -10 -10h-74q-10 0 -10 10v153q0 10 10 10h286q10 0 10 -10v-74q0 -5 -2 -11l-167 -575q-3 -10 -13 -10h-83q-10 0 -6 13z" />
    <glyph glyph-name="eight" unicode="8" 
d="M56 87q-2 7 -4 15.5t-3 20.5t-1.5 30t-0.5 44q0 42 2 61t7 35q6 19 16.5 35t27.5 27v2q-17 11 -27.5 27t-16.5 35q-5 16 -7 33.5t-2 47.5q0 39 2 59t7 34q14 45 50 70.5t93 25.5t93 -25.5t51 -70.5q5 -14 7 -34t2 -59q0 -30 -2 -47.5t-7 -33.5q-6 -19 -16.5 -35
t-27.5 -27v-2q31 -22 44 -62q5 -16 7 -35t2 -61q0 -26 -0.5 -44t-1.5 -30t-3 -20.5t-4 -15.5q-15 -45 -51 -70.5t-93 -25.5t-93 25.5t-50 70.5zM199 403q36 0 47 33q1 3 2 7t1.5 11t0.5 18v28v26.5t-0.5 17.5t-1.5 11l-2 8q-11 33 -47 33q-35 0 -46 -33l-2 -8t-1.5 -11
t-0.5 -17.5v-26.5v-28t0.5 -18t1.5 -11t2 -7q10 -33 46 -33zM153 117q11 -33 46 -33q36 0 47 33l2 8t1.5 12.5t0.5 22.5v37v37t-0.5 22.5t-1.5 12.5t-2 7q-11 33 -47 33t-46 -33q-1 -3 -2 -7t-1.5 -12.5t-0.5 -22.5v-37v-37t0.5 -22.5t1.5 -12.5z" />
    <glyph glyph-name="nine" unicode="9" 
d="M212 281l-2 2q-4 -2 -12.5 -4t-21.5 -2q-49 0 -77 23.5t-42 67.5q-5 14 -7.5 39t-2.5 75q0 52 2 74.5t7 36.5q14 45 50 70.5t93 25.5t93 -25.5t51 -70.5q4 -14 6.5 -36.5t2.5 -74.5q0 -35 -1.5 -61t-5.5 -47.5t-10 -41t-15 -43.5l-107 -279q-4 -10 -14 -10h-83
q-12 0 -7 11zM199 370q36 0 47 33q1 3 2 7.5t1.5 12.5t0.5 22v37v37.5t-0.5 22.5t-1.5 12.5t-2 8.5q-11 33 -47 33q-35 0 -46 -33q-1 -4 -2 -8.5t-1.5 -12.5t-0.5 -22.5v-37.5v-37t0.5 -22t1.5 -12.5t2 -7.5q10 -33 46 -33z" />
    <glyph glyph-name="colon" unicode=":" horiz-adv-x="213" 
d="M64 363q-10 0 -10 10v99q0 10 10 10h85q10 0 10 -10v-99q0 -10 -10 -10h-85zM54 109q0 10 10 10h85q10 0 10 -10v-99q0 -10 -10 -10h-85q-10 0 -10 10v99z" />
    <glyph glyph-name="semicolon" unicode=";" horiz-adv-x="213" 
d="M64 363q-10 0 -10 10v99q0 10 10 10h85q10 0 10 -10v-99q0 -10 -10 -10h-85zM57 109q0 10 10 10h79q10 0 10 -10v-82q0 -17 -8 -28l-71 -95q-5 -6 -11 -6q-9 0 -9 9v202z" />
    <glyph glyph-name="less" unicode="&#x3c;" 
d="M46 231q-10 4 -10 15v60q0 11 10 15l306 123q10 3 10 -7v-74q0 -9 -10 -13l-191 -73v-2l191 -73q10 -4 10 -13v-74q0 -10 -10 -7z" />
    <glyph glyph-name="equal" unicode="=" 
d="M46 328q-10 0 -10 10v69q0 10 10 10h306q10 0 10 -10v-69q0 -10 -10 -10h-306zM46 135q-10 0 -10 10v69q0 10 10 10h306q10 0 10 -10v-69q0 -10 -10 -10h-306z" />
    <glyph glyph-name="greater" unicode="&#x3e;" 
d="M46 108q-10 -3 -10 7v74q0 9 10 13l192 73v2l-192 73q-10 4 -10 13v74q0 10 10 7l306 -123q10 -4 10 -15v-60q0 -11 -10 -15z" />
    <glyph glyph-name="question" unicode="?" horiz-adv-x="391" 
d="M140 170q-10 0 -10 10v75q0 18 4.5 34t14.5 34l56 103q13 24 19 45.5t6 56.5q0 23 -4 36q-11 32 -46 32t-47 -32l-2 -8t-1.5 -11t-0.5 -17.5v-26.5q0 -12 -11 -10l-78 7q-10 1 -10 12q0 37 2 54t7 30q15 45 53 70t90 25q57 0 92 -26.5t49 -68.5q5 -14 7 -29t2 -37
q0 -38 -7 -64t-21 -54l-56 -105q-8 -14 -12 -27t-4 -28v-70q0 -10 -10 -10h-82zM129 109q0 10 10 10h84q10 0 10 -10v-99q0 -10 -10 -10h-84q-10 0 -10 10v99z" />
    <glyph glyph-name="at" unicode="@" horiz-adv-x="661" 
d="M50 72q-5 13 -8.5 29t-5.5 38t-3.5 53t-1.5 76t1.5 76t3.5 53t5.5 37.5t8.5 29.5q31 94 104.5 145t176.5 51q102 0 175.5 -51t104.5 -145q4 -14 8 -29.5t6 -37.5t3.5 -53t1.5 -76q0 -31 -0.5 -52t-2 -35.5t-3 -23.5t-4.5 -17q-14 -44 -44.5 -62.5t-69.5 -18.5
q-37 0 -65 16.5t-42 48.5h-1q-13 -33 -33.5 -49t-61.5 -16q-70 0 -91 66q-3 7 -4.5 17t-3 25.5t-2 38.5t-0.5 58t0.5 58t2 38.5t3 25t4.5 17.5q21 66 89 66q29 0 46.5 -12.5t26.5 -32.5h2v28q0 10 10 10h64q10 0 10 -10v-263q0 -57 46 -57q33 0 42 30q1 3 2 8t1.5 15.5
t0.5 30v52.5q0 45 -1 74.5t-3 49t-5 31.5t-6 23q-22 68 -75.5 105t-130.5 37q-78 0 -131.5 -37t-75.5 -105q-3 -11 -6 -23t-5 -31.5t-3 -49t-1 -74.5t1 -74.5t3 -49t5 -32t6 -22.5q22 -67 75.5 -104.5t131.5 -37.5q49 0 86 11t66 32q8 5 14 -3l28 -39q5 -9 -3 -14
q-42 -29 -88 -44t-103 -15q-103 0 -176.5 51t-104.5 145zM289 166q11 -29 42 -29q32 0 41 29q1 3 2 8t1.5 15.5t0.5 28v46.5v46.5t-0.5 28t-1.5 15.5t-2 8q-9 29 -41 29q-31 0 -42 -29q-1 -3 -2 -8t-1.5 -15.5t-0.5 -28v-46.5v-46.5t0.5 -28t1.5 -15.5t2 -8z" />
    <glyph glyph-name="A" unicode="A" horiz-adv-x="421" 
d="M159 670q3 10 11 10h84q9 0 11 -10l144 -660q2 -10 -8 -10h-85q-9 0 -11 10l-27 137h-135l-27 -137q-2 -10 -11 -10h-85q-10 0 -8 10zM261 237l-48 253h-3l-50 -253h101z" />
    <glyph glyph-name="B" unicode="B" horiz-adv-x="427" 
d="M53 670q0 10 10 10h149q92 0 134 -42.5t42 -133.5q0 -63 -20.5 -96.5t-58.5 -50.5v-2q38 -11 62.5 -49t24.5 -106q0 -57 -12.5 -95t-37 -61.5t-62 -33.5t-86.5 -10h-135q-10 0 -10 10v660zM202 396q44 0 61.5 18.5t17.5 74.5t-17.5 75t-61.5 19h-36q-6 0 -6 -6v-175
q0 -6 6 -6h36zM160 103q0 -6 6 -6h36q48 0 67 22t19 82t-19 81.5t-67 21.5h-36q-6 0 -6 -6v-195z" />
    <glyph glyph-name="C" unicode="C" horiz-adv-x="387" 
d="M54 95q-3 10 -5.5 23.5t-4 39t-2.5 68.5t-1 114t1 114t2.5 68.5t4 38.5t5.5 24q16 49 53.5 76.5t100.5 27.5q73 0 116 -39t48 -124q2 -11 -7 -12l-81 -14q-11 -2 -11 9q-2 44 -17.5 63.5t-44.5 19.5q-23 0 -35.5 -9.5t-18.5 -28.5q-2 -6 -3.5 -14.5t-2 -29.5t-1 -61
t-0.5 -109t0.5 -109t1 -61t2 -29.5t3.5 -14.5q6 -19 18.5 -28.5t35.5 -9.5q29 0 44.5 19.5t17.5 63.5q0 11 11 9l81 -14q9 -1 7 -12q-5 -85 -48 -124t-116 -39q-63 0 -100.5 27.5t-53.5 76.5z" />
    <glyph glyph-name="D" unicode="D" horiz-adv-x="443" 
d="M53 670q0 10 10 10h157q67 0 107 -27t58 -82q4 -14 7.5 -31t5.5 -43t3 -64t1 -93q0 -56 -1 -93.5t-3 -63.5t-5.5 -43t-7.5 -31q-18 -55 -58 -82t-107 -27h-157q-10 0 -10 10v660zM160 103q0 -6 6 -6h43q55 0 72 49q3 9 5 21.5t3.5 34t2.5 54.5t1 84t-1 84t-2.5 54.5
t-3.5 34t-5 21.5q-17 49 -72 49h-43q-6 0 -6 -6v-474z" />
    <glyph glyph-name="E" unicode="E" horiz-adv-x="381" 
d="M53 670q0 10 10 10h279q10 0 10 -10v-77q0 -10 -10 -10h-176q-6 0 -6 -6v-179q0 -6 6 -6h152q10 0 10 -10v-77q0 -10 -10 -10h-152q-6 0 -6 -6v-186q0 -6 6 -6h176q10 0 10 -10v-77q0 -10 -10 -10h-279q-10 0 -10 10v660z" />
    <glyph glyph-name="F" unicode="F" horiz-adv-x="376" 
d="M53 670q0 10 10 10h279q10 0 10 -10v-77q0 -10 -10 -10h-176q-6 0 -6 -6v-184q0 -6 6 -6h152q10 0 10 -10v-77q0 -10 -10 -10h-152q-6 0 -6 -6v-274q0 -10 -10 -10h-87q-10 0 -10 10v660z" />
    <glyph glyph-name="G" unicode="G" horiz-adv-x="426" 
d="M54 97q-4 11 -6.5 24t-4 38t-2 67.5t-0.5 113.5t0.5 113.5t2 67.5t4 38t6.5 24q17 51 57.5 78.5t103.5 27.5q74 0 117.5 -39t51.5 -120q2 -10 -8 -12l-81 -14q-9 -2 -11 8q-8 80 -68 80q-22 0 -38 -10.5t-21 -27.5q-2 -7 -3.5 -15t-2.5 -29t-1 -60.5v-109.5v-109.5
t1 -60.5t2.5 -29t3.5 -15q5 -17 22 -27.5t38 -10.5q22 0 39 10.5t22 27.5q2 6 3.5 13t2 22.5t1 43t0.5 74.5q0 6 -6 6h-53q-10 0 -10 10v74q0 10 10 10h152q10 0 10 -10v-30q0 -71 -0.5 -113t-2 -67t-4 -38t-6.5 -24q-17 -51 -57 -78.5t-103 -27.5t-103.5 27.5t-57.5 78.5z
" />
    <glyph glyph-name="H" unicode="H" horiz-adv-x="447" 
d="M53 670q0 10 10 10h87q10 0 10 -10v-268q0 -6 6 -6h115q6 0 6 6v268q0 10 10 10h87q10 0 10 -10v-660q0 -10 -10 -10h-87q-10 0 -10 10v283q0 6 -6 6h-115q-6 0 -6 -6v-283q0 -10 -10 -10h-87q-10 0 -10 10v660z" />
    <glyph glyph-name="I" unicode="I" horiz-adv-x="213" 
d="M53 670q0 10 10 10h87q10 0 10 -10v-660q0 -10 -10 -10h-87q-10 0 -10 10v660z" />
    <glyph glyph-name="J" unicode="J" horiz-adv-x="354" 
d="M16 36q-6 8 1 14l59 54q7 6 15 -1q17 -15 40 -15q31 0 48 18.5t17 60.5v503q0 10 10 10h87q10 0 10 -10v-494q0 -49 -12.5 -84t-36 -57.5t-55.5 -33t-71 -10.5q-35 0 -65 11.5t-47 33.5z" />
    <glyph glyph-name="K" unicode="K" horiz-adv-x="441" 
d="M53 670q0 10 10 10h87q10 0 10 -10v-281l137 283q4 8 13 8h91q4 0 5.5 -3t-0.5 -7l-136 -265l157 -395q4 -10 -5 -10h-93q-8 0 -11 7l-113 287l-45 -93v-191q0 -10 -10 -10h-87q-10 0 -10 10v660z" />
    <glyph glyph-name="L" unicode="L" horiz-adv-x="372" 
d="M53 670q0 10 10 10h87q10 0 10 -10v-567q0 -6 6 -6h176q10 0 10 -10v-77q0 -10 -10 -10h-279q-10 0 -10 10v660z" />
    <glyph glyph-name="M" unicode="M" horiz-adv-x="558" 
d="M53 670q0 10 10 10h87q13 0 16 -10l113 -383h4l110 383q3 10 16 10h86q10 0 10 -10v-660q0 -10 -10 -10h-77q-10 0 -10 10v430h-6l-88 -309q-3 -10 -13 -10h-44q-10 0 -13 10l-88 309h-6v-430q0 -10 -10 -10h-77q-10 0 -10 10v660z" />
    <glyph glyph-name="N" unicode="N" horiz-adv-x="461" 
d="M53 670q0 10 10 10h106q11 0 14 -10l126 -470h5v470q0 10 10 10h74q10 0 10 -10v-660q0 -10 -10 -10h-99q-11 0 -14 10l-132 470h-6v-470q0 -10 -10 -10h-74q-10 0 -10 10v660z" />
    <glyph glyph-name="O" unicode="O" horiz-adv-x="429" 
d="M215 -9q-63 0 -103.5 27.5t-57.5 78.5q-4 11 -6.5 24t-4 38t-2 67.5t-0.5 113.5t0.5 113.5t2 67.5t4 38t6.5 24q17 51 57.5 78.5t103.5 27.5t103 -27.5t57 -78.5q4 -11 6.5 -24t4 -38t2 -67.5t0.5 -113.5t-0.5 -113.5t-2 -67.5t-4 -38t-6.5 -24q-17 -51 -57 -78.5
t-103 -27.5zM215 88q21 0 36.5 10.5t20.5 27.5q2 7 3.5 15t2 29t1 60.5t0.5 109.5t-0.5 109.5t-1 60.5t-2 29t-3.5 15q-5 17 -20.5 27.5t-36.5 10.5q-22 0 -37.5 -10.5t-20.5 -27.5q-2 -7 -3.5 -15t-2.5 -29t-1 -60.5v-109.5v-109.5t1 -60.5t2.5 -29t3.5 -15
q5 -17 20.5 -27.5t37.5 -10.5z" />
    <glyph glyph-name="P" unicode="P" horiz-adv-x="425" 
d="M63 0q-10 0 -10 10v660q0 10 10 10h137q45 0 81 -11t61 -35.5t38 -64.5t13 -98q0 -113 -51 -161t-142 -48h-34q-6 0 -6 -6v-246q0 -10 -10 -10h-87zM200 359q23 0 39 5.5t26.5 18.5t15.5 34.5t5 53.5q0 64 -20 88t-66 24h-34q-6 0 -6 -6v-212q0 -6 6 -6h34z" />
    <glyph glyph-name="Q" unicode="Q" horiz-adv-x="429" 
d="M376 -18q-7 -7 -14 0l-47 40q-40 -31 -100 -31q-63 0 -103.5 27.5t-57.5 78.5q-4 11 -6.5 24t-4 38t-2 67.5t-0.5 113.5t0.5 113.5t2 67.5t4 38t6.5 24q17 51 57.5 78.5t103.5 27.5t103 -27.5t57 -78.5q4 -11 6.5 -24t4 -38t2 -67.5t0.5 -113.5t-1 -114t-3.5 -69
t-6.5 -40t-10 -27l50 -41q8 -6 2 -14zM215 87q9 0 17 1t13 3l-50 41q-8 6 -2 14l34 41q7 9 15 1l38 -34h2v186q0 70 -0.5 109.5t-1.5 60.5t-3 29t-4 15q-5 17 -21 27.5t-37 10.5q-22 0 -38 -10.5t-21 -27.5q-2 -7 -3.5 -15t-2.5 -29t-1 -60.5v-109.5v-109.5t1 -60.5t2.5 -29
t3.5 -15q5 -18 21 -28.5t38 -10.5z" />
    <glyph glyph-name="R" unicode="R" horiz-adv-x="436" 
d="M311 0q-8 0 -11 7l-83 271h-17h-34q-6 0 -6 -6v-262q0 -10 -10 -10h-87q-10 0 -10 10v660q0 10 10 10h137q45 0 81 -10.5t61 -34.5t38.5 -62.5t13.5 -94.5q0 -67 -21.5 -109.5t-59.5 -64.5l96 -294q4 -10 -5 -10h-93zM201 373q45 0 65.5 22t20.5 83q0 60 -20.5 82.5
t-65.5 22.5h-35q-6 0 -6 -6v-198q0 -6 6 -6h35z" />
    <glyph glyph-name="S" unicode="S" horiz-adv-x="404" 
d="M375 195q0 -50 -9 -88.5t-29.5 -64t-54 -38.5t-81.5 -13q-166 0 -170 178q0 10 8 11l84 14q11 2 11 -9q2 -54 18.5 -77t51.5 -23q32 0 48 20.5t16 76.5q0 27 -3 46t-10.5 32.5t-20.5 22.5t-33 17l-41 16q-35 14 -58.5 31t-37.5 39.5t-20 52t-6 69.5q0 88 40 134.5
t125 46.5t123.5 -43t43.5 -123q0 -8 -9 -11l-80 -12q-11 -2 -11 8q-2 42 -16.5 64.5t-47.5 22.5q-62 0 -62 -82q0 -24 2.5 -40t10 -27.5t20.5 -19.5t33 -16l41 -16q33 -13 56.5 -29.5t38.5 -39.5t22 -55t7 -75z" />
    <glyph glyph-name="T" unicode="T" horiz-adv-x="375" 
d="M144 0q-10 0 -10 10v567q0 6 -6 6h-104q-10 0 -10 10v77q0 10 10 10h327q10 0 10 -10v-77q0 -10 -10 -10h-104q-6 0 -6 -6v-567q0 -10 -10 -10h-87z" />
    <glyph glyph-name="U" unicode="U" horiz-adv-x="443" 
d="M222 -9q-79 0 -124.5 45.5t-45.5 136.5v497q0 10 10 10h87q10 0 10 -10v-511q0 -32 16.5 -51.5t46.5 -19.5t46 19.5t16 51.5v511q0 10 10 10h87q10 0 10 -10v-497q0 -91 -45 -136.5t-124 -45.5z" />
    <glyph glyph-name="V" unicode="V" horiz-adv-x="401" 
d="M162 0q-8 0 -10 10l-135 660q-2 10 9 10h86q9 0 10 -10l79 -459h3l76 459q1 10 11 10h84q11 0 9 -10l-135 -660q-2 -10 -10 -10h-77z" />
    <glyph glyph-name="W" unicode="W" horiz-adv-x="579" 
d="M371 0q-8 0 -10 10l-69 437h-2l-72 -437q-2 -10 -10 -10h-75q-8 0 -10 10l-105 660q-2 10 9 10h86q10 0 11 -10l49 -443h3l73 443q1 10 11 10h59q10 0 11 -10l73 -443h3l52 443q1 10 11 10h83q11 0 9 -10l-106 -660q-2 -10 -10 -10h-74z" />
    <glyph glyph-name="X" unicode="X" horiz-adv-x="402" 
d="M292 0q-8 0 -11 10l-79 216h-2l-79 -216q-3 -10 -11 -10h-88q-11 0 -8 10l133 345l-121 315q-3 10 8 10h88q8 0 11 -10l67 -193h2l67 193q3 10 11 10h88q11 0 8 -10l-122 -315l134 -345q3 -10 -8 -10h-88z" />
    <glyph glyph-name="Y" unicode="Y" horiz-adv-x="386" 
d="M150 0q-10 0 -10 10v269l-130 391q-3 10 8 10h88q9 0 12 -10l76 -263h3l74 263q3 10 12 10h86q11 0 8 -10l-130 -391v-269q0 -10 -10 -10h-87z" />
    <glyph glyph-name="Z" unicode="Z" horiz-adv-x="370" 
d="M45 0q-10 0 -10 10v72q0 4 2 10l187 489v2h-169q-10 0 -10 10v77q0 10 10 10h271q10 0 10 -10v-74q0 -4 -2 -10l-184 -487v-2h176q10 0 10 -10v-77q0 -10 -10 -10h-281z" />
    <glyph glyph-name="bracketleft" unicode="[" horiz-adv-x="247" 
d="M62 -84q-10 0 -10 10v804q0 10 10 10h135q10 0 10 -10v-63q0 -10 -10 -10h-46q-6 0 -6 -6v-646q0 -6 6 -6h46q10 0 10 -10v-63q0 -10 -10 -10h-135z" />
    <glyph glyph-name="backslash" unicode="\" horiz-adv-x="245" 
d="M157 -9q-10 0 -11 10l-125 678q-2 10 9 10h57q9 0 11 -10l125 -678q2 -10 -9 -10h-57z" />
    <glyph glyph-name="bracketright" unicode="]" horiz-adv-x="247" 
d="M50 -84q-10 0 -10 10v63q0 10 10 10h45q6 0 6 6v646q0 6 -6 6h-45q-10 0 -10 10v63q0 10 10 10h135q10 0 10 -10v-804q0 -10 -10 -10h-135z" />
    <glyph glyph-name="asciicircum" unicode="^" horiz-adv-x="408" 
d="M290 263q-9 0 -13 10l-72 263h-2l-71 -263q-4 -10 -13 -10h-75q-10 0 -7 10l122 397q3 10 14 10h62q11 0 14 -10l122 -397q3 -10 -7 -10h-74z" />
    <glyph glyph-name="underscore" unicode="_" horiz-adv-x="411" 
d="M0 -128v57h411v-57h-411z" />
    <glyph glyph-name="grave" unicode="`" horiz-adv-x="415" 
d="M230 555q-11 0 -18 10l-90 125q-3 4 -1.5 7t6.5 3h81q10 0 16 -10l69 -125q5 -10 -6 -10h-57z" />
    <glyph glyph-name="a" unicode="a" horiz-adv-x="383" 
d="M249 0q-10 0 -10 10v38h-1q-9 -26 -32.5 -41.5t-56.5 -15.5q-21 0 -41.5 7t-37 23.5t-26.5 44.5t-10 69q0 43 12 72t32 47t46.5 26t56.5 8h52q6 0 6 6v28q0 40 -14 58.5t-52 18.5q-24 0 -42.5 -7.5t-37.5 -20.5q-10 -7 -15 4l-26 59q-4 7 3 14q24 19 57 31t74 12
q82 0 116.5 -38.5t34.5 -126.5v-316q0 -10 -10 -10h-78zM179 75q27 0 43.5 19t16.5 49v57q0 6 -6 6h-35q-37 0 -52 -18.5t-15 -48.5q0 -64 48 -64z" />
    <glyph glyph-name="b" unicode="b" horiz-adv-x="401" 
d="M61 0q-10 0 -10 10v660q0 10 10 10h82q10 0 10 -10v-237h1q10 25 31 41.5t59 16.5q80 0 105 -80q3 -10 5.5 -22t4 -31t2.5 -47t1 -70q0 -43 -1 -71t-2.5 -46.5t-4 -30.5t-5.5 -22q-25 -80 -105 -80q-38 0 -59 16t-31 42h-1v-39q0 -10 -10 -10h-82zM260 241v58.5t-1 34
t-2 18.5t-2 11q-11 34 -49 34q-37 0 -48 -34q-2 -5 -2.5 -11t-1.5 -18.5t-1 -34v-58.5v-58.5t1 -34t1.5 -18.5t2.5 -11q11 -34 48 -34q38 0 49 34q1 5 2 11t2 18.5t1 34v58.5z" />
    <glyph glyph-name="c" unicode="c" horiz-adv-x="357" 
d="M188 -9q-54 0 -89 24.5t-50 70.5q-3 10 -5.5 20.5t-4 26.5t-2 41.5t-0.5 66.5t0.5 66.5t2 41.5t4 26t5.5 21q15 46 50 70.5t89 24.5q63 0 103 -35.5t44 -95.5q0 -10 -8 -11l-76 -15q-11 -2 -12 9q-4 29 -17 41.5t-34 12.5q-34 0 -44 -31q-2 -5 -2.5 -11t-1.5 -19
t-1 -35.5v-59.5v-60t1 -35t1.5 -19t2.5 -11q10 -31 44 -31q21 0 34 12.5t17 41.5q1 10 12 9l76 -15q8 -1 8 -11q-4 -60 -44 -95.5t-103 -35.5z" />
    <glyph glyph-name="d" unicode="d" horiz-adv-x="401" 
d="M258 0q-10 0 -10 10v39h-1q-10 -26 -31 -42t-59 -16q-80 0 -105 80q-3 10 -5.5 22t-4 30.5t-2.5 46.5t-1 71q0 42 1 70t2.5 47t4 31t5.5 22q25 80 105 80q38 0 59 -16.5t31 -41.5h1v237q0 10 10 10h82q10 0 10 -10v-660q0 -10 -10 -10h-82zM141 241v-58.5t1 -34
t1.5 -18.5t2.5 -11q11 -34 49 -34q37 0 48 34q1 5 2 11t2 18.5t1 34v58.5v58.5t-1 34t-2 18.5t-2 11q-11 34 -48 34q-38 0 -49 -34q-2 -5 -2.5 -11t-1.5 -18.5t-1 -34v-58.5z" />
    <glyph glyph-name="e" unicode="e" horiz-adv-x="380" 
d="M190 -9q-57 0 -92 25t-50 71q-3 9 -5 19.5t-3.5 27.5t-2 42.5t-0.5 64.5t0.5 64.5t2 42.5t3.5 27.5t5 19.5q15 46 50.5 71t92.5 25t93 -25t51 -71q3 -9 5 -20t3.5 -30.5t2 -50t0.5 -78.5q0 -10 -10 -10h-191q-6 0 -6 -6q0 -23 0.5 -37t1 -23t1.5 -14t2 -9q11 -32 47 -32
q40 0 53 43q3 9 12 7l77 -15q9 -1 7 -12q-10 -54 -50 -85.5t-100 -31.5zM191 400q-18 0 -29.5 -9t-16.5 -23q-3 -8 -4.5 -22.5t-1.5 -51.5q0 -6 6 -6h93q6 0 6 6q0 37 -1.5 51.5t-4.5 22.5q-5 14 -16.5 23t-30.5 9z" />
    <glyph glyph-name="f" unicode="f" horiz-adv-x="256" 
d="M78 0q-10 0 -10 10v388q0 6 -6 6h-29q-10 0 -10 10v58q0 10 10 10h29q6 0 6 6v41q0 70 32.5 110.5t110.5 40.5h21q10 0 10 -10v-74q0 -10 -10 -10h-25q-21 0 -29 -8.5t-8 -29.5v-60q0 -6 6 -6h56q10 0 10 -10v-58q0 -10 -10 -10h-56q-6 0 -6 -6v-388q0 -10 -10 -10h-82z
" />
    <glyph glyph-name="g" unicode="g" horiz-adv-x="400" 
d="M192 -189q-57 0 -94 27.5t-49 69.5q-2 8 4 11l76 27q9 3 13 -5q17 -37 53 -37q23 0 38 15t15 44v101h-1q-9 -25 -30 -41.5t-59 -16.5q-80 0 -105 80q-3 10 -5.5 22t-4 30t-2.5 44.5t-1 65.5t1 65.5t2.5 44.5t4 30t5.5 22q25 81 105 81q38 0 59 -17t30 -43h1v41
q0 10 10 10h82q10 0 10 -10v-497q0 -81 -43 -122.5t-115 -41.5zM195 98q37 0 48 35q1 5 2 10.5t2 17.5t1 32v55v54.5t-1 32t-2 17.5t-2 11q-11 34 -48 34t-48 -34q-2 -5 -2.5 -11t-1.5 -17.5t-1 -32v-54.5v-55t1 -32t1.5 -17.5t2.5 -10.5q11 -35 48 -35z" />
    <glyph glyph-name="h" unicode="h" horiz-adv-x="405" 
d="M266 0q-10 0 -10 10v317q0 70 -52 70q-51 0 -51 -70v-317q0 -10 -10 -10h-82q-10 0 -10 10v660q0 10 10 10h82q10 0 10 -10v-236h1q13 25 35 41t57 16q54 0 83 -35.5t29 -114.5v-331q0 -10 -10 -10h-82z" />
    <glyph glyph-name="i" unicode="i" horiz-adv-x="204" 
d="M61 574q-10 0 -10 10v86q0 10 10 10h82q10 0 10 -10v-86q0 -10 -10 -10h-82zM61 0q-10 0 -10 10v462q0 10 10 10h82q10 0 10 -10v-462q0 -10 -10 -10h-82z" />
    <glyph glyph-name="j" unicode="j" horiz-adv-x="204" 
d="M61 574q-10 0 -10 10v86q0 10 10 10h82q10 0 10 -10v-86q0 -10 -10 -10h-82zM-4 -180q-10 0 -10 10v72q0 10 10 10l14 1q22 2 31.5 13t9.5 43v503q0 10 10 10h82q10 0 10 -10v-508q0 -73 -33.5 -108.5t-108.5 -35.5h-15z" />
    <glyph glyph-name="k" unicode="k" horiz-adv-x="396" 
d="M289 0q-9 0 -13 10l-83 197l-40 -72v-125q0 -10 -10 -10h-82q-10 0 -10 10v660q0 10 10 10h82q10 0 10 -10v-383l103 185q6 10 14 10h84q11 0 6 -10l-106 -176l128 -286q5 -10 -6 -10h-87z" />
    <glyph glyph-name="l" unicode="l" horiz-adv-x="233" 
d="M194 -6q-40 1 -67 9.5t-44 26t-24.5 45t-7.5 65.5v530q0 10 10 10h82q10 0 10 -10v-530q0 -24 9.5 -36t29.5 -16l5 -1q10 -2 10 -11v-72q0 -10 -10 -10h-3z" />
    <glyph glyph-name="m" unicode="m" horiz-adv-x="610" 
d="M471 0q-10 0 -10 10v317q0 70 -52 70q-51 0 -51 -70v-317q0 -10 -10 -10h-82q-10 0 -10 10v317q0 70 -52 70q-51 0 -51 -70v-317q0 -10 -10 -10h-82q-10 0 -10 10v462q0 10 10 10h82q10 0 10 -10v-38h1q13 25 35 41t57 16q32 0 56 -13t37 -40h1q16 25 40 39t61 14
q60 0 91 -36t31 -114v-331q0 -10 -10 -10h-82z" />
    <glyph glyph-name="n" unicode="n" horiz-adv-x="405" 
d="M266 0q-10 0 -10 10v317q0 70 -52 70q-51 0 -51 -70v-317q0 -10 -10 -10h-82q-10 0 -10 10v462q0 10 10 10h82q10 0 10 -10v-38h1q13 25 35 41t57 16q54 0 83 -35.5t29 -114.5v-331q0 -10 -10 -10h-82z" />
    <glyph glyph-name="o" unicode="o" horiz-adv-x="385" 
d="M348 241q0 -38 -0.5 -62.5t-2 -41t-3.5 -27.5t-5 -20q-15 -47 -52 -73t-93 -26q-55 0 -92 26t-52 73q-3 9 -5 20t-3.5 27.5t-2 41t-0.5 62.5q0 37 0.5 62t2 41.5t3.5 27.5t5 20q15 47 52 73t92 26q56 0 93 -26t52 -73q3 -9 5 -20t3.5 -27.5t2 -41.5t0.5 -62zM246 241
v58.5t-1 34t-2 18.5t-2 11q-11 34 -49 34q-37 0 -48 -34q-2 -5 -2.5 -11t-1.5 -18.5t-1 -34v-58.5v-58.5t1 -34t1.5 -18.5t2.5 -11q11 -34 48 -34q38 0 49 34q1 5 2 11t2 18.5t1 34v58.5z" />
    <glyph glyph-name="p" unicode="p" horiz-adv-x="401" 
d="M61 -180q-10 0 -10 10v642q0 10 10 10h82q10 0 10 -10v-39h1q10 25 31 41.5t59 16.5q80 0 105 -80q3 -10 5.5 -22t4 -31t2.5 -47t1 -70q0 -43 -1 -71t-2.5 -46.5t-4 -30.5t-5.5 -22q-25 -80 -105 -80q-38 0 -59 16t-31 42h-1v-219q0 -10 -10 -10h-82zM260 241v58.5t-1 34
t-2 18.5t-2 11q-11 34 -49 34q-37 0 -48 -34q-2 -5 -2.5 -11t-1.5 -18.5t-1 -34v-58.5v-58.5t1 -34t1.5 -18.5t2.5 -11q11 -34 48 -34q38 0 49 34q1 5 2 11t2 18.5t1 34v58.5z" />
    <glyph glyph-name="q" unicode="q" horiz-adv-x="401" 
d="M258 -180q-10 0 -10 10v219h-1q-10 -26 -31 -42t-59 -16q-80 0 -105 80q-3 10 -5.5 22t-4 30.5t-2.5 46.5t-1 71q0 42 1 70t2.5 47t4 31t5.5 22q25 80 105 80q38 0 59 -16.5t31 -41.5h1v39q0 10 10 10h82q10 0 10 -10v-642q0 -10 -10 -10h-82zM195 85q37 0 48 34
q1 5 2 11t2 18.5t1 34v58.5v58.5t-1 34t-2 18.5t-2 11q-11 34 -48 34q-38 0 -49 -34q-2 -5 -2.5 -11t-1.5 -18.5t-1 -34v-58.5v-58.5t1 -34t1.5 -18.5t2.5 -11q11 -34 49 -34z" />
    <glyph glyph-name="r" unicode="r" horiz-adv-x="295" 
d="M61 0q-10 0 -10 10v462q0 10 10 10h82q10 0 10 -10v-47h1q14 29 39 47.5t67 18.5h9t9 -1q10 -3 7 -11l-23 -85q-2 -6 -10 -6h-16q-38 0 -60.5 -23t-22.5 -71v-284q0 -10 -10 -10h-82z" />
    <glyph glyph-name="s" unicode="s" horiz-adv-x="350" 
d="M176 -9q-66 0 -105 33t-45 90q-2 10 8 12l72 14q10 2 12 -8q4 -29 20 -42.5t39 -13.5t37.5 14.5t14.5 40.5q0 23 -11 37.5t-41 25.5l-39 15q-48 18 -76 52.5t-28 88.5q0 30 10 56t29 44.5t45 29.5t59 11q32 0 56.5 -9t41.5 -24t27.5 -35t13.5 -42q2 -11 -7 -13l-68 -13
q-9 -1 -12 8q-5 19 -17 31.5t-35 12.5t-35 -14.5t-12 -35.5q0 -17 11 -31.5t41 -25.5l39 -15q57 -22 80.5 -57.5t23.5 -89.5q0 -32 -10 -58.5t-29 -46.5t-46.5 -31t-63.5 -11z" />
    <glyph glyph-name="t" unicode="t" horiz-adv-x="255" 
d="M189 -6q-63 0 -93 30.5t-30 102.5v271q0 6 -6 6h-29q-10 0 -10 10v58q0 10 10 10h29q6 0 6 6v132q0 10 10 10h82q10 0 10 -10v-132q0 -6 6 -6h45q10 0 10 -10v-58q0 -10 -10 -10h-45q-6 0 -6 -6v-269q0 -41 39 -41h12q10 0 10 -10v-74q0 -10 -10 -10h-30z" />
    <glyph glyph-name="u" unicode="u" horiz-adv-x="403" 
d="M260 0q-10 0 -10 10v38h-1q-13 -25 -34.5 -41t-56.5 -16q-54 0 -82.5 35t-28.5 115v331q0 10 10 10h82q10 0 10 -10v-317q0 -70 50 -70q51 0 51 70v317q0 10 10 10h82q10 0 10 -10v-462q0 -10 -10 -10h-82z" />
    <glyph glyph-name="v" unicode="v" horiz-adv-x="362" 
d="M146 0q-8 0 -11 10l-119 462q-3 10 7 10h84q9 0 11 -10l64 -298h1l64 298q2 10 11 10h81q10 0 8 -10l-119 -462q-3 -10 -12 -10h-70z" />
    <glyph glyph-name="w" unicode="w" horiz-adv-x="541" 
d="M333 0q-11 0 -12 10l-50 280h-2l-49 -280q-1 -10 -12 -10h-70q-10 0 -11 10l-109 462q-3 10 7 10h84q9 0 11 -10l54 -298h1l56 298q2 10 11 10h59q9 0 11 -10l54 -298h1l55 298q2 10 11 10h83q10 0 7 -10l-108 -462q-3 -10 -12 -10h-70z" />
    <glyph glyph-name="x" unicode="x" horiz-adv-x="365" 
d="M261 0q-9 0 -13 8l-66 145h-1l-65 -145q-4 -8 -14 -8h-82q-11 0 -5 11l116 237l-109 223q-6 11 5 11h82q10 0 14 -8l61 -131h1l57 131q4 8 14 8h82q10 0 5 -11l-110 -223l117 -237q5 -11 -5 -11h-84z" />
    <glyph glyph-name="y" unicode="y" horiz-adv-x="370" 
d="M62 -180q-10 0 -10 10v74q0 10 10 10l14 1q22 2 33.5 13.5t19.5 41.5l11 48l-120 454q-3 10 7 10h84q9 0 11 -10l64 -298h1l64 298q2 10 11 10h81q10 0 7 -10l-127 -500q-12 -47 -25 -77t-29.5 -46.5t-39 -22.5t-52.5 -6h-15z" />
    <glyph glyph-name="z" unicode="z" horiz-adv-x="320" 
d="M38 0q-10 0 -10 10v68q0 7 3 13l149 299v2h-132q-10 0 -10 10v70q0 10 10 10h238q10 0 10 -10v-57q0 -7 -3 -13l-155 -309v-2h148q10 0 10 -10v-71q0 -10 -10 -10h-248z" />
    <glyph glyph-name="braceleft" unicode="{" horiz-adv-x="312" 
d="M234 -84q-57 0 -87.5 31t-30.5 88v184q0 35 -12 52.5t-44 17.5q-10 0 -10 10v63q0 10 10 10q32 0 44 17.5t12 52.5v179q0 57 30.5 88t87.5 31h28q10 0 10 -10v-63q0 -10 -10 -10h-10q-42 0 -42 -46v-148q0 -59 -10 -87.5t-45 -43.5v-3q35 -15 45 -43.5t10 -87.5v-153
q0 -46 42 -46h10q10 0 10 -10v-63q0 -10 -10 -10h-28z" />
    <glyph glyph-name="bar" unicode="|" horiz-adv-x="281" 
d="M110 -84q-10 0 -10 10v804q0 10 10 10h61q10 0 10 -10v-804q0 -10 -10 -10h-61z" />
    <glyph glyph-name="braceright" unicode="}" horiz-adv-x="312" 
d="M50 -84q-10 0 -10 10v63q0 10 10 10h9q42 0 42 46v153q0 30 2 51t8 36.5t17 25.5t29 18v3q-18 7 -29 17.5t-17 26t-8 36.5t-2 51v148q0 46 -42 46h-9q-10 0 -10 10v63q0 10 10 10h27q57 0 88 -31t31 -88v-179q0 -35 12 -52.5t43 -17.5q10 0 10 -10v-63q0 -10 -10 -10
q-31 0 -43 -17.5t-12 -52.5v-184q0 -57 -31 -88t-88 -31h-27z" />
    <glyph glyph-name="asciitilde" unicode="~" 
d="M261 213q-23 0 -38 6.5t-32 17.5q-16 10 -26 15.5t-21 5.5q-15 0 -25 -8.5t-24 -32.5q-4 -7 -13 -2l-47 25q-9 5 -4 15q41 84 106 84q23 0 38 -6.5t32 -17.5q16 -10 26 -15.5t21 -5.5q16 0 26 8.5t24 32.5q4 7 13 2l46 -25q9 -5 4 -15q-20 -43 -45.5 -63.5t-60.5 -20.5z
" />
    <glyph glyph-name="uni00A0" unicode="&#xa0;" horiz-adv-x="194" 
 />
    <glyph glyph-name="exclamdown" unicode="&#xa1;" horiz-adv-x="241" 
d="M144.006 312.011q9.99902 0 9.99902 -10l21.999 -489.97q0 -10 -9.99902 -10h-90.9951q-9.99902 0 -9.99902 10l21.999 489.97q0 10 9.99902 10h46.9971zM173.004 373.007q0 -10 -9.99902 -10h-84.9951q-9.99902 0 -9.99902 10v98.9941q0 9.99902 9.99902 9.99902
h84.9951q9.99902 0 9.99902 -9.99902v-98.9941z" />
    <glyph glyph-name="cent" unicode="&#xa2;" 
d="M195 -99q-10 0 -10 10v81q-99 6 -127 94q-3 10 -5.5 20.5t-4 26.5t-2 41.5t-0.5 66.5t0.5 66.5t2 41.5t4 26t5.5 21q14 42 45 66.5t82 27.5v81q0 10 10 10h17q10 0 10 -10v-81q57 -5 89.5 -36.5t40.5 -85.5q2 -11 -7 -12l-77 -15q-11 -2 -12 7q-7 39 -34 47v-308
q27 8 34 46q1 9 12 7l77 -14q9 -1 7 -12q-8 -54 -40.5 -85.5t-89.5 -36.5v-81q0 -10 -10 -10h-17zM153 116q8 -24 32 -30v309q-25 -4 -32 -29q-2 -5 -2.5 -10.5t-1.5 -18t-1 -35v-61.5v-61.5t1 -35t1.5 -18t2.5 -10.5z" />
    <glyph glyph-name="sterling" unicode="&#xa3;" 
d="M57 0q-10 0 -10 10v73q0 5 3 10q14 19 20.5 38.5t6.5 52.5v93q0 6 -6 6h-29q-10 0 -10 10v53q0 10 10 10h29q6 0 6 6v172q0 71 35.5 113t109.5 42q71 0 104.5 -40t39.5 -101q2 -10 -8 -12l-77 -13q-9 -2 -11 8q-3 35 -13.5 50t-33.5 15q-24 0 -34 -15t-10 -45v-174
q0 -6 6 -6h89q10 0 10 -10v-53q0 -10 -10 -10h-89q-6 0 -6 -6v-93q0 -29 -5.5 -51t-19.5 -38v-2h205q10 0 10 -10v-73q0 -10 -10 -10h-302z" />
    <glyph glyph-name="currency" unicode="&#xa4;" 
d="M319 169q-7 -7 -14 0l-37 36q-15 -8 -32.5 -13t-36.5 -5q-40 0 -70 18l-36 -36q-7 -7 -14 0l-35 35q-6 6 0 14l37 37q-17 31 -17 68q0 38 18 68l-37 37q-7 7 0 14l35 35q7 7 14 0l36 -37q30 18 69 18q20 0 37.5 -5t32.5 -13l37 37q7 7 14 0l34 -35q7 -7 0 -14l-37 -37
q8 -15 13 -32t5 -36q0 -20 -5 -37.5t-13 -32.5l36 -35q6 -8 0 -14zM199 257q29 0 47 18.5t18 47.5t-18 47.5t-47 18.5t-46.5 -18.5t-17.5 -47.5t17.5 -47.5t46.5 -18.5z" />
    <glyph glyph-name="yen" unicode="&#xa5;" 
d="M159 0q-10 0 -10 10v110q0 6 -6 6h-88q-10 0 -10 10v54q0 10 10 10h88q6 0 6 6v43q0 6 -6 6h-88q-10 0 -10 10v54q0 10 10 10h78v3l-109 338q-3 10 8 10h85q9 0 12 -10l71 -263h3l69 263q3 10 12 10h83q11 0 8 -10l-109 -338v-3h77q10 0 10 -10v-54q0 -10 -10 -10h-87
q-6 0 -6 -6v-43q0 -6 6 -6h87q10 0 10 -10v-54q0 -10 -10 -10h-87q-6 0 -6 -6v-110q0 -10 -10 -10h-81z" />
    <glyph glyph-name="brokenbar" unicode="&#xa6;" horiz-adv-x="281" 
d="M110 388q-10 0 -10 10v332q0 10 10 10h61q10 0 10 -10v-332q0 -10 -10 -10h-61zM110 -84q-10 0 -10 10v336q0 10 10 10h61q10 0 10 -10v-336q0 -10 -10 -10h-61z" />
    <glyph glyph-name="section" unicode="&#xa7;" horiz-adv-x="467" 
d="M231 -189q-54 0 -85 22t-43 60q-5 14 -6.5 30t-1.5 36q0 9 8 9l73 7q8 0 8 -9q0 -20 1.5 -29t3.5 -16q8 -27 43 -27q18 0 28 7t15 20q2 7 3.5 15t1.5 25q0 16 -1 27t-4 20q-6 19 -26.5 33t-59.5 28q-38 14 -61.5 35t-34.5 54q-6 18 -9.5 40.5t-3.5 53.5q0 24 2.5 41.5
t7.5 32.5q18 55 69 75v1q-37 16 -53 60q-9 31 -9 75q0 23 1.5 38.5t6.5 29.5q13 39 45.5 61.5t84.5 22.5t83 -22t43 -60q9 -27 9 -66q0 -9 -8 -9l-73 -7q-9 0 -9 9q0 20 -1 29t-3 16q-8 27 -40 27q-33 0 -41 -27q-2 -7 -3 -15.5t-1 -26.5q0 -12 1 -22.5t4 -19.5
q6 -19 24.5 -32.5t58.5 -27.5q38 -13 61.5 -34t34.5 -54q6 -19 9 -41.5t3 -53.5q0 -23 -2 -40.5t-7 -33.5q-18 -56 -69 -75v-1q18 -8 32.5 -22.5t22.5 -37.5q10 -29 10 -77q0 -24 -2 -40t-7 -30q-13 -39 -46.5 -61.5t-87.5 -22.5zM234 150q41 0 53 38q3 10 4.5 24t1.5 40
t-1.5 40.5t-4.5 24.5q-12 38 -53 38q-22 0 -34.5 -9.5t-19.5 -28.5q-3 -10 -4.5 -24.5t-1.5 -40.5t1.5 -40t4.5 -24q13 -38 54 -38z" />
    <glyph glyph-name="dieresis" unicode="&#xa8;" horiz-adv-x="415" 
d="M251 574q-10 0 -10 10v86q0 10 10 10h65q10 0 10 -10v-86q0 -10 -10 -10h-65zM99 574q-10 0 -10 10v86q0 10 10 10h65q10 0 10 -10v-86q0 -10 -10 -10h-65z" />
    <glyph glyph-name="copyright" unicode="&#xa9;" horiz-adv-x="706" 
d="M353 -9q-109 0 -185 53t-108 150q-8 26 -13.5 60.5t-5.5 85.5t5.5 85.5t13.5 60.5q32 97 108 150t185 53t185 -53t108 -150q8 -26 13.5 -60.5t5.5 -85.5t-5.5 -85.5t-13.5 -60.5q-32 -97 -108 -150t-185 -53zM353 59q84 0 140.5 39.5t80.5 112.5q7 22 12 51.5t5 77.5
t-5 77.5t-12 51.5q-24 73 -80.5 112.5t-140.5 39.5t-140.5 -39.5t-80.5 -112.5q-7 -22 -12 -51.5t-5 -77.5t5 -77.5t12 -51.5q24 -73 80.5 -112.5t140.5 -39.5zM357 143q-87 0 -113 76q-2 7 -4 15.5t-3 22.5t-1.5 34t-0.5 49t0.5 49t1.5 34t3 22.5t4 15.5q26 76 113 76
q48 0 79.5 -25t36.5 -64q2 -8 -5 -10l-61 -11q-7 -2 -9 5q-5 17 -15.5 24.5t-25.5 7.5q-29 0 -38 -27q-1 -3 -2 -7.5t-1.5 -14.5t-0.5 -27.5v-47.5v-47.5t0.5 -27.5t1.5 -14.5t2 -7.5q9 -27 38 -27q15 0 25.5 7.5t15.5 24.5q2 7 9 5l61 -11q7 -2 5 -10q-5 -39 -36.5 -64
t-79.5 -25z" />
    <glyph glyph-name="ordfeminine" unicode="&#xaa;" horiz-adv-x="282" 
d="M186 392q-10 0 -10 10v18h-2q-6 -14 -22 -23t-36 -9q-34 0 -55 21.5t-21 63.5q0 52 27.5 75t71.5 23h31q6 0 6 6v7q0 23 -11 32t-33 9q-23 0 -52 -17q-10 -5 -13 5l-16 38q-3 7 6 13q14 9 37 16.5t49 7.5q48 0 73 -23t25 -78v-185q0 -10 -10 -10h-45zM138 445
q16 0 27 9.5t11 27.5v30q0 6 -6 6h-23q-42 0 -42 -37q0 -18 9 -27t24 -9z" />
    <glyph glyph-name="guillemotleft" unicode="&#xab;" horiz-adv-x="485" 
d="M238 257q-7 7 0 14l177 178q3 3 6.5 2t3.5 -6v-80q0 -8 -10 -18l-79 -79q-4 -4 0 -8l79 -79q10 -10 10 -18v-80q0 -5 -3.5 -6t-6.5 2zM37 257q-7 7 0 14l177 178q3 3 6.5 2t3.5 -6v-80q0 -8 -10 -18l-78 -79q-4 -4 0 -8l78 -79q10 -10 10 -18v-80q0 -5 -3.5 -6t-6.5 2z
" />
    <glyph glyph-name="logicalnot" unicode="&#xac;" 
d="M279 144q-10 0 -10 10v71q0 6 -6 6h-217q-10 0 -10 10v70q0 10 10 10h306q10 0 10 -10v-157q0 -10 -10 -10h-73z" />
    <glyph glyph-name="uni00AD" unicode="&#xad;" horiz-adv-x="368" 
d="M52 218q-10 0 -10 10v75q0 10 10 10h264q10 0 10 -10v-75q0 -10 -10 -10h-264z" />
    <glyph glyph-name="registered" unicode="&#xae;" horiz-adv-x="434" 
d="M217 303q-59 0 -100.5 28t-59.5 82q-5 15 -8 34t-3 46q0 26 3 45t8 34q18 54 59.5 82t100.5 28t100.5 -28t59.5 -82q5 -15 8 -34t3 -45q0 -27 -3 -46t-8 -34q-18 -54 -59.5 -82t-100.5 -28zM217 338q45 0 77.5 22t45.5 63q4 12 6.5 28.5t2.5 41.5q0 24 -2.5 40.5
t-6.5 28.5q-13 41 -45.5 63t-77.5 22q-46 0 -78 -22t-46 -63q-4 -12 -6.5 -28.5t-2.5 -40.5q0 -25 2.5 -41.5t6.5 -28.5q14 -41 46 -63t78 -22zM171 388q-7 0 -7 7v198q0 7 7 7h47q61 0 61 -62q0 -20 -7 -33.5t-18 -21.5l29 -88q3 -7 -5 -7h-28q-6 0 -9 7l-24 79h-10
q-4 0 -4 -5v-74q0 -7 -7 -7h-25zM215 509q13 0 18.5 5.5t5.5 22.5q0 16 -5.5 21t-18.5 5h-8q-4 0 -4 -4v-45q0 -5 4 -5h8z" />
    <glyph glyph-name="macron" unicode="&#xaf;" horiz-adv-x="415" 
d="M105 588q-10 0 -10 10v60q0 10 10 10h205q10 0 10 -10v-60q0 -10 -10 -10h-205z" />
    <glyph glyph-name="degree" unicode="&#xb0;" horiz-adv-x="341" 
d="M170 445q-26 0 -47.5 9t-38 25t-25.5 37.5t-9 47.5t9 48t25.5 38t38 25t47.5 9t48 -9t38.5 -25t25.5 -38t9 -48t-9 -47.5t-25.5 -37.5t-38.5 -25t-48 -9zM170 502q27 0 43.5 17.5t16.5 44.5q0 28 -16.5 45.5t-43.5 17.5q-26 0 -42.5 -17.5t-16.5 -45.5q0 -27 16.5 -44.5
t42.5 -17.5z" />
    <glyph glyph-name="plusminus" unicode="&#xb1;" 
d="M163 137q-10 0 -10 10v102q0 6 -6 6h-101q-10 0 -10 10v70q0 10 10 10h101q6 0 6 6v102q0 10 10 10h73q10 0 10 -10v-102q0 -6 6 -6h100q10 0 10 -10v-70q0 -10 -10 -10h-100q-6 0 -6 -6v-102q0 -10 -10 -10h-73zM46 0q-10 0 -10 10v69q0 10 10 10h306q10 0 10 -10v-69
q0 -10 -10 -10h-306z" />
    <glyph glyph-name="uni00B2" unicode="&#xb2;" horiz-adv-x="281" 
d="M45 430q-10 0 -10 10v48q0 8 5 16l111 169q9 13 13 25t4 29q0 15 -0.5 20.5t-2.5 9.5q-7 16 -27 16q-21 0 -26 -16q-2 -4 -2.5 -10.5t-0.5 -29.5q0 -12 -12 -10l-54 6q-10 1 -10 12q0 21 1.5 32.5t4.5 20.5q10 31 36 48.5t65 17.5q40 0 66 -17.5t36 -48.5q3 -9 4.5 -20
t1.5 -30q0 -51 -26 -90l-90 -136v-1h106q10 0 10 -10v-51q0 -10 -10 -10h-193z" />
    <glyph glyph-name="uni00B3" unicode="&#xb3;" horiz-adv-x="281" 
d="M139 422q-39 0 -65 17t-36 48q-6 19 -6 40q0 11 10 12l54 6q12 2 12 -10t0.5 -17t2.5 -9q5 -16 26 -16q20 0 27 16q2 4 2.5 10.5t0.5 26.5t-0.5 27.5t-2.5 12.5q-5 17 -27 17h-8q-10 0 -10 10v52q0 10 10 10h7q22 0 29 17q2 5 2 11v23q0 16 -0.5 21.5t-2.5 9.5
q-7 16 -27 16q-21 0 -26 -16q-2 -4 -2.5 -9t-0.5 -17t-12 -10l-54 6q-10 1 -10 12q0 20 6 40q10 31 36 48t65 17q40 0 66 -17t36 -48q3 -10 4.5 -21.5t1.5 -31.5q0 -21 -1 -30t-3 -16q-9 -27 -36 -38v-1q27 -16 35 -40q3 -8 4 -19t1 -36t-1.5 -37t-4.5 -22q-10 -31 -36 -48
t-66 -17z" />
    <glyph glyph-name="acute" unicode="&#xb4;" horiz-adv-x="415" 
d="M128 555q-11 0 -6 10l69 125q6 10 16 10h81q5 0 6.5 -3t-1.5 -7l-90 -125q-8 -10 -18 -10h-57z" />
    <glyph glyph-name="uni00B5" unicode="&#xb5;" horiz-adv-x="407" 
d="M264 0q-10 0 -10 10v38h-1q-9 -28 -29 -42t-47 -14q-7 0 -14 1.5t-10 4.5v-168q0 -10 -10 -10h-82q-10 0 -10 10v642q0 10 10 10h82q10 0 10 -10v-317q0 -70 51 -70q50 0 50 70v317q0 10 10 10h82q10 0 10 -10v-462q0 -10 -10 -10h-82z" />
    <glyph glyph-name="uni00B5" unicode="&#x3bc;" horiz-adv-x="407" 
d="M264 0q-10 0 -10 10v38h-1q-9 -28 -29 -42t-47 -14q-7 0 -14 1.5t-10 4.5v-168q0 -10 -10 -10h-82q-10 0 -10 10v642q0 10 10 10h82q10 0 10 -10v-317q0 -70 51 -70q50 0 50 70v317q0 10 10 10h82q10 0 10 -10v-462q0 -10 -10 -10h-82z" />
    <glyph glyph-name="paragraph" unicode="&#xb6;" horiz-adv-x="510" 
d="M379 -180q-10 0 -10 10v759q0 6 -6 6h-54q-6 0 -6 -6v-759q0 -10 -10 -10h-61q-10 0 -10 10v428q-36 3 -66 20.5t-51.5 45.5t-33 65t-11.5 80t13.5 81.5t38.5 67.5t61 45.5t81 16.5h186q10 0 10 -10v-840q0 -10 -10 -10h-61z" />
    <glyph glyph-name="periodcentered" unicode="&#xb7;" horiz-adv-x="197" 
d="M56 205q-10 0 -10 10v99q0 10 10 10h85q10 0 10 -10v-99q0 -10 -10 -10h-85z" />
    <glyph glyph-name="cedilla" unicode="&#xb8;" horiz-adv-x="415" 
d="M200 0q4 10 13 10h59q10 0 7 -10l-51 -145q-4 -10 -16 -10h-66q-10 0 -7 10z" />
    <glyph glyph-name="uni00B9" unicode="&#xb9;" horiz-adv-x="281" 
d="M130 430q-10 0 -10 10v307h-1l-57 -32q-5 -3 -8.5 -1.5t-3.5 6.5v61q0 8 8 13l60 37q8 5 15 5h58q10 0 10 -10v-386q0 -10 -10 -10h-61z" />
    <glyph glyph-name="ordmasculine" unicode="&#xba;" horiz-adv-x="287" 
d="M144 386q-36 0 -61 15.5t-36 47.5q-4 11 -5.5 27.5t-1.5 60.5t1.5 60.5t5.5 27.5q11 32 36 47.5t61 15.5q35 0 60 -15.5t36 -47.5q4 -11 5.5 -27.5t1.5 -60.5t-1.5 -60.5t-5.5 -27.5q-11 -32 -36 -47.5t-60 -15.5zM144 449q26 0 32 21q2 7 3 18.5t1 48.5t-1 48.5t-3 18.5
q-6 21 -32 21q-27 0 -33 -21q-2 -7 -3 -18.5t-1 -48.5t1 -48.5t3 -18.5q6 -21 33 -21z" />
    <glyph glyph-name="guillemotright" unicode="&#xbb;" horiz-adv-x="485" 
d="M271 79q-3 -3 -6.5 -2t-3.5 6v80q0 8 10 18l78 79q4 4 0 8l-78 79q-10 10 -10 18v80q0 5 3.5 6t6.5 -2l177 -178q7 -7 0 -14zM70 79q-3 -3 -6.5 -2t-3.5 6v80q0 8 10 18l79 79q4 4 0 8l-79 79q-10 10 -10 18v80q0 5 3.5 6t6.5 -2l177 -178q7 -7 0 -14z" />
    <glyph glyph-name="onequarter" unicode="&#xbc;" horiz-adv-x="740" 
d="M159 274q-10 0 -10 10v307h-1l-57 -32q-5 -3 -8.5 -1.5t-3.5 6.5v61q0 8 8 13l60 37q8 5 15 5h58q10 0 10 -10v-386q0 -10 -10 -10h-61zM564 1q-10 0 -10 10v36q0 6 -6 6h-123q-10 0 -10 10v50q0 7 3 16l88 268q3 10 12 10h62q10 0 7 -10l-89 -271v-3h50q6 0 6 6v95
q0 10 10 10h55q10 0 10 -10v-95q0 -6 5 -6h15q10 0 10 -10v-50q0 -10 -10 -10h-14q-6 0 -6 -6v-36q0 -10 -10 -10h-55zM202 -9q-10 0 -7 10l252 678q4 10 13 10h54q10 0 7 -10l-252 -678q-4 -10 -13 -10h-54z" />
    <glyph glyph-name="onehalf" unicode="&#xbd;" horiz-adv-x="758" 
d="M159 274q-10 0 -10 10v307h-1l-57 -32q-5 -3 -8.5 -1.5t-3.5 6.5v61q0 8 8 13l60 37q8 5 15 5h58q10 0 10 -10v-386q0 -10 -10 -10h-61zM474 1q-10 0 -10 10v48q0 8 5 16l111 169q9 13 13 25t4 29q0 15 -0.5 20.5t-2.5 9.5q-7 16 -27 16q-21 0 -26 -16q-2 -4 -2.5 -10.5
t-0.5 -29.5q0 -12 -12 -10l-54 6q-10 1 -10 12q0 21 1.5 32.5t4.5 20.5q10 31 36 48.5t65 17.5q40 0 66 -17.5t36 -48.5q3 -9 4.5 -20t1.5 -30q0 -51 -26 -90l-90 -136v-1h106q10 0 10 -10v-51q0 -10 -10 -10h-193zM202 -9q-10 0 -7 10l252 678q4 10 13 10h54q10 0 7 -10
l-252 -678q-4 -10 -13 -10h-54z" />
    <glyph glyph-name="threequarters" unicode="&#xbe;" horiz-adv-x="779" 
d="M603 1q-10 0 -10 10v36q0 6 -6 6h-123q-10 0 -10 10v50q0 7 3 16l88 268q3 10 12 10h62q10 0 7 -10l-89 -271v-3h50q6 0 6 6v95q0 10 10 10h55q10 0 10 -10v-95q0 -6 5 -6h15q10 0 10 -10v-50q0 -10 -10 -10h-14q-6 0 -6 -6v-36q0 -10 -10 -10h-55zM242 -9q-10 0 -7 10
l252 678q4 10 13 10h54q10 0 7 -10l-252 -678q-4 -10 -13 -10h-54zM186 266q-39 0 -65 17t-36 48q-6 19 -6 40q0 11 10 12l54 6q12 2 12 -10t0.5 -17t2.5 -9q5 -16 26 -16q20 0 27 16q2 4 2.5 10.5t0.5 26.5t-0.5 27.5t-2.5 12.5q-5 17 -27 17h-8q-10 0 -10 10v52
q0 10 10 10h7q22 0 29 17q2 5 2 11v23q0 16 -0.5 21.5t-2.5 9.5q-7 16 -27 16q-21 0 -26 -16q-2 -4 -2.5 -9t-0.5 -17t-12 -10l-54 6q-10 1 -10 12q0 20 6 40q10 31 36 48t65 17q40 0 66 -17t36 -48q3 -10 4.5 -21.5t1.5 -31.5q0 -21 -1 -30t-3 -16q-9 -27 -36 -38v-1
q27 -16 35 -40q3 -8 4 -19t1 -36t-1.5 -37t-4.5 -22q-10 -31 -36 -48t-66 -17z" />
    <glyph glyph-name="questiondown" unicode="&#xbf;" horiz-adv-x="391" 
d="M251.009 312.011q9.99902 0 9.99902 -10v-74.9951q0 -17.999 -4.5 -33.998q-4.49902 -15.999 -14.499 -33.998l-55.9961 -102.993q-12.999 -23.999 -18.999 -45.498q-6 -21.498 -6 -56.4961q0 -22.999 4 -35.998q10.999 -31.998 45.9971 -31.998t46.9971 31.998l2 8
q1 3.99902 1.5 10.999t0.5 17.499v26.498q0 12 10.999 10l77.9951 -7q10 -1 10 -11.999q0 -36.998 -2 -53.9971t-7 -29.998q-14.999 -44.9971 -52.9961 -69.9951q-37.998 -24.999 -89.9951 -24.999q-56.9961 0 -91.9941 26.498q-34.998 26.499 -48.9971 68.4961
q-5 13.999 -6.99902 28.998q-2 14.999 -2 36.998q0 37.998 6.99902 63.9961q7 25.998 20.999 53.9971l55.9971 104.993q7.99902 13.999 11.999 26.998q3.99902 13 3.99902 27.999v69.9951q0 10 10 10h81.9951zM262.008 373.007q0 -10 -9.99902 -10h-83.9951
q-9.99902 0 -9.99902 10v98.9941q0 9.99902 9.99902 9.99902h83.9951q9.99902 0 9.99902 -9.99902v-98.9941z" />
    <glyph glyph-name="Agrave" unicode="&#xc0;" horiz-adv-x="421" 
d="M159 670q3 10 11 10h84q9 0 11 -10l144 -660q2 -10 -8 -10h-85q-9 0 -11 10l-27 137h-135l-27 -137q-2 -10 -11 -10h-85q-10 0 -8 10zM261 237l-48 253h-3l-50 -253h101zM185 761q-10 0 -20 10l-99 107q-3 4 -1.5 7t6.5 3h81q7 0 10 -2.5t7 -7.5l76 -107q3 -4 1.5 -7
t-6.5 -3h-55z" />
    <glyph glyph-name="Aacute" unicode="&#xc1;" horiz-adv-x="421" 
d="M159 670q3 10 11 10h84q9 0 11 -10l144 -660q2 -10 -8 -10h-85q-9 0 -11 10l-27 137h-135l-27 -137q-2 -10 -11 -10h-85q-10 0 -8 10zM261 237l-48 253h-3l-50 -253h101zM183 761q-5 0 -7 3t1 7l77 107q4 5 7 7.5t9 2.5h81q5 0 6.5 -3t-1.5 -7l-98 -107q-10 -10 -20 -10
h-55z" />
    <glyph glyph-name="Acircumflex" unicode="&#xc2;" horiz-adv-x="421" 
d="M159 670q3 10 11 10h84q9 0 11 -10l144 -660q2 -10 -8 -10h-85q-9 0 -11 10l-27 137h-135l-27 -137q-2 -10 -11 -10h-85q-10 0 -8 10zM261 237l-48 253h-3l-50 -253h101zM277 750q-10 0 -19 10l-48 60h-2l-47 -60q-9 -10 -19 -10h-60q-5 0 -6 3t2 7l88 125q7 10 17 10h52
q11 0 18 -10l88 -125q3 -4 2 -7t-6 -3h-60z" />
    <glyph glyph-name="Atilde" unicode="&#xc3;" horiz-adv-x="421" 
d="M159 670q3 10 11 10h84q9 0 11 -10l144 -660q2 -10 -8 -10h-85q-9 0 -11 10l-27 137h-135l-27 -137q-2 -10 -11 -10h-85q-10 0 -8 10zM261 237l-48 253h-3l-50 -253h101zM254 763q-17 0 -28 5t-24 13q-12 8 -19.5 12t-18.5 4q-16 0 -26.5 -7.5t-21.5 -18.5q-4 -4 -8 -2.5
t-4 6.5v61q0 9 10 19t22 17t29 7t28 -5t23 -13q13 -8 20.5 -12t18.5 -4q16 0 26.5 7.5t21.5 18.5q4 4 8 2.5t4 -6.5v-61q0 -5 -2 -9t-8 -10q-10 -10 -22 -17t-29 -7z" />
    <glyph glyph-name="Adieresis" unicode="&#xc4;" horiz-adv-x="421" 
d="M159 670q3 10 11 10h84q9 0 11 -10l144 -660q2 -10 -8 -10h-85q-9 0 -11 10l-27 137h-135l-27 -137q-2 -10 -11 -10h-85q-10 0 -8 10zM261 237l-48 253h-3l-50 -253h101zM253 769q-10 0 -10 10v86q0 10 10 10h65q10 0 10 -10v-86q0 -10 -10 -10h-65zM101 769
q-10 0 -10 10v86q0 10 10 10h65q10 0 10 -10v-86q0 -10 -10 -10h-65z" />
    <glyph glyph-name="Aring" unicode="&#xc5;" horiz-adv-x="421" 
d="M159 670q3 10 11 10h84q9 0 11 -10l144 -660q2 -10 -8 -10h-85q-9 0 -11 10l-27 137h-135l-27 -137q-2 -10 -11 -10h-85q-10 0 -8 10zM261 237l-48 253h-3l-50 -253h101zM209 721q-38 0 -64 26t-26 65q0 38 26 64t64 26q39 0 65 -26t26 -64q0 -39 -26 -65t-65 -26z
M209 764q20 0 33 14t13 34t-13 33.5t-33 13.5t-32.5 -13.5t-12.5 -33.5t12.5 -34t32.5 -14z" />
    <glyph glyph-name="AE" unicode="&#xc6;" horiz-adv-x="656" 
d="M339 0q-10 0 -10 10v131q0 6 -6 6h-157l-50 -137q-3 -10 -13 -10h-84q-10 0 -7 10l247 660q3 10 11 10h347q10 0 10 -10v-77q0 -10 -10 -10h-175q-6 0 -6 -6v-179q0 -6 6 -6h152q10 0 10 -10v-77q0 -10 -10 -10h-152q-6 0 -6 -6v-186q0 -6 6 -6h175q10 0 10 -10v-77
q0 -10 -10 -10h-278zM199 237h124q6 0 6 6v339h-3z" />
    <glyph glyph-name="Ccedilla" unicode="&#xc7;" horiz-adv-x="387" 
d="M170 -6q-46 8 -74.5 33.5t-41.5 67.5q-3 10 -5.5 23.5t-4 39t-2.5 68.5t-1 114t1 114t2.5 68.5t4 38.5t5.5 24q16 49 53.5 76.5t100.5 27.5q73 0 116 -39t48 -124q2 -11 -7 -12l-81 -14q-11 -2 -11 9q-2 44 -17.5 63.5t-44.5 19.5q-23 0 -35.5 -9.5t-18.5 -28.5
q-2 -6 -3.5 -14.5t-2 -29.5t-1 -61t-0.5 -109t0.5 -109t1 -61t2 -29.5t3.5 -14.5q6 -19 18.5 -28.5t35.5 -9.5q29 0 44.5 19.5t17.5 63.5q0 11 11 9l81 -14q9 -1 7 -12q-4 -72 -36 -110.5t-86 -48.5l-49 -140q-4 -10 -16 -10h-66q-10 0 -7 10z" />
    <glyph glyph-name="Egrave" unicode="&#xc8;" horiz-adv-x="381" 
d="M183 761q-10 0 -20 10l-99 107q-3 4 -1.5 7t6.5 3h81q7 0 10 -2.5t7 -7.5l76 -107q3 -4 1.5 -7t-6.5 -3h-55zM53 670q0 10 10 10h279q10 0 10 -10v-77q0 -10 -10 -10h-176q-6 0 -6 -6v-179q0 -6 6 -6h152q10 0 10 -10v-77q0 -10 -10 -10h-152q-6 0 -6 -6v-186q0 -6 6 -6
h176q10 0 10 -10v-77q0 -10 -10 -10h-279q-10 0 -10 10v660z" />
    <glyph glyph-name="Eacute" unicode="&#xc9;" horiz-adv-x="381" 
d="M165 761q-5 0 -7 3t1 7l77 107q4 5 7 7.5t9 2.5h81q5 0 6.5 -3t-1.5 -7l-98 -107q-10 -10 -20 -10h-55zM53 670q0 10 10 10h279q10 0 10 -10v-77q0 -10 -10 -10h-176q-6 0 -6 -6v-179q0 -6 6 -6h152q10 0 10 -10v-77q0 -10 -10 -10h-152q-6 0 -6 -6v-186q0 -6 6 -6h176
q10 0 10 -10v-77q0 -10 -10 -10h-279q-10 0 -10 10v660z" />
    <glyph glyph-name="Ecircumflex" unicode="&#xca;" horiz-adv-x="381" 
d="M53 670q0 10 10 10h279q10 0 10 -10v-77q0 -10 -10 -10h-176q-6 0 -6 -6v-179q0 -6 6 -6h152q10 0 10 -10v-77q0 -10 -10 -10h-152q-6 0 -6 -6v-186q0 -6 6 -6h176q10 0 10 -10v-77q0 -10 -10 -10h-279q-10 0 -10 10v660zM271 750q-10 0 -19 10l-48 60h-2l-47 -60
q-9 -10 -19 -10h-60q-5 0 -6 3t2 7l88 125q7 10 17 10h52q11 0 18 -10l88 -125q3 -4 2 -7t-6 -3h-60z" />
    <glyph glyph-name="Edieresis" unicode="&#xcb;" horiz-adv-x="381" 
d="M246 769q-10 0 -10 10v86q0 10 10 10h65q10 0 10 -10v-86q0 -10 -10 -10h-65zM94 769q-10 0 -10 10v86q0 10 10 10h65q10 0 10 -10v-86q0 -10 -10 -10h-65zM53 670q0 10 10 10h279q10 0 10 -10v-77q0 -10 -10 -10h-176q-6 0 -6 -6v-179q0 -6 6 -6h152q10 0 10 -10v-77
q0 -10 -10 -10h-152q-6 0 -6 -6v-186q0 -6 6 -6h176q10 0 10 -10v-77q0 -10 -10 -10h-279q-10 0 -10 10v660z" />
    <glyph glyph-name="Igrave" unicode="&#xcc;" horiz-adv-x="213" 
d="M53 670q0 10 10 10h87q10 0 10 -10v-660q0 -10 -10 -10h-87q-10 0 -10 10v660zM82 761q-10 0 -20 10l-99 107q-3 4 -1.5 7t6.5 3h81q7 0 10 -2.5t7 -7.5l76 -107q3 -4 1.5 -7t-6.5 -3h-55z" />
    <glyph glyph-name="Iacute" unicode="&#xcd;" horiz-adv-x="213" 
d="M53 670q0 10 10 10h87q10 0 10 -10v-660q0 -10 -10 -10h-87q-10 0 -10 10v660zM78 761q-5 0 -7 3t1 7l77 107q4 5 7 7.5t9 2.5h81q5 0 6.5 -3t-1.5 -7l-98 -107q-10 -10 -20 -10h-55z" />
    <glyph glyph-name="Icircumflex" unicode="&#xce;" horiz-adv-x="213" 
d="M53 670q0 10 10 10h87q10 0 10 -10v-660q0 -10 -10 -10h-87q-10 0 -10 10v660zM175 750q-10 0 -19 10l-48 60h-2l-47 -60q-9 -10 -19 -10h-60q-5 0 -6 3t2 7l88 125q7 10 17 10h52q11 0 18 -10l88 -125q3 -4 2 -7t-6 -3h-60z" />
    <glyph glyph-name="Idieresis" unicode="&#xcf;" horiz-adv-x="213" 
d="M53 670q0 10 10 10h87q10 0 10 -10v-660q0 -10 -10 -10h-87q-10 0 -10 10v660zM151 769q-10 0 -10 10v86q0 10 10 10h65q10 0 10 -10v-86q0 -10 -10 -10h-65zM-1 769q-10 0 -10 10v86q0 10 10 10h65q10 0 10 -10v-86q0 -10 -10 -10h-65z" />
    <glyph glyph-name="Eth" unicode="&#xd0;" horiz-adv-x="443" 
d="M63 0q-10 0 -10 10v287q0 6 -6 6h-26q-10 0 -10 10v60q0 10 10 10h26q6 0 6 6v281q0 10 10 10h157q67 0 107 -27t58 -82q4 -14 7.5 -31t5.5 -43t3 -64t1 -93q0 -56 -1 -93.5t-3 -63.5t-5.5 -43t-7.5 -31q-18 -55 -58 -82t-107 -27h-157zM209 97q55 0 72 49q3 9 5 21.5
t3.5 34t2.5 54.5t1 84t-1 84t-2.5 54.5t-3.5 34t-5 21.5q-17 49 -72 49h-43q-6 0 -6 -6v-188q0 -6 6 -6h57q10 0 10 -10v-60q0 -10 -10 -10h-57q-6 0 -6 -6v-194q0 -6 6 -6h43z" />
    <glyph glyph-name="Ntilde" unicode="&#xd1;" horiz-adv-x="461" 
d="M275 763q-17 0 -28 5t-24 13q-12 8 -19.5 12t-18.5 4q-16 0 -26.5 -7.5t-21.5 -18.5q-4 -4 -8 -2.5t-4 6.5v61q0 9 10 19t22 17t29 7t28 -5t23 -13q13 -8 20.5 -12t18.5 -4q16 0 26.5 7.5t21.5 18.5q4 4 8 2.5t4 -6.5v-61q0 -5 -2 -9t-8 -10q-10 -10 -22 -17t-29 -7z
M53 670q0 10 10 10h106q11 0 14 -10l126 -470h5v470q0 10 10 10h74q10 0 10 -10v-660q0 -10 -10 -10h-99q-11 0 -14 10l-132 470h-6v-470q0 -10 -10 -10h-74q-10 0 -10 10v660z" />
    <glyph glyph-name="Ograve" unicode="&#xd2;" horiz-adv-x="429" 
d="M190 761q-10 0 -20 10l-99 107q-3 4 -1.5 7t6.5 3h81q7 0 10 -2.5t7 -7.5l76 -107q3 -4 1.5 -7t-6.5 -3h-55zM215 -9q-63 0 -103.5 27.5t-57.5 78.5q-4 11 -6.5 24t-4 38t-2 67.5t-0.5 113.5t0.5 113.5t2 67.5t4 38t6.5 24q17 51 57.5 78.5t103.5 27.5t103 -27.5
t57 -78.5q4 -11 6.5 -24t4 -38t2 -67.5t0.5 -113.5t-0.5 -113.5t-2 -67.5t-4 -38t-6.5 -24q-17 -51 -57 -78.5t-103 -27.5zM215 88q21 0 36.5 10.5t20.5 27.5q2 7 3.5 15t2 29t1 60.5t0.5 109.5t-0.5 109.5t-1 60.5t-2 29t-3.5 15q-5 17 -20.5 27.5t-36.5 10.5
q-22 0 -37.5 -10.5t-20.5 -27.5q-2 -7 -3.5 -15t-2.5 -29t-1 -60.5v-109.5v-109.5t1 -60.5t2.5 -29t3.5 -15q5 -17 20.5 -27.5t37.5 -10.5z" />
    <glyph glyph-name="Oacute" unicode="&#xd3;" horiz-adv-x="429" 
d="M175 761q-5 0 -7 3t1 7l77 107q4 5 7 7.5t9 2.5h81q5 0 6.5 -3t-1.5 -7l-98 -107q-10 -10 -20 -10h-55zM215 -9q-63 0 -103.5 27.5t-57.5 78.5q-4 11 -6.5 24t-4 38t-2 67.5t-0.5 113.5t0.5 113.5t2 67.5t4 38t6.5 24q17 51 57.5 78.5t103.5 27.5t103 -27.5t57 -78.5
q4 -11 6.5 -24t4 -38t2 -67.5t0.5 -113.5t-0.5 -113.5t-2 -67.5t-4 -38t-6.5 -24q-17 -51 -57 -78.5t-103 -27.5zM215 88q21 0 36.5 10.5t20.5 27.5q2 7 3.5 15t2 29t1 60.5t0.5 109.5t-0.5 109.5t-1 60.5t-2 29t-3.5 15q-5 17 -20.5 27.5t-36.5 10.5q-22 0 -37.5 -10.5
t-20.5 -27.5q-2 -7 -3.5 -15t-2.5 -29t-1 -60.5v-109.5v-109.5t1 -60.5t2.5 -29t3.5 -15q5 -17 20.5 -27.5t37.5 -10.5z" />
    <glyph glyph-name="Ocircumflex" unicode="&#xd4;" horiz-adv-x="429" 
d="M215 -9q-63 0 -103.5 27.5t-57.5 78.5q-4 11 -6.5 24t-4 38t-2 67.5t-0.5 113.5t0.5 113.5t2 67.5t4 38t6.5 24q17 51 57.5 78.5t103.5 27.5t103 -27.5t57 -78.5q4 -11 6.5 -24t4 -38t2 -67.5t0.5 -113.5t-0.5 -113.5t-2 -67.5t-4 -38t-6.5 -24q-17 -51 -57 -78.5
t-103 -27.5zM215 88q21 0 36.5 10.5t20.5 27.5q2 7 3.5 15t2 29t1 60.5t0.5 109.5t-0.5 109.5t-1 60.5t-2 29t-3.5 15q-5 17 -20.5 27.5t-36.5 10.5q-22 0 -37.5 -10.5t-20.5 -27.5q-2 -7 -3.5 -15t-2.5 -29t-1 -60.5v-109.5v-109.5t1 -60.5t2.5 -29t3.5 -15
q5 -17 20.5 -27.5t37.5 -10.5zM282 750q-10 0 -19 10l-48 60h-2l-47 -60q-9 -10 -19 -10h-60q-5 0 -6 3t2 7l88 125q7 10 17 10h52q11 0 18 -10l88 -125q3 -4 2 -7t-6 -3h-60z" />
    <glyph glyph-name="Otilde" unicode="&#xd5;" horiz-adv-x="429" 
d="M259 763q-17 0 -28 5t-24 13q-12 8 -19.5 12t-18.5 4q-16 0 -26.5 -7.5t-21.5 -18.5q-4 -4 -8 -2.5t-4 6.5v61q0 9 10 19t22 17t29 7t28 -5t23 -13q13 -8 20.5 -12t18.5 -4q16 0 26.5 7.5t21.5 18.5q4 4 8 2.5t4 -6.5v-61q0 -5 -2 -9t-8 -10q-10 -10 -22 -17t-29 -7z
M215 -9q-63 0 -103.5 27.5t-57.5 78.5q-4 11 -6.5 24t-4 38t-2 67.5t-0.5 113.5t0.5 113.5t2 67.5t4 38t6.5 24q17 51 57.5 78.5t103.5 27.5t103 -27.5t57 -78.5q4 -11 6.5 -24t4 -38t2 -67.5t0.5 -113.5t-0.5 -113.5t-2 -67.5t-4 -38t-6.5 -24q-17 -51 -57 -78.5
t-103 -27.5zM215 88q21 0 36.5 10.5t20.5 27.5q2 7 3.5 15t2 29t1 60.5t0.5 109.5t-0.5 109.5t-1 60.5t-2 29t-3.5 15q-5 17 -20.5 27.5t-36.5 10.5q-22 0 -37.5 -10.5t-20.5 -27.5q-2 -7 -3.5 -15t-2.5 -29t-1 -60.5v-109.5v-109.5t1 -60.5t2.5 -29t3.5 -15
q5 -17 20.5 -27.5t37.5 -10.5z" />
    <glyph glyph-name="Odieresis" unicode="&#xd6;" horiz-adv-x="429" 
d="M258 769q-10 0 -10 10v86q0 10 10 10h65q10 0 10 -10v-86q0 -10 -10 -10h-65zM106 769q-10 0 -10 10v86q0 10 10 10h65q10 0 10 -10v-86q0 -10 -10 -10h-65zM215 -9q-63 0 -103.5 27.5t-57.5 78.5q-4 11 -6.5 24t-4 38t-2 67.5t-0.5 113.5t0.5 113.5t2 67.5t4 38t6.5 24
q17 51 57.5 78.5t103.5 27.5t103 -27.5t57 -78.5q4 -11 6.5 -24t4 -38t2 -67.5t0.5 -113.5t-0.5 -113.5t-2 -67.5t-4 -38t-6.5 -24q-17 -51 -57 -78.5t-103 -27.5zM215 88q21 0 36.5 10.5t20.5 27.5q2 7 3.5 15t2 29t1 60.5t0.5 109.5t-0.5 109.5t-1 60.5t-2 29t-3.5 15
q-5 17 -20.5 27.5t-36.5 10.5q-22 0 -37.5 -10.5t-20.5 -27.5q-2 -7 -3.5 -15t-2.5 -29t-1 -60.5v-109.5v-109.5t1 -60.5t2.5 -29t3.5 -15q5 -17 20.5 -27.5t37.5 -10.5z" />
    <glyph glyph-name="multiply" unicode="&#xd7;" 
d="M296 133q-7 -7 -14 0l-79 79q-4 3 -8 0l-78 -79q-7 -7 -14 0l-47 47q-7 7 0 14l79 78q3 4 0 8l-79 78q-7 7 0 14l47 47q7 7 14 0l78 -79q4 -3 8 0l79 79q7 7 14 0l46 -47q7 -7 0 -14l-79 -78q-3 -4 0 -8l79 -78q7 -7 0 -14z" />
    <glyph glyph-name="Oslash" unicode="&#xd8;" horiz-adv-x="429" 
d="M40 -30q-11 0 -6 10l35 82q-10 18 -15 35q-4 11 -6.5 24t-4 38t-2 67.5t-0.5 113.5t0.5 113.5t2 67.5t4 38t6.5 24q17 51 57.5 78.5t103.5 27.5q69 0 113 -36l21 48q4 9 13 9h26q10 0 7 -10l-36 -82q5 -8 9 -17t7 -18q4 -11 6.5 -24t4 -38t2 -67.5t0.5 -113.5
t-0.5 -113.5t-2 -67.5t-4 -38t-6.5 -24q-17 -51 -57 -78.5t-103 -27.5q-71 0 -115 35l-20 -47q-4 -9 -13 -9h-27zM150 238l125 305l-3 11q-5 17 -20.5 27.5t-36.5 10.5q-22 0 -37.5 -10.5t-20.5 -27.5q-2 -7 -3.5 -15t-2.5 -29t-1 -60.5v-109.5v-102zM215 88q21 0 36.5 10.5
t20.5 27.5q2 7 3.5 15t2 29t1 60.5t0.5 109.5v101l-125 -304l3 -11q5 -17 20.5 -27.5t37.5 -10.5z" />
    <glyph glyph-name="Ugrave" unicode="&#xd9;" horiz-adv-x="443" 
d="M201 761q-10 0 -20 10l-99 107q-3 4 -1.5 7t6.5 3h81q7 0 10 -2.5t7 -7.5l76 -107q3 -4 1.5 -7t-6.5 -3h-55zM222 -9q-79 0 -124.5 45.5t-45.5 136.5v497q0 10 10 10h87q10 0 10 -10v-511q0 -32 16.5 -51.5t46.5 -19.5t46 19.5t16 51.5v511q0 10 10 10h87q10 0 10 -10
v-497q0 -91 -45 -136.5t-124 -45.5z" />
    <glyph glyph-name="Uacute" unicode="&#xda;" horiz-adv-x="443" 
d="M193 761q-5 0 -7 3t1 7l77 107q4 5 7 7.5t9 2.5h81q5 0 6.5 -3t-1.5 -7l-98 -107q-10 -10 -20 -10h-55zM222 -9q-79 0 -124.5 45.5t-45.5 136.5v497q0 10 10 10h87q10 0 10 -10v-511q0 -32 16.5 -51.5t46.5 -19.5t46 19.5t16 51.5v511q0 10 10 10h87q10 0 10 -10v-497
q0 -91 -45 -136.5t-124 -45.5z" />
    <glyph glyph-name="Ucircumflex" unicode="&#xdb;" horiz-adv-x="443" 
d="M222 -9q-79 0 -124.5 45.5t-45.5 136.5v497q0 10 10 10h87q10 0 10 -10v-511q0 -32 16.5 -51.5t46.5 -19.5t46 19.5t16 51.5v511q0 10 10 10h87q10 0 10 -10v-497q0 -91 -45 -136.5t-124 -45.5zM289 750q-10 0 -19 10l-48 60h-2l-47 -60q-9 -10 -19 -10h-60q-5 0 -6 3
t2 7l88 125q7 10 17 10h52q11 0 18 -10l88 -125q3 -4 2 -7t-6 -3h-60z" />
    <glyph glyph-name="Udieresis" unicode="&#xdc;" horiz-adv-x="443" 
d="M265 769q-10 0 -10 10v86q0 10 10 10h65q10 0 10 -10v-86q0 -10 -10 -10h-65zM113 769q-10 0 -10 10v86q0 10 10 10h65q10 0 10 -10v-86q0 -10 -10 -10h-65zM222 -9q-79 0 -124.5 45.5t-45.5 136.5v497q0 10 10 10h87q10 0 10 -10v-511q0 -32 16.5 -51.5t46.5 -19.5
t46 19.5t16 51.5v511q0 10 10 10h87q10 0 10 -10v-497q0 -91 -45 -136.5t-124 -45.5z" />
    <glyph glyph-name="Yacute" unicode="&#xdd;" horiz-adv-x="386" 
d="M150 0q-10 0 -10 10v269l-130 391q-3 10 8 10h88q9 0 12 -10l76 -263h3l74 263q3 10 12 10h86q11 0 8 -10l-130 -391v-269q0 -10 -10 -10h-87zM163 761q-5 0 -7 3t1 7l77 107q4 5 7 7.5t9 2.5h81q5 0 6.5 -3t-1.5 -7l-98 -107q-10 -10 -20 -10h-55z" />
    <glyph glyph-name="Thorn" unicode="&#xde;" horiz-adv-x="425" 
d="M63 0q-10 0 -10 10v660q0 10 10 10h87q10 0 10 -10v-104q0 -6 6 -6h34q45 0 81 -11t61 -35.5t38 -64.5t13 -98q0 -57 -13 -97t-38 -64.5t-61 -36t-81 -11.5h-34q-6 0 -6 -6v-126q0 -10 -10 -10h-87zM201 239q45 0 65 23.5t20 88.5q0 64 -20 88t-65 24h-35q-6 0 -6 -6
v-212q0 -6 6 -6h35z" />
    <glyph glyph-name="germandbls" unicode="&#xdf;" horiz-adv-x="413" 
d="M219 -4q-10 0 -10 10v73q0 10 10 10h7q29 0 37 24q1 3 2 8.5t1.5 16.5t1 30t0.5 50t-0.5 49.5t-1 29.5t-1.5 16.5t-2 8.5q-8 24 -37 24h-7q-10 0 -10 10v73q0 10 10 10h5q29 0 36 24q2 5 3 17t1 42q0 73 -55 73q-56 0 -56 -73v-512q0 -10 -10 -10h-82q-10 0 -10 10v501
q0 40 9 73t28 56t48.5 36t71.5 13q75 0 116.5 -42t41.5 -117q0 -27 -2.5 -46.5t-8.5 -34t-16.5 -25.5t-25.5 -22v-2q17 -11 29 -24.5t19 -34.5q3 -8 4.5 -17t2.5 -22.5t1.5 -33.5t0.5 -50q0 -35 -0.5 -59.5t-2 -41t-3.5 -27.5t-5 -20q-13 -41 -43 -57.5t-79 -16.5h-18z" />
    <glyph glyph-name="agrave" unicode="&#xe0;" horiz-adv-x="383" 
d="M249 0q-10 0 -10 10v38h-1q-9 -26 -32.5 -41.5t-56.5 -15.5q-21 0 -41.5 7t-37 23.5t-26.5 44.5t-10 69q0 43 12 72t32 47t46.5 26t56.5 8h52q6 0 6 6v28q0 40 -14 58.5t-52 18.5q-24 0 -42.5 -7.5t-37.5 -20.5q-10 -7 -15 4l-26 59q-4 7 3 14q24 19 57 31t74 12
q82 0 116.5 -38.5t34.5 -126.5v-316q0 -10 -10 -10h-78zM179 75q27 0 43.5 19t16.5 49v57q0 6 -6 6h-35q-37 0 -52 -18.5t-15 -48.5q0 -64 48 -64zM172 555q-11 0 -18 10l-90 125q-3 4 -1.5 7t6.5 3h81q10 0 16 -10l69 -125q5 -10 -6 -10h-57z" />
    <glyph glyph-name="aacute" unicode="&#xe1;" horiz-adv-x="383" 
d="M249 0q-10 0 -10 10v38h-1q-9 -26 -32.5 -41.5t-56.5 -15.5q-21 0 -41.5 7t-37 23.5t-26.5 44.5t-10 69q0 43 12 72t32 47t46.5 26t56.5 8h52q6 0 6 6v28q0 40 -14 58.5t-52 18.5q-24 0 -42.5 -7.5t-37.5 -20.5q-10 -7 -15 4l-26 59q-4 7 3 14q24 19 57 31t74 12
q82 0 116.5 -38.5t34.5 -126.5v-316q0 -10 -10 -10h-78zM179 75q27 0 43.5 19t16.5 49v57q0 6 -6 6h-35q-37 0 -52 -18.5t-15 -48.5q0 -64 48 -64zM158 555q-11 0 -6 10l69 125q6 10 16 10h81q5 0 6.5 -3t-1.5 -7l-90 -125q-8 -10 -18 -10h-57z" />
    <glyph glyph-name="acircumflex" unicode="&#xe2;" horiz-adv-x="383" 
d="M249 0q-10 0 -10 10v38h-1q-9 -26 -32.5 -41.5t-56.5 -15.5q-21 0 -41.5 7t-37 23.5t-26.5 44.5t-10 69q0 43 12 72t32 47t46.5 26t56.5 8h52q6 0 6 6v28q0 40 -14 58.5t-52 18.5q-24 0 -42.5 -7.5t-37.5 -20.5q-10 -7 -15 4l-26 59q-4 7 3 14q24 19 57 31t74 12
q82 0 116.5 -38.5t34.5 -126.5v-316q0 -10 -10 -10h-78zM179 75q27 0 43.5 19t16.5 49v57q0 6 -6 6h-35q-37 0 -52 -18.5t-15 -48.5q0 -64 48 -64zM260 555q-10 0 -19 10l-48 60h-2l-47 -60q-9 -10 -19 -10h-60q-5 0 -6 3t2 7l88 125q7 10 17 10h52q11 0 18 -10l88 -125
q3 -4 2 -7t-6 -3h-60z" />
    <glyph glyph-name="atilde" unicode="&#xe3;" horiz-adv-x="383" 
d="M249 0q-10 0 -10 10v38h-1q-9 -26 -32.5 -41.5t-56.5 -15.5q-21 0 -41.5 7t-37 23.5t-26.5 44.5t-10 69q0 43 12 72t32 47t46.5 26t56.5 8h52q6 0 6 6v28q0 40 -14 58.5t-52 18.5q-24 0 -42.5 -7.5t-37.5 -20.5q-10 -7 -15 4l-26 59q-4 7 3 14q24 19 57 31t74 12
q82 0 116.5 -38.5t34.5 -126.5v-316q0 -10 -10 -10h-78zM179 75q27 0 43.5 19t16.5 49v57q0 6 -6 6h-35q-37 0 -52 -18.5t-15 -48.5q0 -64 48 -64zM237 567q-17 0 -28 5t-24 13q-12 8 -19.5 12t-18.5 4q-16 0 -26.5 -7.5t-21.5 -18.5q-4 -4 -8 -2.5t-4 6.5v61q0 9 10 19
t22 17t29 7t28 -5t23 -13q13 -8 20.5 -12t18.5 -4q16 0 26.5 7t21.5 19q4 4 8 2.5t4 -6.5v-61q0 -5 -2 -9t-8 -10q-10 -10 -22 -17t-29 -7z" />
    <glyph glyph-name="adieresis" unicode="&#xe4;" horiz-adv-x="383" 
d="M249 0q-10 0 -10 10v38h-1q-9 -26 -32.5 -41.5t-56.5 -15.5q-21 0 -41.5 7t-37 23.5t-26.5 44.5t-10 69q0 43 12 72t32 47t46.5 26t56.5 8h52q6 0 6 6v28q0 40 -14 58.5t-52 18.5q-24 0 -42.5 -7.5t-37.5 -20.5q-10 -7 -15 4l-26 59q-4 7 3 14q24 19 57 31t74 12
q82 0 116.5 -38.5t34.5 -126.5v-316q0 -10 -10 -10h-78zM179 75q27 0 43.5 19t16.5 49v57q0 6 -6 6h-35q-37 0 -52 -18.5t-15 -48.5q0 -64 48 -64zM236 574q-10 0 -10 10v86q0 10 10 10h65q10 0 10 -10v-86q0 -10 -10 -10h-65zM84 574q-10 0 -10 10v86q0 10 10 10h65
q10 0 10 -10v-86q0 -10 -10 -10h-65z" />
    <glyph glyph-name="aring" unicode="&#xe5;" horiz-adv-x="383" 
d="M249 0q-10 0 -10 10v38h-1q-9 -26 -32.5 -41.5t-56.5 -15.5q-21 0 -41.5 7t-37 23.5t-26.5 44.5t-10 69q0 43 12 72t32 47t46.5 26t56.5 8h52q6 0 6 6v28q0 40 -14 58.5t-52 18.5q-24 0 -42.5 -7.5t-37.5 -20.5q-10 -7 -15 4l-26 59q-4 7 3 14q24 19 57 31t74 12
q82 0 116.5 -38.5t34.5 -126.5v-316q0 -10 -10 -10h-78zM179 75q27 0 43.5 19t16.5 49v57q0 6 -6 6h-35q-37 0 -52 -18.5t-15 -48.5q0 -64 48 -64zM192 539q-38 0 -64 26t-26 64q0 39 26 65t64 26q39 0 65 -26t26 -65q0 -38 -26 -64t-65 -26zM192 582q20 0 33 13.5t13 33.5
q0 21 -13 34.5t-33 13.5t-32.5 -13.5t-12.5 -34.5q0 -20 12.5 -33.5t32.5 -13.5z" />
    <glyph glyph-name="ae" unicode="&#xe6;" horiz-adv-x="578" 
d="M388 -9q-41 0 -72 13t-51 45h-1q-25 -34 -52 -46t-63 -12q-20 0 -40.5 7t-37 23.5t-27 44.5t-10.5 69q0 43 12 72t32 47t46.5 26t56.5 8h52q6 0 6 6v28q0 40 -14 58.5t-52 18.5q-24 0 -42.5 -7.5t-37.5 -20.5q-10 -7 -15 4l-26 59q-4 7 3 14q24 19 57 31t74 12
q71 0 106 -33h1q17 17 42 25t54 8q57 0 93 -25t51 -71q3 -9 5 -20t3.5 -30.5t2 -50t0.5 -78.5q0 -10 -10 -10h-191q-6 0 -6 -6q0 -23 0.5 -37t1 -23t1.5 -14t2 -9q11 -33 47 -33q40 0 53 44q3 9 12 7l77 -15q9 -1 7 -12q-11 -54 -50.5 -85.5t-99.5 -31.5zM436 288q6 0 6 6
q0 37 -2 51.5t-5 22.5q-5 14 -16 23t-30 9q-18 0 -29.5 -9t-16.5 -23q-3 -8 -4.5 -22.5t-1.5 -51.5q0 -6 6 -6h93zM179 75q27 0 43.5 19t16.5 49v57q0 6 -6 6h-35q-37 0 -52 -18.5t-15 -48.5q0 -64 48 -64z" />
    <glyph glyph-name="ccedilla" unicode="&#xe7;" horiz-adv-x="357" 
d="M147 -5q-74 17 -98 91q-3 10 -5.5 20.5t-4 26.5t-2 41.5t-0.5 66.5t0.5 66.5t2 41.5t4 26t5.5 21q15 46 50 70.5t89 24.5q63 0 103 -35.5t44 -95.5q0 -10 -8 -11l-76 -15q-11 -2 -12 9q-4 29 -17 41.5t-34 12.5q-34 0 -44 -31q-2 -5 -2.5 -11t-1.5 -19t-1 -35.5v-59.5
v-60t1 -35t1.5 -19t2.5 -11q10 -31 44 -31q21 0 34 12.5t17 41.5q1 10 12 9l76 -15q8 -1 8 -11q-3 -51 -32 -84t-77 -43l-49 -140q-4 -10 -16 -10h-66q-10 0 -7 10z" />
    <glyph glyph-name="egrave" unicode="&#xe8;" horiz-adv-x="380" 
d="M190 -9q-57 0 -92 25t-50 71q-3 9 -5 19.5t-3.5 27.5t-2 42.5t-0.5 64.5t0.5 64.5t2 42.5t3.5 27.5t5 19.5q15 46 50.5 71t92.5 25t93 -25t51 -71q3 -9 5 -20t3.5 -30.5t2 -50t0.5 -78.5q0 -10 -10 -10h-191q-6 0 -6 -6q0 -23 0.5 -37t1 -23t1.5 -14t2 -9q11 -32 47 -32
q40 0 53 43q3 9 12 7l77 -15q9 -1 7 -12q-10 -54 -50 -85.5t-100 -31.5zM191 400q-18 0 -29.5 -9t-16.5 -23q-3 -8 -4.5 -22.5t-1.5 -51.5q0 -6 6 -6h93q6 0 6 6q0 37 -1.5 51.5t-4.5 22.5q-5 14 -16.5 23t-30.5 9zM172 555q-11 0 -18 10l-90 125q-3 4 -1.5 7t6.5 3h81
q10 0 16 -10l69 -125q5 -10 -6 -10h-57z" />
    <glyph glyph-name="eacute" unicode="&#xe9;" horiz-adv-x="380" 
d="M149 555q-11 0 -6 10l69 125q6 10 16 10h81q5 0 6.5 -3t-1.5 -7l-90 -125q-8 -10 -18 -10h-57zM190 -9q-57 0 -92 25t-50 71q-3 9 -5 19.5t-3.5 27.5t-2 42.5t-0.5 64.5t0.5 64.5t2 42.5t3.5 27.5t5 19.5q15 46 50.5 71t92.5 25t93 -25t51 -71q3 -9 5 -20t3.5 -30.5
t2 -50t0.5 -78.5q0 -10 -10 -10h-191q-6 0 -6 -6q0 -23 0.5 -37t1 -23t1.5 -14t2 -9q11 -32 47 -32q40 0 53 43q3 9 12 7l77 -15q9 -1 7 -12q-10 -54 -50 -85.5t-100 -31.5zM191 400q-18 0 -29.5 -9t-16.5 -23q-3 -8 -4.5 -22.5t-1.5 -51.5q0 -6 6 -6h93q6 0 6 6
q0 37 -1.5 51.5t-4.5 22.5q-5 14 -16.5 23t-30.5 9z" />
    <glyph glyph-name="ecircumflex" unicode="&#xea;" horiz-adv-x="380" 
d="M259 555q-10 0 -19 10l-48 60h-2l-47 -60q-9 -10 -19 -10h-60q-5 0 -6 3t2 7l88 125q7 10 17 10h52q11 0 18 -10l88 -125q3 -4 2 -7t-6 -3h-60zM190 -9q-57 0 -92 25t-50 71q-3 9 -5 19.5t-3.5 27.5t-2 42.5t-0.5 64.5t0.5 64.5t2 42.5t3.5 27.5t5 19.5q15 46 50.5 71
t92.5 25t93 -25t51 -71q3 -9 5 -20t3.5 -30.5t2 -50t0.5 -78.5q0 -10 -10 -10h-191q-6 0 -6 -6q0 -23 0.5 -37t1 -23t1.5 -14t2 -9q11 -32 47 -32q40 0 53 43q3 9 12 7l77 -15q9 -1 7 -12q-10 -54 -50 -85.5t-100 -31.5zM191 400q-18 0 -29.5 -9t-16.5 -23q-3 -8 -4.5 -22.5
t-1.5 -51.5q0 -6 6 -6h93q6 0 6 6q0 37 -1.5 51.5t-4.5 22.5q-5 14 -16.5 23t-30.5 9z" />
    <glyph glyph-name="edieresis" unicode="&#xeb;" horiz-adv-x="380" 
d="M235 574q-10 0 -10 10v86q0 10 10 10h65q10 0 10 -10v-86q0 -10 -10 -10h-65zM83 574q-10 0 -10 10v86q0 10 10 10h65q10 0 10 -10v-86q0 -10 -10 -10h-65zM190 -9q-57 0 -92 25t-50 71q-3 9 -5 19.5t-3.5 27.5t-2 42.5t-0.5 64.5t0.5 64.5t2 42.5t3.5 27.5t5 19.5
q15 46 50.5 71t92.5 25t93 -25t51 -71q3 -9 5 -20t3.5 -30.5t2 -50t0.5 -78.5q0 -10 -10 -10h-191q-6 0 -6 -6q0 -23 0.5 -37t1 -23t1.5 -14t2 -9q11 -32 47 -32q40 0 53 43q3 9 12 7l77 -15q9 -1 7 -12q-10 -54 -50 -85.5t-100 -31.5zM191 400q-18 0 -29.5 -9t-16.5 -23
q-3 -8 -4.5 -22.5t-1.5 -51.5q0 -6 6 -6h93q6 0 6 6q0 37 -1.5 51.5t-4.5 22.5q-5 14 -16.5 23t-30.5 9z" />
    <glyph glyph-name="igrave" unicode="&#xec;" horiz-adv-x="204" 
d="M61 0q-10 0 -10 10v462q0 10 10 10h82q10 0 10 -10v-462q0 -10 -10 -10h-82zM79 555q-11 0 -18 10l-90 125q-3 4 -1.5 7t6.5 3h81q10 0 16 -10l69 -125q5 -10 -6 -10h-57z" />
    <glyph glyph-name="iacute" unicode="&#xed;" horiz-adv-x="204" 
d="M75 555q-11 0 -6 10l69 125q6 10 16 10h81q5 0 6.5 -3t-1.5 -7l-90 -125q-8 -10 -18 -10h-57zM61 0q-10 0 -10 10v462q0 10 10 10h82q10 0 10 -10v-462q0 -10 -10 -10h-82z" />
    <glyph glyph-name="icircumflex" unicode="&#xee;" horiz-adv-x="204" 
d="M171 555q-10 0 -19 10l-48 60h-2l-47 -60q-9 -10 -19 -10h-60q-5 0 -6 3t2 7l88 125q7 10 17 10h52q11 0 18 -10l88 -125q3 -4 2 -7t-6 -3h-60zM61 0q-10 0 -10 10v462q0 10 10 10h82q10 0 10 -10v-462q0 -10 -10 -10h-82z" />
    <glyph glyph-name="idieresis" unicode="&#xef;" horiz-adv-x="204" 
d="M147 574q-10 0 -10 10v86q0 10 10 10h65q10 0 10 -10v-86q0 -10 -10 -10h-65zM-5 574q-10 0 -10 10v86q0 10 10 10h65q10 0 10 -10v-86q0 -10 -10 -10h-65zM61 0q-10 0 -10 10v462q0 10 10 10h82q10 0 10 -10v-462q0 -10 -10 -10h-82z" />
    <glyph glyph-name="eth" unicode="&#xf0;" horiz-adv-x="385" 
d="M260 558l22 -42q20 -38 33 -69t20.5 -62.5t10 -68t2.5 -85.5q0 -34 -0.5 -56.5t-2 -38.5t-3.5 -26.5t-5 -19.5q-15 -47 -52.5 -73t-92.5 -26t-92 26t-52 73q-3 9 -5 19.5t-3.5 25.5t-2 36.5t-0.5 53.5q0 33 1 56t2.5 39.5t4 28t5.5 20.5q14 43 44 67.5t74 24.5
q15 0 28 -3t19 -8h1l-43 80l-67 -21q-8 -3 -11 6l-16 48q-3 9 7 12l55 17l-41 78q-5 10 6 10h81q9 0 15 -10l26 -50l62 20q8 3 11 -6l16 -48q3 -9 -7 -12zM192 85q20 0 31.5 9t17.5 26q1 5 2 11t2 16.5t1 29v48.5v51t-1 30t-2 17t-2 11q-6 16 -17.5 25.5t-31.5 9.5
q-19 0 -31 -9.5t-17 -25.5q-2 -5 -2.5 -11t-1.5 -17t-1 -30v-51v-48.5t1 -29t1.5 -16.5t2.5 -11q11 -35 48 -35z" />
    <glyph glyph-name="ntilde" unicode="&#xf1;" horiz-adv-x="405" 
d="M266 0q-10 0 -10 10v317q0 70 -52 70q-51 0 -51 -70v-317q0 -10 -10 -10h-82q-10 0 -10 10v462q0 10 10 10h82q10 0 10 -10v-38h1q13 25 35 41t57 16q54 0 83 -35.5t29 -114.5v-331q0 -10 -10 -10h-82zM248 567q-17 0 -28 5t-24 13q-12 8 -19.5 12t-18.5 4
q-16 0 -26.5 -7.5t-21.5 -18.5q-4 -4 -8 -2.5t-4 6.5v61q0 9 10 19t22 17t29 7t28 -5t23 -13q13 -8 20.5 -12t18.5 -4q16 0 26.5 7t21.5 19q4 4 8 2.5t4 -6.5v-61q0 -5 -2 -9t-8 -10q-10 -10 -22 -17t-29 -7z" />
    <glyph glyph-name="ograve" unicode="&#xf2;" horiz-adv-x="385" 
d="M348 241q0 -38 -0.5 -62.5t-2 -41t-3.5 -27.5t-5 -20q-15 -47 -52 -73t-93 -26q-55 0 -92 26t-52 73q-3 9 -5 20t-3.5 27.5t-2 41t-0.5 62.5q0 37 0.5 62t2 41.5t3.5 27.5t5 20q15 47 52 73t92 26q56 0 93 -26t52 -73q3 -9 5 -20t3.5 -27.5t2 -41.5t0.5 -62zM246 241
v58.5t-1 34t-2 18.5t-2 11q-11 34 -49 34q-37 0 -48 -34q-2 -5 -2.5 -11t-1.5 -18.5t-1 -34v-58.5v-58.5t1 -34t1.5 -18.5t2.5 -11q11 -34 48 -34q38 0 49 34q1 5 2 11t2 18.5t1 34v58.5zM168 555q-11 0 -18 10l-90 125q-3 4 -1.5 7t6.5 3h81q10 0 16 -10l69 -125
q5 -10 -6 -10h-57z" />
    <glyph glyph-name="oacute" unicode="&#xf3;" horiz-adv-x="385" 
d="M156 555q-11 0 -6 10l69 125q6 10 16 10h81q5 0 6.5 -3t-1.5 -7l-90 -125q-8 -10 -18 -10h-57zM348 241q0 -38 -0.5 -62.5t-2 -41t-3.5 -27.5t-5 -20q-15 -47 -52 -73t-93 -26q-55 0 -92 26t-52 73q-3 9 -5 20t-3.5 27.5t-2 41t-0.5 62.5q0 37 0.5 62t2 41.5t3.5 27.5
t5 20q15 47 52 73t92 26q56 0 93 -26t52 -73q3 -9 5 -20t3.5 -27.5t2 -41.5t0.5 -62zM246 241v58.5t-1 34t-2 18.5t-2 11q-11 34 -49 34q-37 0 -48 -34q-2 -5 -2.5 -11t-1.5 -18.5t-1 -34v-58.5v-58.5t1 -34t1.5 -18.5t2.5 -11q11 -34 48 -34q38 0 49 34q1 5 2 11t2 18.5
t1 34v58.5z" />
    <glyph glyph-name="ocircumflex" unicode="&#xf4;" horiz-adv-x="385" 
d="M261 555q-10 0 -19 10l-48 60h-2l-47 -60q-9 -10 -19 -10h-60q-5 0 -6 3t2 7l88 125q7 10 17 10h52q11 0 18 -10l88 -125q3 -4 2 -7t-6 -3h-60zM348 241q0 -38 -0.5 -62.5t-2 -41t-3.5 -27.5t-5 -20q-15 -47 -52 -73t-93 -26q-55 0 -92 26t-52 73q-3 9 -5 20t-3.5 27.5
t-2 41t-0.5 62.5q0 37 0.5 62t2 41.5t3.5 27.5t5 20q15 47 52 73t92 26q56 0 93 -26t52 -73q3 -9 5 -20t3.5 -27.5t2 -41.5t0.5 -62zM246 241v58.5t-1 34t-2 18.5t-2 11q-11 34 -49 34q-37 0 -48 -34q-2 -5 -2.5 -11t-1.5 -18.5t-1 -34v-58.5v-58.5t1 -34t1.5 -18.5t2.5 -11
q11 -34 48 -34q38 0 49 34q1 5 2 11t2 18.5t1 34v58.5z" />
    <glyph glyph-name="otilde" unicode="&#xf5;" horiz-adv-x="385" 
d="M348 241q0 -38 -0.5 -62.5t-2 -41t-3.5 -27.5t-5 -20q-15 -47 -52 -73t-93 -26q-55 0 -92 26t-52 73q-3 9 -5 20t-3.5 27.5t-2 41t-0.5 62.5q0 37 0.5 62t2 41.5t3.5 27.5t5 20q15 47 52 73t92 26q56 0 93 -26t52 -73q3 -9 5 -20t3.5 -27.5t2 -41.5t0.5 -62zM246 241
v58.5t-1 34t-2 18.5t-2 11q-11 34 -49 34q-37 0 -48 -34q-2 -5 -2.5 -11t-1.5 -18.5t-1 -34v-58.5v-58.5t1 -34t1.5 -18.5t2.5 -11q11 -34 48 -34q38 0 49 34q1 5 2 11t2 18.5t1 34v58.5zM238 567q-17 0 -28 5t-24 13q-12 8 -19.5 12t-18.5 4q-16 0 -26.5 -7.5t-21.5 -18.5
q-4 -4 -8 -2.5t-4 6.5v61q0 9 10 19t22 17t29 7t28 -5t23 -13q13 -8 20.5 -12t18.5 -4q16 0 26.5 7t21.5 19q4 4 8 2.5t4 -6.5v-61q0 -5 -2 -9t-8 -10q-10 -10 -22 -17t-29 -7z" />
    <glyph glyph-name="odieresis" unicode="&#xf6;" horiz-adv-x="385" 
d="M237 574q-10 0 -10 10v86q0 10 10 10h65q10 0 10 -10v-86q0 -10 -10 -10h-65zM85 574q-10 0 -10 10v86q0 10 10 10h65q10 0 10 -10v-86q0 -10 -10 -10h-65zM348 241q0 -38 -0.5 -62.5t-2 -41t-3.5 -27.5t-5 -20q-15 -47 -52 -73t-93 -26q-55 0 -92 26t-52 73q-3 9 -5 20
t-3.5 27.5t-2 41t-0.5 62.5q0 37 0.5 62t2 41.5t3.5 27.5t5 20q15 47 52 73t92 26q56 0 93 -26t52 -73q3 -9 5 -20t3.5 -27.5t2 -41.5t0.5 -62zM246 241v58.5t-1 34t-2 18.5t-2 11q-11 34 -49 34q-37 0 -48 -34q-2 -5 -2.5 -11t-1.5 -18.5t-1 -34v-58.5v-58.5t1 -34
t1.5 -18.5t2.5 -11q11 -34 48 -34q38 0 49 34q1 5 2 11t2 18.5t1 34v58.5z" />
    <glyph glyph-name="divide" unicode="&#xf7;" 
d="M199 382q-27 0 -44.5 17t-17.5 45q0 27 17.5 44t44.5 17t44.5 -17t17.5 -44q0 -28 -17.5 -45t-44.5 -17zM46 231q-10 0 -10 10v70q0 10 10 10h306q10 0 10 -10v-70q0 -10 -10 -10h-306zM199 47q-27 0 -44.5 17t-17.5 44q0 28 17.5 45t44.5 17t44.5 -17t17.5 -45
q0 -27 -17.5 -44t-44.5 -17z" />
    <glyph glyph-name="oslash" unicode="&#xf8;" horiz-adv-x="385" 
d="M348 241q0 -38 -0.5 -62.5t-2 -41t-3.5 -27.5t-5 -20q-15 -47 -52 -73t-93 -26q-55 0 -92 26l-19 -37q-5 -10 -13 -10h-22q-5 0 -7 2.5t0 7.5l33 64q-17 20 -24 46q-3 9 -5 20t-3.5 27.5t-2 41t-0.5 62.5q0 37 0.5 62t2 41.5t3.5 27.5t5 20q15 47 52 73t92 26t93 -26
l19 37q5 10 13 10h22q5 0 7 -2.5t0 -7.5l-33 -65q15 -20 24 -45q3 -9 5 -20t3.5 -27.5t2 -41.5t0.5 -62zM138 241q0 -25 -0.5 -42t0.5 -30l99 206q-14 23 -45 23q-38 0 -49 -34q-2 -5 -2.5 -11t-1.5 -19t-1 -34.5v-58.5zM247 310l-99 -204q14 -22 44 -22q39 0 50 34
q1 5 2 11t2 19t1 34.5v58.5v69z" />
    <glyph glyph-name="ugrave" unicode="&#xf9;" horiz-adv-x="403" 
d="M260 0q-10 0 -10 10v38h-1q-13 -25 -34.5 -41t-56.5 -16q-54 0 -82.5 35t-28.5 115v331q0 10 10 10h82q10 0 10 -10v-317q0 -70 50 -70q51 0 51 70v317q0 10 10 10h82q10 0 10 -10v-462q0 -10 -10 -10h-82zM177 555q-11 0 -18 10l-90 125q-3 4 -1.5 7t6.5 3h81
q10 0 16 -10l69 -125q5 -10 -6 -10h-57z" />
    <glyph glyph-name="uacute" unicode="&#xfa;" horiz-adv-x="403" 
d="M169 555q-11 0 -6 10l69 125q6 10 16 10h81q5 0 6.5 -3t-1.5 -7l-90 -125q-8 -10 -18 -10h-57zM260 0q-10 0 -10 10v38h-1q-13 -25 -34.5 -41t-56.5 -16q-54 0 -82.5 35t-28.5 115v331q0 10 10 10h82q10 0 10 -10v-317q0 -70 50 -70q51 0 51 70v317q0 10 10 10h82
q10 0 10 -10v-462q0 -10 -10 -10h-82z" />
    <glyph glyph-name="ucircumflex" unicode="&#xfb;" horiz-adv-x="403" 
d="M270 555q-10 0 -19 10l-48 60h-2l-47 -60q-9 -10 -19 -10h-60q-5 0 -6 3t2 7l88 125q7 10 17 10h52q11 0 18 -10l88 -125q3 -4 2 -7t-6 -3h-60zM260 0q-10 0 -10 10v38h-1q-13 -25 -34.5 -41t-56.5 -16q-54 0 -82.5 35t-28.5 115v331q0 10 10 10h82q10 0 10 -10v-317
q0 -70 50 -70q51 0 51 70v317q0 10 10 10h82q10 0 10 -10v-462q0 -10 -10 -10h-82z" />
    <glyph glyph-name="udieresis" unicode="&#xfc;" horiz-adv-x="403" 
d="M246 574q-10 0 -10 10v86q0 10 10 10h65q10 0 10 -10v-86q0 -10 -10 -10h-65zM94 574q-10 0 -10 10v86q0 10 10 10h65q10 0 10 -10v-86q0 -10 -10 -10h-65zM260 0q-10 0 -10 10v38h-1q-13 -25 -34.5 -41t-56.5 -16q-54 0 -82.5 35t-28.5 115v331q0 10 10 10h82
q10 0 10 -10v-317q0 -70 50 -70q51 0 51 70v317q0 10 10 10h82q10 0 10 -10v-462q0 -10 -10 -10h-82z" />
    <glyph glyph-name="yacute" unicode="&#xfd;" horiz-adv-x="370" 
d="M62 -180q-10 0 -10 10v74q0 10 10 10l14 1q22 2 33.5 13.5t19.5 41.5l11 48l-120 454q-3 10 7 10h84q9 0 11 -10l64 -298h1l64 298q2 10 11 10h81q10 0 7 -10l-127 -500q-12 -47 -25 -77t-29.5 -46.5t-39 -22.5t-52.5 -6h-15zM155 555q-11 0 -6 10l69 125q6 10 16 10h81
q5 0 6.5 -3t-1.5 -7l-90 -125q-8 -10 -18 -10h-57z" />
    <glyph glyph-name="thorn" unicode="&#xfe;" horiz-adv-x="401" 
d="M61 -180q-10 0 -10 10v840q0 10 10 10h82q10 0 10 -10v-237h1q10 25 31 41.5t59 16.5q80 0 105 -80q3 -10 5.5 -22t4 -31t2.5 -47t1 -70q0 -43 -1 -71t-2.5 -46.5t-4 -30.5t-5.5 -22q-25 -80 -105 -80q-38 0 -59 16t-31 42h-1v-219q0 -10 -10 -10h-82zM260 241v58.5
t-1 34t-2 18.5t-2 11q-11 34 -49 34q-37 0 -48 -34q-2 -5 -2.5 -11t-1.5 -18.5t-1 -34v-58.5v-58.5t1 -34t1.5 -18.5t2.5 -11q11 -34 48 -34q38 0 49 34q1 5 2 11t2 18.5t1 34v58.5z" />
    <glyph glyph-name="ydieresis" unicode="&#xff;" horiz-adv-x="370" 
d="M62 -180q-10 0 -10 10v74q0 10 10 10l14 1q22 2 33.5 13.5t19.5 41.5l11 48l-120 454q-3 10 7 10h84q9 0 11 -10l64 -298h1l64 298q2 10 11 10h81q10 0 7 -10l-127 -500q-12 -47 -25 -77t-29.5 -46.5t-39 -22.5t-52.5 -6h-15zM230 574q-10 0 -10 10v86q0 10 10 10h65
q10 0 10 -10v-86q0 -10 -10 -10h-65zM78 574q-10 0 -10 10v86q0 10 10 10h65q10 0 10 -10v-86q0 -10 -10 -10h-65z" />
    <glyph glyph-name="Amacron" unicode="&#x100;" horiz-adv-x="421" 
d="M159 670q3 10 11 10h84q9 0 11 -10l144 -660q2 -10 -8 -10h-85q-9 0 -11 10l-27 137h-135l-27 -137q-2 -10 -11 -10h-85q-10 0 -8 10zM261 237l-48 253h-3l-50 -253h101zM107 780q-10 0 -10 10v60q0 10 10 10h205q10 0 10 -10v-60q0 -10 -10 -10h-205z" />
    <glyph glyph-name="amacron" unicode="&#x101;" horiz-adv-x="383" 
d="M249 0q-10 0 -10 10v38h-1q-9 -26 -32.5 -41.5t-56.5 -15.5q-21 0 -41.5 7t-37 23.5t-26.5 44.5t-10 69q0 43 12 72t32 47t46.5 26t56.5 8h52q6 0 6 6v28q0 40 -14 58.5t-52 18.5q-24 0 -42.5 -7.5t-37.5 -20.5q-10 -7 -15 4l-26 59q-4 7 3 14q24 19 57 31t74 12
q82 0 116.5 -38.5t34.5 -126.5v-316q0 -10 -10 -10h-78zM179 75q27 0 43.5 19t16.5 49v57q0 6 -6 6h-35q-37 0 -52 -18.5t-15 -48.5q0 -64 48 -64zM90 588q-10 0 -10 10v60q0 10 10 10h205q10 0 10 -10v-60q0 -10 -10 -10h-205z" />
    <glyph glyph-name="Abreve" unicode="&#x102;" horiz-adv-x="421" 
d="M159 670q3 10 11 10h84q9 0 11 -10l144 -660q2 -10 -8 -10h-85q-9 0 -11 10l-27 137h-135l-27 -137q-2 -10 -11 -10h-85q-10 0 -8 10zM261 237l-48 253h-3l-50 -253h101zM209 742q-30 0 -52 9.5t-37.5 26t-24 38t-10.5 45.5q0 10 10 10h45q7 0 10 -10q8 -21 22 -34.5
t37 -13.5t37.5 13.5t22.5 34.5q3 10 10 10h45q10 0 10 -10q-2 -24 -10.5 -45.5t-24 -38t-38 -26t-52.5 -9.5z" />
    <glyph glyph-name="abreve" unicode="&#x103;" horiz-adv-x="383" 
d="M249 0q-10 0 -10 10v38h-1q-9 -26 -32.5 -41.5t-56.5 -15.5q-21 0 -41.5 7t-37 23.5t-26.5 44.5t-10 69q0 43 12 72t32 47t46.5 26t56.5 8h52q6 0 6 6v28q0 40 -14 58.5t-52 18.5q-24 0 -42.5 -7.5t-37.5 -20.5q-10 -7 -15 4l-26 59q-4 7 3 14q24 19 57 31t74 12
q82 0 116.5 -38.5t34.5 -126.5v-316q0 -10 -10 -10h-78zM179 75q27 0 43.5 19t16.5 49v57q0 6 -6 6h-35q-37 0 -52 -18.5t-15 -48.5q0 -64 48 -64zM192 556q-59 0 -89.5 35t-34.5 84q0 10 10 10h45q7 0 10 -10q8 -22 22 -35.5t37 -13.5t37.5 13.5t22.5 35.5q3 10 10 10h45
q10 0 10 -10q-4 -49 -34.5 -84t-90.5 -35z" />
    <glyph glyph-name="Aogonek" unicode="&#x104;" horiz-adv-x="421" 
d="M341 -190q-41 0 -65 21t-24 62q0 31 16 58t42 50q-4 2 -5 9l-26 137h-137l-26 -137q-2 -10 -11 -10h-85q-10 0 -8 10l147 660q3 10 11 10h84q9 0 11 -10l144 -660q2 -6 -5 -10q-29 -20 -49 -45t-20 -46q0 -12 6 -18t14 -6q10 0 18 5q9 6 13 -4l20 -46q3 -8 -5 -13
q-10 -7 -26.5 -12t-33.5 -5zM213 490h-3l-50 -253h101z" />
    <glyph glyph-name="aogonek" unicode="&#x105;" horiz-adv-x="383" 
d="M268 -190q-41 0 -65.5 21t-24.5 62q0 31 16.5 58.5t45.5 53.5q-1 1 -1 5v38h-1q-9 -26 -32.5 -41.5t-56.5 -15.5q-21 0 -41.5 7t-37 23.5t-26.5 44.5t-10 69q0 43 12 72t32 47t46.5 26t56.5 8h52q6 0 6 6v28q0 40 -14 58.5t-52 18.5q-24 0 -42.5 -7.5t-37.5 -20.5
q-10 -7 -15 4l-26 59q-4 7 3 14q24 19 57 31t74 12q82 0 116.5 -38.5t34.5 -126.5v-316q0 -7 -7 -11q-30 -21 -49 -45t-19 -45q0 -24 19 -24q10 0 18 5q9 6 13 -4l21 -46q3 -8 -5 -13q-10 -7 -27 -12t-33 -5zM179 75q27 0 43.5 19t16.5 49v57q0 6 -6 6h-35q-37 0 -52 -18.5
t-15 -48.5q0 -64 48 -64z" />
    <glyph glyph-name="Cacute" unicode="&#x106;" horiz-adv-x="387" 
d="M54 95q-3 10 -5.5 23.5t-4 39t-2.5 68.5t-1 114t1 114t2.5 68.5t4 38.5t5.5 24q16 49 53.5 76.5t100.5 27.5q73 0 116 -39t48 -124q2 -11 -7 -12l-81 -14q-11 -2 -11 9q-2 44 -17.5 63.5t-44.5 19.5q-23 0 -35.5 -9.5t-18.5 -28.5q-2 -6 -3.5 -14.5t-2 -29.5t-1 -61
t-0.5 -109t0.5 -109t1 -61t2 -29.5t3.5 -14.5q6 -19 18.5 -28.5t35.5 -9.5q29 0 44.5 19.5t17.5 63.5q0 11 11 9l81 -14q9 -1 7 -12q-5 -85 -48 -124t-116 -39q-63 0 -100.5 27.5t-53.5 76.5zM169 761q-5 0 -7 3t1 7l77 107q4 5 7 7.5t9 2.5h81q5 0 6.5 -3t-1.5 -7l-98 -107
q-10 -10 -20 -10h-55z" />
    <glyph glyph-name="cacute" unicode="&#x107;" horiz-adv-x="357" 
d="M150 555q-11 0 -6 10l69 125q6 10 16 10h81q5 0 6.5 -3t-1.5 -7l-90 -125q-8 -10 -18 -10h-57zM188 -9q-54 0 -89 24.5t-50 70.5q-3 10 -5.5 20.5t-4 26.5t-2 41.5t-0.5 66.5t0.5 66.5t2 41.5t4 26t5.5 21q15 46 50 70.5t89 24.5q63 0 103 -35.5t44 -95.5q0 -10 -8 -11
l-76 -15q-11 -2 -12 9q-4 29 -17 41.5t-34 12.5q-34 0 -44 -31q-2 -5 -2.5 -11t-1.5 -19t-1 -35.5v-59.5v-60t1 -35t1.5 -19t2.5 -11q10 -31 44 -31q21 0 34 12.5t17 41.5q1 10 12 9l76 -15q8 -1 8 -11q-4 -60 -44 -95.5t-103 -35.5z" />
    <glyph glyph-name="Ccircumflex" unicode="&#x108;" horiz-adv-x="387" 
d="M54 95q-3 10 -5.5 23.5t-4 39t-2.5 68.5t-1 114t1 114t2.5 68.5t4 38.5t5.5 24q16 49 53.5 76.5t100.5 27.5q73 0 116 -39t48 -124q2 -11 -7 -12l-81 -14q-11 -2 -11 9q-2 44 -17.5 63.5t-44.5 19.5q-23 0 -35.5 -9.5t-18.5 -28.5q-2 -6 -3.5 -14.5t-2 -29.5t-1 -61
t-0.5 -109t0.5 -109t1 -61t2 -29.5t3.5 -14.5q6 -19 18.5 -28.5t35.5 -9.5q29 0 44.5 19.5t17.5 63.5q0 11 11 9l81 -14q9 -1 7 -12q-5 -85 -48 -124t-116 -39q-63 0 -100.5 27.5t-53.5 76.5zM275 750q-10 0 -19 10l-48 60h-2l-47 -60q-9 -10 -19 -10h-60q-5 0 -6 3t2 7
l88 125q7 10 17 10h52q11 0 18 -10l88 -125q3 -4 2 -7t-6 -3h-60z" />
    <glyph glyph-name="ccircumflex" unicode="&#x109;" horiz-adv-x="357" 
d="M257 555q-10 0 -19 10l-48 60h-2l-47 -60q-9 -10 -19 -10h-60q-5 0 -6 3t2 7l88 125q7 10 17 10h52q11 0 18 -10l88 -125q3 -4 2 -7t-6 -3h-60zM188 -9q-54 0 -89 24.5t-50 70.5q-3 10 -5.5 20.5t-4 26.5t-2 41.5t-0.5 66.5t0.5 66.5t2 41.5t4 26t5.5 21q15 46 50 70.5
t89 24.5q63 0 103 -35.5t44 -95.5q0 -10 -8 -11l-76 -15q-11 -2 -12 9q-4 29 -17 41.5t-34 12.5q-34 0 -44 -31q-2 -5 -2.5 -11t-1.5 -19t-1 -35.5v-59.5v-60t1 -35t1.5 -19t2.5 -11q10 -31 44 -31q21 0 34 12.5t17 41.5q1 10 12 9l76 -15q8 -1 8 -11q-4 -60 -44 -95.5
t-103 -35.5z" />
    <glyph glyph-name="Cdotaccent" unicode="&#x10a;" horiz-adv-x="387" 
d="M155 769q-10 0 -10 10v86q0 10 10 10h82q10 0 10 -10v-86q0 -10 -10 -10h-82zM54 95q-3 10 -5.5 23.5t-4 39t-2.5 68.5t-1 114t1 114t2.5 68.5t4 38.5t5.5 24q16 49 53.5 76.5t100.5 27.5q73 0 116 -39t48 -124q2 -11 -7 -12l-81 -14q-11 -2 -11 9q-2 44 -17.5 63.5
t-44.5 19.5q-23 0 -35.5 -9.5t-18.5 -28.5q-2 -6 -3.5 -14.5t-2 -29.5t-1 -61t-0.5 -109t0.5 -109t1 -61t2 -29.5t3.5 -14.5q6 -19 18.5 -28.5t35.5 -9.5q29 0 44.5 19.5t17.5 63.5q0 11 11 9l81 -14q9 -1 7 -12q-5 -85 -48 -124t-116 -39q-63 0 -100.5 27.5t-53.5 76.5z
" />
    <glyph glyph-name="cdotaccent" unicode="&#x10b;" horiz-adv-x="357" 
d="M188 -9q-54 0 -89 24.5t-50 70.5q-3 10 -5.5 20.5t-4 26.5t-2 41.5t-0.5 66.5t0.5 66.5t2 41.5t4 26t5.5 21q15 46 50 70.5t89 24.5q63 0 103 -35.5t44 -95.5q0 -10 -8 -11l-76 -15q-11 -2 -12 9q-4 29 -17 41.5t-34 12.5q-34 0 -44 -31q-2 -5 -2.5 -11t-1.5 -19
t-1 -35.5v-59.5v-60t1 -35t1.5 -19t2.5 -11q10 -31 44 -31q21 0 34 12.5t17 41.5q1 10 12 9l76 -15q8 -1 8 -11q-4 -60 -44 -95.5t-103 -35.5zM139 574q-10 0 -10 10v86q0 10 10 10h82q10 0 10 -10v-86q0 -10 -10 -10h-82z" />
    <glyph glyph-name="Ccaron" unicode="&#x10c;" horiz-adv-x="387" 
d="M54 95q-3 10 -5.5 23.5t-4 39t-2.5 68.5t-1 114t1 114t2.5 68.5t4 38.5t5.5 24q16 49 53.5 76.5t100.5 27.5q73 0 116 -39t48 -124q2 -11 -7 -12l-81 -14q-11 -2 -11 9q-2 44 -17.5 63.5t-44.5 19.5q-23 0 -35.5 -9.5t-18.5 -28.5q-2 -6 -3.5 -14.5t-2 -29.5t-1 -61
t-0.5 -109t0.5 -109t1 -61t2 -29.5t3.5 -14.5q6 -19 18.5 -28.5t35.5 -9.5q29 0 44.5 19.5t17.5 63.5q0 11 11 9l81 -14q9 -1 7 -12q-5 -85 -48 -124t-116 -39q-63 0 -100.5 27.5t-53.5 76.5zM179 747q-10 0 -17 10l-88 125q-3 4 -2 7t6 3h60q10 0 19 -10l47 -59h2l48 59
q9 10 19 10h60q5 0 6 -3t-2 -7l-88 -125q-7 -10 -18 -10h-52z" />
    <glyph glyph-name="ccaron" unicode="&#x10d;" horiz-adv-x="357" 
d="M163 555q-10 0 -17 10l-88 125q-3 4 -2 7t6 3h60q10 0 19 -10l47 -60h2l48 60q9 10 19 10h60q5 0 6 -3t-2 -7l-88 -125q-7 -10 -18 -10h-52zM188 -9q-54 0 -89 24.5t-50 70.5q-3 10 -5.5 20.5t-4 26.5t-2 41.5t-0.5 66.5t0.5 66.5t2 41.5t4 26t5.5 21q15 46 50 70.5
t89 24.5q63 0 103 -35.5t44 -95.5q0 -10 -8 -11l-76 -15q-11 -2 -12 9q-4 29 -17 41.5t-34 12.5q-34 0 -44 -31q-2 -5 -2.5 -11t-1.5 -19t-1 -35.5v-59.5v-60t1 -35t1.5 -19t2.5 -11q10 -31 44 -31q21 0 34 12.5t17 41.5q1 10 12 9l76 -15q8 -1 8 -11q-4 -60 -44 -95.5
t-103 -35.5z" />
    <glyph glyph-name="Dcaron" unicode="&#x10e;" horiz-adv-x="443" 
d="M177 747q-10 0 -17 10l-88 125q-3 4 -2 7t6 3h60q10 0 19 -10l47 -59h2l48 59q9 10 19 10h60q5 0 6 -3t-2 -7l-88 -125q-7 -10 -18 -10h-52zM53 670q0 10 10 10h157q67 0 107 -27t58 -82q4 -14 7.5 -31t5.5 -43t3 -64t1 -93q0 -56 -1 -93.5t-3 -63.5t-5.5 -43t-7.5 -31
q-18 -55 -58 -82t-107 -27h-157q-10 0 -10 10v660zM160 103q0 -6 6 -6h43q55 0 72 49q3 9 5 21.5t3.5 34t2.5 54.5t1 84t-1 84t-2.5 54.5t-3.5 34t-5 21.5q-17 49 -72 49h-43q-6 0 -6 -6v-474z" />
    <glyph glyph-name="dcaron" unicode="&#x10f;" horiz-adv-x="401" 
d="M388 511q-9 0 -9 9v150q0 10 10 10h69q10 0 10 -10v-57q0 -8 -1.5 -12.5t-5.5 -9.5l-60 -73q-6 -7 -13 -7zM258 0q-10 0 -10 10v39h-1q-10 -26 -31 -42t-59 -16q-80 0 -105 80q-3 10 -5.5 22t-4 30.5t-2.5 46.5t-1 71q0 42 1 70t2.5 47t4 31t5.5 22q25 80 105 80
q38 0 59 -16.5t31 -41.5h1v237q0 10 10 10h82q10 0 10 -10v-660q0 -10 -10 -10h-82zM141 241v-58.5t1 -34t1.5 -18.5t2.5 -11q11 -34 49 -34q37 0 48 34q1 5 2 11t2 18.5t1 34v58.5v58.5t-1 34t-2 18.5t-2 11q-11 34 -48 34q-38 0 -49 -34q-2 -5 -2.5 -11t-1.5 -18.5t-1 -34
v-58.5z" />
    <glyph glyph-name="Dcroat" unicode="&#x110;" horiz-adv-x="443" 
d="M63 0q-10 0 -10 10v287q0 6 -6 6h-26q-10 0 -10 10v60q0 10 10 10h26q6 0 6 6v281q0 10 10 10h157q67 0 107 -27t58 -82q4 -14 7.5 -31t5.5 -43t3 -64t1 -93q0 -56 -1 -93.5t-3 -63.5t-5.5 -43t-7.5 -31q-18 -55 -58 -82t-107 -27h-157zM209 97q55 0 72 49q3 9 5 21.5
t3.5 34t2.5 54.5t1 84t-1 84t-2.5 54.5t-3.5 34t-5 21.5q-17 49 -72 49h-43q-6 0 -6 -6v-188q0 -6 6 -6h57q10 0 10 -10v-60q0 -10 -10 -10h-57q-6 0 -6 -6v-194q0 -6 6 -6h43z" />
    <glyph glyph-name="dcroat" unicode="&#x111;" horiz-adv-x="399" 
d="M350 10q0 -10 -10 -10h-82q-10 0 -10 10v39h-1q-10 -26 -31 -42t-59 -16q-80 0 -105 80q-3 10 -5.5 22t-4 30.5t-2.5 46.5t-1 71q0 42 1 70t2.5 47t4 31t5.5 22q25 80 105 80q38 0 59 -16.5t31 -41.5h1v100q0 6 -6 6h-73q-10 0 -10 10v58q0 10 10 10h73q6 0 6 6v47
q0 10 10 10h82q10 0 10 -10v-47q0 -6 6 -6h20q10 0 10 -10v-58q0 -10 -10 -10h-20q-6 0 -6 -6v-523zM141 241v-58.5t1 -34t1.5 -18.5t2.5 -11q11 -34 49 -34q37 0 48 34q1 5 2 11t2 18.5t1 34v58.5v58.5t-1 34t-2 18.5t-2 11q-11 34 -48 34q-38 0 -49 -34q-2 -5 -2.5 -11
t-1.5 -18.5t-1 -34v-58.5z" />
    <glyph glyph-name="Emacron" unicode="&#x112;" horiz-adv-x="381" 
d="M101 780q-10 0 -10 10v60q0 10 10 10h205q10 0 10 -10v-60q0 -10 -10 -10h-205zM53 670q0 10 10 10h279q10 0 10 -10v-77q0 -10 -10 -10h-176q-6 0 -6 -6v-179q0 -6 6 -6h152q10 0 10 -10v-77q0 -10 -10 -10h-152q-6 0 -6 -6v-186q0 -6 6 -6h176q10 0 10 -10v-77
q0 -10 -10 -10h-279q-10 0 -10 10v660z" />
    <glyph glyph-name="emacron" unicode="&#x113;" horiz-adv-x="380" 
d="M190 -9q-57 0 -92 25t-50 71q-3 9 -5 19.5t-3.5 27.5t-2 42.5t-0.5 64.5t0.5 64.5t2 42.5t3.5 27.5t5 19.5q15 46 50.5 71t92.5 25t93 -25t51 -71q3 -9 5 -20t3.5 -30.5t2 -50t0.5 -78.5q0 -10 -10 -10h-191q-6 0 -6 -6q0 -23 0.5 -37t1 -23t1.5 -14t2 -9q11 -32 47 -32
q40 0 53 43q3 9 12 7l77 -15q9 -1 7 -12q-10 -54 -50 -85.5t-100 -31.5zM191 400q-18 0 -29.5 -9t-16.5 -23q-3 -8 -4.5 -22.5t-1.5 -51.5q0 -6 6 -6h93q6 0 6 6q0 37 -1.5 51.5t-4.5 22.5q-5 14 -16.5 23t-30.5 9zM89 588q-10 0 -10 10v60q0 10 10 10h205q10 0 10 -10v-60
q0 -10 -10 -10h-205z" />
    <glyph glyph-name="Ebreve" unicode="&#x114;" horiz-adv-x="381" 
d="M203 742q-30 0 -52 9.5t-37.5 26t-24 38t-10.5 45.5q0 10 10 10h45q7 0 10 -10q8 -21 22 -34.5t37 -13.5t37.5 13.5t22.5 34.5q3 10 10 10h45q10 0 10 -10q-2 -24 -10.5 -45.5t-24 -38t-38 -26t-52.5 -9.5zM53 670q0 10 10 10h279q10 0 10 -10v-77q0 -10 -10 -10h-176
q-6 0 -6 -6v-179q0 -6 6 -6h152q10 0 10 -10v-77q0 -10 -10 -10h-152q-6 0 -6 -6v-186q0 -6 6 -6h176q10 0 10 -10v-77q0 -10 -10 -10h-279q-10 0 -10 10v660z" />
    <glyph glyph-name="ebreve" unicode="&#x115;" horiz-adv-x="380" 
d="M190 -9q-57 0 -92 25t-50 71q-3 9 -5 19.5t-3.5 27.5t-2 42.5t-0.5 64.5t0.5 64.5t2 42.5t3.5 27.5t5 19.5q15 46 50.5 71t92.5 25t93 -25t51 -71q3 -9 5 -20t3.5 -30.5t2 -50t0.5 -78.5q0 -10 -10 -10h-191q-6 0 -6 -6q0 -23 0.5 -37t1 -23t1.5 -14t2 -9q11 -32 47 -32
q40 0 53 43q3 9 12 7l77 -15q9 -1 7 -12q-10 -54 -50 -85.5t-100 -31.5zM191 400q-18 0 -29.5 -9t-16.5 -23q-3 -8 -4.5 -22.5t-1.5 -51.5q0 -6 6 -6h93q6 0 6 6q0 37 -1.5 51.5t-4.5 22.5q-5 14 -16.5 23t-30.5 9zM191 556q-59 0 -89.5 35t-34.5 84q0 10 10 10h45
q7 0 10 -10q8 -22 22 -35.5t37 -13.5t37.5 13.5t22.5 35.5q3 10 10 10h45q10 0 10 -10q-4 -49 -34.5 -84t-90.5 -35z" />
    <glyph glyph-name="Edotaccent" unicode="&#x116;" horiz-adv-x="381" 
d="M161 769q-10 0 -10 10v86q0 10 10 10h82q10 0 10 -10v-86q0 -10 -10 -10h-82zM53 670q0 10 10 10h279q10 0 10 -10v-77q0 -10 -10 -10h-176q-6 0 -6 -6v-179q0 -6 6 -6h152q10 0 10 -10v-77q0 -10 -10 -10h-152q-6 0 -6 -6v-186q0 -6 6 -6h176q10 0 10 -10v-77
q0 -10 -10 -10h-279q-10 0 -10 10v660z" />
    <glyph glyph-name="edotaccent" unicode="&#x117;" horiz-adv-x="380" 
d="M190 -9q-57 0 -92 25t-50 71q-3 9 -5 19.5t-3.5 27.5t-2 42.5t-0.5 64.5t0.5 64.5t2 42.5t3.5 27.5t5 19.5q15 46 50.5 71t92.5 25t93 -25t51 -71q3 -9 5 -20t3.5 -30.5t2 -50t0.5 -78.5q0 -10 -10 -10h-191q-6 0 -6 -6q0 -23 0.5 -37t1 -23t1.5 -14t2 -9q11 -32 47 -32
q40 0 53 43q3 9 12 7l77 -15q9 -1 7 -12q-10 -54 -50 -85.5t-100 -31.5zM191 400q-18 0 -29.5 -9t-16.5 -23q-3 -8 -4.5 -22.5t-1.5 -51.5q0 -6 6 -6h93q6 0 6 6q0 37 -1.5 51.5t-4.5 22.5q-5 14 -16.5 23t-30.5 9zM151 574q-10 0 -10 10v86q0 10 10 10h82q10 0 10 -10v-86
q0 -10 -10 -10h-82z" />
    <glyph glyph-name="Eogonek" unicode="&#x118;" horiz-adv-x="381" 
d="M264 -190q-41 0 -65 21t-24 62q0 33 16.5 59t39.5 48h-168q-10 0 -10 10v660q0 10 10 10h279q10 0 10 -10v-77q0 -10 -10 -10h-176q-6 0 -6 -6v-179q0 -6 6 -6h152q10 0 10 -10v-77q0 -10 -10 -10h-152q-6 0 -6 -6v-186q0 -6 6 -6h176q10 0 10 -10v-77q0 -10 -10 -10h-15
q-29 -20 -48.5 -45t-19.5 -46q0 -24 19 -24q10 0 18 5q9 6 13 -4l20 -46q3 -8 -5 -13q-9 -7 -26 -12t-34 -5z" />
    <glyph glyph-name="eogonek" unicode="&#x119;" horiz-adv-x="380" 
d="M190 -9q-57 0 -92 25t-50 71q-3 9 -5 19.5t-3.5 27.5t-2 42.5t-0.5 64.5t0.5 64.5t2 42.5t3.5 27.5t5 19.5q15 46 50.5 71t92.5 25t93 -25t51 -71q3 -9 5 -20t3.5 -30.5t2 -50t0.5 -78.5q0 -10 -10 -10h-191q-6 0 -6 -6q0 -23 0.5 -37t1 -23t1.5 -14t2 -9q11 -33 47 -33
q40 0 53 44q3 9 12 7l77 -15q9 -1 7 -12q-4 -18 -11 -34t-18 -29q-21 -34 -34 -57t-19.5 -38t-8.5 -24.5t-2 -16.5q0 -12 6 -18t14 -6q10 0 18 5q9 6 13 -4l20 -46q3 -8 -5 -13q-10 -7 -26.5 -12t-33.5 -5q-41 0 -65 21t-24 62q0 23 7.5 46t30.5 53q-3 -1 -12 -1zM238 288
q6 0 6 6q0 37 -1.5 51.5t-4.5 22.5q-5 14 -16.5 23t-30.5 9q-18 0 -29.5 -9t-16.5 -23q-3 -8 -4.5 -22.5t-1.5 -51.5q0 -6 6 -6h93z" />
    <glyph glyph-name="Ecaron" unicode="&#x11a;" horiz-adv-x="381" 
d="M177 747q-10 0 -17 10l-88 125q-3 4 -2 7t6 3h60q10 0 19 -10l47 -59h2l48 59q9 10 19 10h60q5 0 6 -3t-2 -7l-88 -125q-7 -10 -18 -10h-52zM53 670q0 10 10 10h279q10 0 10 -10v-77q0 -10 -10 -10h-176q-6 0 -6 -6v-179q0 -6 6 -6h152q10 0 10 -10v-77q0 -10 -10 -10
h-152q-6 0 -6 -6v-186q0 -6 6 -6h176q10 0 10 -10v-77q0 -10 -10 -10h-279q-10 0 -10 10v660z" />
    <glyph glyph-name="ecaron" unicode="&#x11b;" horiz-adv-x="380" 
d="M165 555q-10 0 -17 10l-88 125q-3 4 -2 7t6 3h60q10 0 19 -10l47 -60h2l48 60q9 10 19 10h60q5 0 6 -3t-2 -7l-88 -125q-7 -10 -18 -10h-52zM190 -9q-57 0 -92 25t-50 71q-3 9 -5 19.5t-3.5 27.5t-2 42.5t-0.5 64.5t0.5 64.5t2 42.5t3.5 27.5t5 19.5q15 46 50.5 71
t92.5 25t93 -25t51 -71q3 -9 5 -20t3.5 -30.5t2 -50t0.5 -78.5q0 -10 -10 -10h-191q-6 0 -6 -6q0 -23 0.5 -37t1 -23t1.5 -14t2 -9q11 -32 47 -32q40 0 53 43q3 9 12 7l77 -15q9 -1 7 -12q-10 -54 -50 -85.5t-100 -31.5zM191 400q-18 0 -29.5 -9t-16.5 -23q-3 -8 -4.5 -22.5
t-1.5 -51.5q0 -6 6 -6h93q6 0 6 6q0 37 -1.5 51.5t-4.5 22.5q-5 14 -16.5 23t-30.5 9z" />
    <glyph glyph-name="Gcircumflex" unicode="&#x11c;" horiz-adv-x="426" 
d="M54 97q-4 11 -6.5 24t-4 38t-2 67.5t-0.5 113.5t0.5 113.5t2 67.5t4 38t6.5 24q17 51 57.5 78.5t103.5 27.5q74 0 117.5 -39t51.5 -120q2 -10 -8 -12l-81 -14q-9 -2 -11 8q-8 80 -68 80q-22 0 -38 -10.5t-21 -27.5q-2 -7 -3.5 -15t-2.5 -29t-1 -60.5v-109.5v-109.5
t1 -60.5t2.5 -29t3.5 -15q5 -17 22 -27.5t38 -10.5q22 0 39 10.5t22 27.5q2 6 3.5 13t2 22.5t1 43t0.5 74.5q0 6 -6 6h-53q-10 0 -10 10v74q0 10 10 10h152q10 0 10 -10v-30q0 -71 -0.5 -113t-2 -67t-4 -38t-6.5 -24q-17 -51 -57 -78.5t-103 -27.5t-103.5 27.5t-57.5 78.5z
M281 750q-10 0 -19 10l-48 60h-2l-47 -60q-9 -10 -19 -10h-60q-5 0 -6 3t2 7l88 125q7 10 17 10h52q11 0 18 -10l88 -125q3 -4 2 -7t-6 -3h-60z" />
    <glyph glyph-name="gcircumflex" unicode="&#x11d;" horiz-adv-x="400" 
d="M269 555q-10 0 -19 10l-48 60h-2l-47 -60q-9 -10 -19 -10h-60q-5 0 -6 3t2 7l88 125q7 10 17 10h52q11 0 18 -10l88 -125q3 -4 2 -7t-6 -3h-60zM192 -189q-57 0 -94 27.5t-49 69.5q-2 8 4 11l76 27q9 3 13 -5q17 -37 53 -37q23 0 38 15t15 44v101h-1q-9 -25 -30 -41.5
t-59 -16.5q-80 0 -105 80q-3 10 -5.5 22t-4 30t-2.5 44.5t-1 65.5t1 65.5t2.5 44.5t4 30t5.5 22q25 81 105 81q38 0 59 -17t30 -43h1v41q0 10 10 10h82q10 0 10 -10v-497q0 -81 -43 -122.5t-115 -41.5zM195 98q37 0 48 35q1 5 2 10.5t2 17.5t1 32v55v54.5t-1 32t-2 17.5
t-2 11q-11 34 -48 34t-48 -34q-2 -5 -2.5 -11t-1.5 -17.5t-1 -32v-54.5v-55t1 -32t1.5 -17.5t2.5 -10.5q11 -35 48 -35z" />
    <glyph glyph-name="Gbreve" unicode="&#x11e;" horiz-adv-x="426" 
d="M213 742q-30 0 -52 9.5t-37.5 26t-24 38t-10.5 45.5q0 10 10 10h45q7 0 10 -10q8 -21 22 -34.5t37 -13.5t37.5 13.5t22.5 34.5q3 10 10 10h45q10 0 10 -10q-2 -24 -10.5 -45.5t-24 -38t-38 -26t-52.5 -9.5zM54 97q-4 11 -6.5 24t-4 38t-2 67.5t-0.5 113.5t0.5 113.5
t2 67.5t4 38t6.5 24q17 51 57.5 78.5t103.5 27.5q74 0 117.5 -39t51.5 -120q2 -10 -8 -12l-81 -14q-9 -2 -11 8q-8 80 -68 80q-22 0 -38 -10.5t-21 -27.5q-2 -7 -3.5 -15t-2.5 -29t-1 -60.5v-109.5v-109.5t1 -60.5t2.5 -29t3.5 -15q5 -17 22 -27.5t38 -10.5q22 0 39 10.5
t22 27.5q2 6 3.5 13t2 22.5t1 43t0.5 74.5q0 6 -6 6h-53q-10 0 -10 10v74q0 10 10 10h152q10 0 10 -10v-30q0 -71 -0.5 -113t-2 -67t-4 -38t-6.5 -24q-17 -51 -57 -78.5t-103 -27.5t-103.5 27.5t-57.5 78.5z" />
    <glyph glyph-name="gbreve" unicode="&#x11f;" horiz-adv-x="400" 
d="M192 -189q-57 0 -94 27.5t-49 69.5q-2 8 4 11l76 27q9 3 13 -5q17 -37 53 -37q23 0 38 15t15 44v101h-1q-9 -25 -30 -41.5t-59 -16.5q-80 0 -105 80q-3 10 -5.5 22t-4 30t-2.5 44.5t-1 65.5t1 65.5t2.5 44.5t4 30t5.5 22q25 81 105 81q38 0 59 -17t30 -43h1v41
q0 10 10 10h82q10 0 10 -10v-497q0 -81 -43 -122.5t-115 -41.5zM195 98q37 0 48 35q1 5 2 10.5t2 17.5t1 32v55v54.5t-1 32t-2 17.5t-2 11q-11 34 -48 34t-48 -34q-2 -5 -2.5 -11t-1.5 -17.5t-1 -32v-54.5v-55t1 -32t1.5 -17.5t2.5 -10.5q11 -35 48 -35zM201 556
q-59 0 -89.5 35t-34.5 84q0 10 10 10h45q7 0 10 -10q8 -22 22 -35.5t37 -13.5t37.5 13.5t22.5 35.5q3 10 10 10h45q10 0 10 -10q-4 -49 -34.5 -84t-90.5 -35z" />
    <glyph glyph-name="Gdotaccent" unicode="&#x120;" horiz-adv-x="426" 
d="M172 769q-10 0 -10 10v86q0 10 10 10h82q10 0 10 -10v-86q0 -10 -10 -10h-82zM54 97q-4 11 -6.5 24t-4 38t-2 67.5t-0.5 113.5t0.5 113.5t2 67.5t4 38t6.5 24q17 51 57.5 78.5t103.5 27.5q74 0 117.5 -39t51.5 -120q2 -10 -8 -12l-81 -14q-9 -2 -11 8q-8 80 -68 80
q-22 0 -38 -10.5t-21 -27.5q-2 -7 -3.5 -15t-2.5 -29t-1 -60.5v-109.5v-109.5t1 -60.5t2.5 -29t3.5 -15q5 -17 22 -27.5t38 -10.5q22 0 39 10.5t22 27.5q2 6 3.5 13t2 22.5t1 43t0.5 74.5q0 6 -6 6h-53q-10 0 -10 10v74q0 10 10 10h152q10 0 10 -10v-30q0 -71 -0.5 -113
t-2 -67t-4 -38t-6.5 -24q-17 -51 -57 -78.5t-103 -27.5t-103.5 27.5t-57.5 78.5z" />
    <glyph glyph-name="gdotaccent" unicode="&#x121;" horiz-adv-x="400" 
d="M192 -189q-57 0 -94 27.5t-49 69.5q-2 8 4 11l76 27q9 3 13 -5q17 -37 53 -37q23 0 38 15t15 44v101h-1q-9 -25 -30 -41.5t-59 -16.5q-80 0 -105 80q-3 10 -5.5 22t-4 30t-2.5 44.5t-1 65.5t1 65.5t2.5 44.5t4 30t5.5 22q25 81 105 81q38 0 59 -17t30 -43h1v41
q0 10 10 10h82q10 0 10 -10v-497q0 -81 -43 -122.5t-115 -41.5zM195 98q37 0 48 35q1 5 2 10.5t2 17.5t1 32v55v54.5t-1 32t-2 17.5t-2 11q-11 34 -48 34t-48 -34q-2 -5 -2.5 -11t-1.5 -17.5t-1 -32v-54.5v-55t1 -32t1.5 -17.5t2.5 -10.5q11 -35 48 -35zM161 574
q-10 0 -10 10v86q0 10 10 10h82q10 0 10 -10v-86q0 -10 -10 -10h-82z" />
    <glyph glyph-name="Gcommaaccent" unicode="&#x122;" horiz-adv-x="426" 
d="M176 -221q-8 0 -8 10v147q0 10 10 10h70q10 0 10 -10v-55q0 -13 -8 -22l-61 -73q-6 -7 -13 -7zM54 97q-4 11 -6.5 24t-4 38t-2 67.5t-0.5 113.5t0.5 113.5t2 67.5t4 38t6.5 24q17 51 57.5 78.5t103.5 27.5q74 0 117.5 -39t51.5 -120q2 -10 -8 -12l-81 -14q-9 -2 -11 8
q-8 80 -68 80q-22 0 -38 -10.5t-21 -27.5q-2 -7 -3.5 -15t-2.5 -29t-1 -60.5v-109.5v-109.5t1 -60.5t2.5 -29t3.5 -15q5 -17 22 -27.5t38 -10.5q22 0 39 10.5t22 27.5q2 6 3.5 13t2 22.5t1 43t0.5 74.5q0 6 -6 6h-53q-10 0 -10 10v74q0 10 10 10h152q10 0 10 -10v-30
q0 -71 -0.5 -113t-2 -67t-4 -38t-6.5 -24q-17 -51 -57 -78.5t-103 -27.5t-103.5 27.5t-57.5 78.5z" />
    <glyph glyph-name="gcommaaccent" unicode="&#x123;" horiz-adv-x="400" 
d="M167 572q-10 0 -10 10v55q0 8 1 12.5t6 9.5l61 73q6 7 13 7q9 0 9 -10v-147q0 -10 -10 -10h-70zM192 -189q-57 0 -94 27.5t-49 69.5q-2 8 4 11l76 27q9 3 13 -5q17 -37 53 -37q23 0 38 15t15 44v101h-1q-9 -25 -30 -41.5t-59 -16.5q-80 0 -105 80q-3 10 -5.5 22t-4 30
t-2.5 44.5t-1 65.5t1 65.5t2.5 44.5t4 30t5.5 22q25 81 105 81q38 0 59 -17t30 -43h1v41q0 10 10 10h82q10 0 10 -10v-497q0 -81 -43 -122.5t-115 -41.5zM195 98q37 0 48 35q1 5 2 10.5t2 17.5t1 32v55v54.5t-1 32t-2 17.5t-2 11q-11 34 -48 34t-48 -34q-2 -5 -2.5 -11
t-1.5 -17.5t-1 -32v-54.5v-55t1 -32t1.5 -17.5t2.5 -10.5q11 -35 48 -35z" />
    <glyph glyph-name="Hcircumflex" unicode="&#x124;" horiz-adv-x="447" 
d="M53 670q0 10 10 10h87q10 0 10 -10v-268q0 -6 6 -6h115q6 0 6 6v268q0 10 10 10h87q10 0 10 -10v-660q0 -10 -10 -10h-87q-10 0 -10 10v283q0 6 -6 6h-115q-6 0 -6 -6v-283q0 -10 -10 -10h-87q-10 0 -10 10v660zM290 750q-10 0 -19 10l-48 60h-2l-47 -60q-9 -10 -19 -10
h-60q-5 0 -6 3t2 7l88 125q7 10 17 10h52q11 0 18 -10l88 -125q3 -4 2 -7t-6 -3h-60z" />
    <glyph glyph-name="hcircumflex" unicode="&#x125;" horiz-adv-x="405" 
d="M266 0q-10 0 -10 10v317q0 70 -52 70q-51 0 -51 -70v-317q0 -10 -10 -10h-82q-10 0 -10 10v660q0 10 10 10h82q10 0 10 -10v-236h1q13 25 35 41t57 16q54 0 83 -35.5t29 -114.5v-331q0 -10 -10 -10h-82zM275 750q-10 0 -19 10l-48 60h-2l-47 -60q-9 -10 -19 -10h-60
q-5 0 -6 3t2 7l88 125q7 10 17 10h52q11 0 18 -10l88 -125q3 -4 2 -7t-6 -3h-60z" />
    <glyph glyph-name="Hbar" unicode="&#x126;" horiz-adv-x="447" 
d="M297 0q-10 0 -10 10v283q0 6 -6 6h-115q-6 0 -6 -6v-283q0 -10 -10 -10h-87q-10 0 -10 10v475q0 6 -6 6h-19q-10 0 -10 10v60q0 10 10 10h19q6 0 6 6v93q0 10 10 10h87q10 0 10 -10v-93q0 -6 6 -6h115q6 0 6 6v93q0 10 10 10h87q10 0 10 -10v-93q0 -6 6 -6h19
q10 0 10 -10v-60q0 -10 -10 -10h-19q-6 0 -6 -6v-475q0 -10 -10 -10h-87zM281 396q6 0 6 6v83q0 6 -6 6h-115q-6 0 -6 -6v-83q0 -6 6 -6h115z" />
    <glyph glyph-name="hbar" unicode="&#x127;" horiz-adv-x="405" 
d="M266 0q-10 0 -10 10v317q0 70 -52 70q-51 0 -51 -70v-317q0 -10 -10 -10h-82q-10 0 -10 10v523q0 6 -6 6h-20q-10 0 -10 10v58q0 10 10 10h20q6 0 6 6v47q0 10 10 10h82q10 0 10 -10v-47q0 -6 6 -6h73q10 0 10 -10v-58q0 -10 -10 -10h-73q-6 0 -6 -6v-99h1q13 25 35 41
t57 16q54 0 83 -35.5t29 -114.5v-331q0 -10 -10 -10h-82z" />
    <glyph glyph-name="Itilde" unicode="&#x128;" horiz-adv-x="213" 
d="M53 670q0 10 10 10h87q10 0 10 -10v-660q0 -10 -10 -10h-87q-10 0 -10 10v660zM152 763q-17 0 -28 5t-24 13q-12 8 -19.5 12t-18.5 4q-16 0 -26.5 -7.5t-21.5 -18.5q-4 -4 -8 -2.5t-4 6.5v61q0 9 10 19t22 17t29 7t28 -5t23 -13q13 -8 20.5 -12t18.5 -4q16 0 26.5 7.5
t21.5 18.5q4 4 8 2.5t4 -6.5v-61q0 -5 -2 -9t-8 -10q-10 -10 -22 -17t-29 -7z" />
    <glyph glyph-name="itilde" unicode="&#x129;" horiz-adv-x="204" 
d="M61 0q-10 0 -10 10v462q0 10 10 10h82q10 0 10 -10v-462q0 -10 -10 -10h-82zM148 567q-17 0 -28 5t-24 13q-12 8 -19.5 12t-18.5 4q-16 0 -26.5 -7.5t-21.5 -18.5q-4 -4 -8 -2.5t-4 6.5v61q0 9 10 19t22 17t29 7t28 -5t23 -13q13 -8 20.5 -12t18.5 -4q16 0 26.5 7
t21.5 19q4 4 8 2.5t4 -6.5v-61q0 -5 -2 -9t-8 -10q-10 -10 -22 -17t-29 -7z" />
    <glyph glyph-name="Imacron" unicode="&#x12a;" horiz-adv-x="213" 
d="M53 670q0 10 10 10h87q10 0 10 -10v-660q0 -10 -10 -10h-87q-10 0 -10 10v660zM5 780q-10 0 -10 10v60q0 10 10 10h205q10 0 10 -10v-60q0 -10 -10 -10h-205z" />
    <glyph glyph-name="imacron" unicode="&#x12b;" horiz-adv-x="204" 
d="M61 0q-10 0 -10 10v462q0 10 10 10h82q10 0 10 -10v-462q0 -10 -10 -10h-82zM1 588q-10 0 -10 10v60q0 10 10 10h205q10 0 10 -10v-60q0 -10 -10 -10h-205z" />
    <glyph glyph-name="Ibreve" unicode="&#x12c;" horiz-adv-x="213" 
d="M53 670q0 10 10 10h87q10 0 10 -10v-660q0 -10 -10 -10h-87q-10 0 -10 10v660zM107 742q-30 0 -52 9.5t-37.5 26t-24 38t-10.5 45.5q0 10 10 10h45q7 0 10 -10q8 -21 22 -34.5t37 -13.5t37.5 13.5t22.5 34.5q3 10 10 10h45q10 0 10 -10q-2 -24 -10.5 -45.5t-24 -38
t-38 -26t-52.5 -9.5z" />
    <glyph glyph-name="ibreve" unicode="&#x12d;" horiz-adv-x="204" 
d="M61 0q-10 0 -10 10v462q0 10 10 10h82q10 0 10 -10v-462q0 -10 -10 -10h-82zM103 556q-59 0 -89.5 35t-34.5 84q0 10 10 10h45q7 0 10 -10q8 -22 22 -35.5t37 -13.5t37.5 13.5t22.5 35.5q3 10 10 10h45q10 0 10 -10q-4 -49 -34.5 -84t-90.5 -35z" />
    <glyph glyph-name="Iogonek" unicode="&#x12e;" horiz-adv-x="213" 
d="M100 -190q-41 0 -65.5 21t-24.5 62q0 30 14.5 55.5t41.5 51.5h-3q-10 0 -10 10v660q0 10 10 10h87q10 0 10 -10v-660q0 -5 -3 -8q-33 -31 -48 -53.5t-15 -39.5q0 -24 19 -24q6 0 10 1.5t9 3.5q9 6 13 -4l20 -46q3 -8 -5 -13q-10 -7 -26.5 -12t-33.5 -5z" />
    <glyph glyph-name="iogonek" unicode="&#x12f;" horiz-adv-x="204" 
d="M61 574q-10 0 -10 10v86q0 10 10 10h82q10 0 10 -10v-86q0 -10 -10 -10h-82zM93 -190q-41 0 -65 21t-24 62q0 29 13.5 55t42.5 52q-9 0 -9 10v462q0 10 10 10h82q10 0 10 -10v-462q0 -5 -4 -9q-32 -31 -47 -53t-15 -39q0 -24 20 -24q10 0 18 5q9 6 13 -4l20 -46
q3 -8 -5 -13q-10 -7 -26.5 -12t-33.5 -5z" />
    <glyph glyph-name="Idotaccent" unicode="&#x130;" horiz-adv-x="213" 
d="M53 670q0 10 10 10h87q10 0 10 -10v-660q0 -10 -10 -10h-87q-10 0 -10 10v660zM67 769q-10 0 -10 10v86q0 10 10 10h82q10 0 10 -10v-86q0 -10 -10 -10h-82z" />
    <glyph glyph-name="dotlessi" unicode="&#x131;" horiz-adv-x="204" 
d="M61 0q-10 0 -10 10v462q0 10 10 10h82q10 0 10 -10v-462q0 -10 -10 -10h-82z" />
    <glyph glyph-name="Jcircumflex" unicode="&#x134;" horiz-adv-x="354" 
d="M16 36q-6 8 1 14l59 54q7 6 15 -1q17 -15 40 -15q31 0 48 18.5t17 60.5v503q0 10 10 10h87q10 0 10 -10v-494q0 -49 -12.5 -84t-36 -57.5t-55.5 -33t-71 -10.5q-35 0 -65 11.5t-47 33.5zM314 750q-10 0 -19 10l-48 60h-2l-47 -60q-9 -10 -19 -10h-60q-5 0 -6 3t2 7
l88 125q7 10 17 10h52q11 0 18 -10l88 -125q3 -4 2 -7t-6 -3h-60z" />
    <glyph glyph-name="jcircumflex" unicode="&#x135;" horiz-adv-x="204" 
d="M-4 -180q-10 0 -10 10v74q0 10 10 10l14 1q22 2 31.5 13t9.5 42v502q0 10 10 10h82q10 0 10 -10v-508q0 -73 -33.5 -108.5t-108.5 -35.5h-15zM171 555q-10 0 -19 10l-48 60h-2l-47 -60q-9 -10 -19 -10h-60q-5 0 -6 3t2 7l88 125q7 10 17 10h52q11 0 18 -10l88 -125
q3 -4 2 -7t-6 -3h-60z" />
    <glyph glyph-name="Kcommaaccent" unicode="&#x136;" horiz-adv-x="441" 
d="M194 -221q-8 0 -8 10v147q0 10 10 10h70q10 0 10 -10v-55q0 -13 -8 -22l-61 -73q-6 -7 -13 -7zM53 670q0 10 10 10h87q10 0 10 -10v-281l137 283q4 8 13 8h91q4 0 5.5 -3t-0.5 -7l-136 -265l157 -395q4 -10 -5 -10h-93q-8 0 -11 7l-113 287l-45 -93v-191q0 -10 -10 -10
h-87q-10 0 -10 10v660z" />
    <glyph glyph-name="kcommaaccent" unicode="&#x137;" horiz-adv-x="396" 
d="M176 -221q-8 0 -8 10v147q0 10 10 10h70q10 0 10 -10v-55q0 -13 -8 -22l-61 -73q-6 -7 -13 -7zM289 0q-9 0 -13 10l-83 197l-40 -72v-125q0 -10 -10 -10h-82q-10 0 -10 10v660q0 10 10 10h82q10 0 10 -10v-383l103 185q6 10 14 10h84q11 0 6 -10l-106 -176l128 -286
q5 -10 -6 -10h-87z" />
    <glyph glyph-name="kgreenlandic" unicode="&#x138;" horiz-adv-x="396" 
d="M289 0q-9 0 -13 10l-83 197l-40 -72v-125q0 -10 -10 -10h-82q-10 0 -10 10v462q0 10 10 10h82q10 0 10 -10v-185l103 185q6 10 14 10h84q11 0 6 -10l-106 -176l128 -286q5 -10 -6 -10h-87z" />
    <glyph glyph-name="Lacute" unicode="&#x139;" horiz-adv-x="372" 
d="M85 761q-5 0 -7 3t1 7l77 107q4 5 7 7.5t9 2.5h81q5 0 6.5 -3t-1.5 -7l-98 -107q-10 -10 -20 -10h-55zM53 670q0 10 10 10h87q10 0 10 -10v-567q0 -6 6 -6h176q10 0 10 -10v-77q0 -10 -10 -10h-279q-10 0 -10 10v660z" />
    <glyph glyph-name="lacute" unicode="&#x13a;" horiz-adv-x="233" 
d="M75 761q-5 0 -7 3t1 7l77 107q4 5 7 7.5t9 2.5h81q5 0 6.5 -3t-1.5 -7l-98 -107q-10 -10 -20 -10h-55zM194 -6q-40 1 -67 9.5t-44 26t-24.5 45t-7.5 65.5v530q0 10 10 10h82q10 0 10 -10v-530q0 -24 9.5 -36t29.5 -16l5 -1q10 -2 10 -11v-72q0 -10 -10 -10h-3z" />
    <glyph glyph-name="Lcommaaccent" unicode="&#x13b;" horiz-adv-x="372" 
d="M152 -221q-8 0 -8 10v147q0 10 10 10h70q10 0 10 -10v-55q0 -13 -8 -22l-61 -73q-6 -7 -13 -7zM53 670q0 10 10 10h87q10 0 10 -10v-567q0 -6 6 -6h176q10 0 10 -10v-77q0 -10 -10 -10h-279q-10 0 -10 10v660z" />
    <glyph glyph-name="lcommaaccent" unicode="&#x13c;" horiz-adv-x="233" 
d="M99 -221q-8 0 -8 10v147q0 10 10 10h70q10 0 10 -10v-55q0 -13 -8 -22l-61 -73q-6 -7 -13 -7zM194 -6q-40 1 -67 9.5t-44 26t-24.5 45t-7.5 65.5v530q0 10 10 10h82q10 0 10 -10v-530q0 -24 9.5 -36t29.5 -16l5 -1q10 -2 10 -11v-72q0 -10 -10 -10h-3z" />
    <glyph glyph-name="Lcaron" unicode="&#x13d;" horiz-adv-x="372" 
d="M208 511q-9 0 -9 9v150q0 10 10 10h69q10 0 10 -10v-57q0 -8 -1.5 -12.5t-5.5 -9.5l-60 -73q-6 -7 -13 -7zM53 670q0 10 10 10h87q10 0 10 -10v-567q0 -6 6 -6h176q10 0 10 -10v-77q0 -10 -10 -10h-279q-10 0 -10 10v660z" />
    <glyph glyph-name="lcaron" unicode="&#x13e;" horiz-adv-x="233" 
d="M205 511q-9 0 -9 9v150q0 10 10 10h69q10 0 10 -10v-57q0 -8 -1.5 -12.5t-5.5 -9.5l-60 -73q-6 -7 -13 -7zM194 -6q-40 1 -67 9.5t-44 26t-24.5 45t-7.5 65.5v530q0 10 10 10h82q10 0 10 -10v-530q0 -24 9.5 -36t29.5 -16l5 -1q10 -2 10 -11v-72q0 -10 -10 -10h-3z" />
    <glyph glyph-name="Ldot" unicode="&#x13f;" horiz-adv-x="372" 
d="M53 670q0 10 10 10h87q10 0 10 -10v-567q0 -6 6 -6h176q10 0 10 -10v-77q0 -10 -10 -10h-279q-10 0 -10 10v660zM250 246q-10 0 -10 10v99q0 10 10 10h85q10 0 10 -10v-99q0 -10 -10 -10h-85z" />
    <glyph glyph-name="ldot" unicode="&#x140;" horiz-adv-x="286" 
d="M194 -6q-40 1 -67 9.5t-44 26t-24.5 45t-7.5 65.5v530q0 10 10 10h82q10 0 10 -10v-530q0 -24 9.5 -36t29.5 -16l5 -1q10 -2 10 -11v-72q0 -10 -10 -10h-3zM202 255q-10 0 -10 10v99q0 10 10 10h85q10 0 10 -10v-99q0 -10 -10 -10h-85z" />
    <glyph glyph-name="Lslash" unicode="&#x141;" horiz-adv-x="372" 
d="M160 326v-223q0 -6 6 -6h176q10 0 10 -10v-77q0 -10 -10 -10h-279q-10 0 -10 10v246l-36 -24q-4 -2 -7 -0.5t-3 5.5v78q0 9 10 16l36 25v314q0 10 10 10h87q10 0 10 -10v-245l86 60q4 2 7 0.5t3 -5.5v-79q0 -9 -10 -16z" />
    <glyph glyph-name="lslash" unicode="&#x142;" horiz-adv-x="233" 
d="M153 353v-213q0 -24 9.5 -36t29.5 -16l5 -1q10 -2 10 -11v-72q0 -10 -10 -10h-3q-40 1 -67 9.5t-44 26t-24.5 45t-7.5 65.5v146l-27 -18q-4 -2 -7 -0.5t-3 5.5v75q0 9 10 16l27 18v288q0 10 10 10h82q10 0 10 -10v-222l44 31q4 2 7 0.5t3 -5.5v-74q0 -9 -10 -16z" />
    <glyph glyph-name="Nacute" unicode="&#x143;" horiz-adv-x="461" 
d="M173 761q-5 0 -7 3t1 7l77 107q4 5 7 7.5t9 2.5h81q5 0 6.5 -3t-1.5 -7l-98 -107q-10 -10 -20 -10h-55zM53 670q0 10 10 10h106q11 0 14 -10l126 -470h5v470q0 10 10 10h74q10 0 10 -10v-660q0 -10 -10 -10h-99q-11 0 -14 10l-132 470h-6v-470q0 -10 -10 -10h-74
q-10 0 -10 10v660z" />
    <glyph glyph-name="nacute" unicode="&#x144;" horiz-adv-x="405" 
d="M152 555q-11 0 -6 10l69 125q6 10 16 10h81q5 0 6.5 -3t-1.5 -7l-90 -125q-8 -10 -18 -10h-57zM266 0q-10 0 -10 10v317q0 70 -52 70q-51 0 -51 -70v-317q0 -10 -10 -10h-82q-10 0 -10 10v462q0 10 10 10h82q10 0 10 -10v-38h1q13 25 35 41t57 16q54 0 83 -35.5
t29 -114.5v-331q0 -10 -10 -10h-82z" />
    <glyph glyph-name="Ncommaaccent" unicode="&#x145;" horiz-adv-x="461" 
d="M204 -221q-8 0 -8 10v147q0 10 10 10h70q10 0 10 -10v-55q0 -13 -8 -22l-61 -73q-6 -7 -13 -7zM53 670q0 10 10 10h106q11 0 14 -10l126 -470h5v470q0 10 10 10h74q10 0 10 -10v-660q0 -10 -10 -10h-99q-11 0 -14 10l-132 470h-6v-470q0 -10 -10 -10h-74q-10 0 -10 10
v660z" />
    <glyph glyph-name="ncommaaccent" unicode="&#x146;" horiz-adv-x="405" 
d="M167 -221q-8 0 -8 10v147q0 10 10 10h70q10 0 10 -10v-55q0 -13 -8 -22l-61 -73q-6 -7 -13 -7zM266 0q-10 0 -10 10v317q0 70 -52 70q-51 0 -51 -70v-317q0 -10 -10 -10h-82q-10 0 -10 10v462q0 10 10 10h82q10 0 10 -10v-38h1q13 25 35 41t57 16q54 0 83 -35.5
t29 -114.5v-331q0 -10 -10 -10h-82z" />
    <glyph glyph-name="Ncaron" unicode="&#x147;" horiz-adv-x="461" 
d="M204 747q-10 0 -17 10l-88 125q-3 4 -2 7t6 3h60q10 0 19 -10l47 -59h2l48 59q9 10 19 10h60q5 0 6 -3t-2 -7l-88 -125q-7 -10 -18 -10h-52zM53 670q0 10 10 10h106q11 0 14 -10l126 -470h5v470q0 10 10 10h74q10 0 10 -10v-660q0 -10 -10 -10h-99q-11 0 -14 10l-132 470
h-6v-470q0 -10 -10 -10h-74q-10 0 -10 10v660z" />
    <glyph glyph-name="ncaron" unicode="&#x148;" horiz-adv-x="405" 
d="M177 555q-10 0 -17 10l-88 125q-3 4 -2 7t6 3h60q10 0 19 -10l47 -60h2l48 60q9 10 19 10h60q5 0 6 -3t-2 -7l-88 -125q-7 -10 -18 -10h-52zM266 0q-10 0 -10 10v317q0 70 -52 70q-51 0 -51 -70v-317q0 -10 -10 -10h-82q-10 0 -10 10v462q0 10 10 10h82q10 0 10 -10v-38
h1q13 25 35 41t57 16q54 0 83 -35.5t29 -114.5v-331q0 -10 -10 -10h-82z" />
    <glyph glyph-name="Eng" unicode="&#x14a;" horiz-adv-x="461" 
d="M239 -180q-10 0 -10 10v77q0 9 10 10l10 1q53 5 53 58v6l-149 498h-6v-470q0 -10 -10 -10h-74q-10 0 -10 10v660q0 10 10 10h106q11 0 14 -10l126 -461h5v461q0 10 10 10h74q10 0 10 -10v-684q0 -88 -38.5 -127t-119.5 -39h-11z" />
    <glyph glyph-name="eng" unicode="&#x14b;" horiz-adv-x="405" 
d="M205 -180q-10 0 -10 10v72q0 10 10 10l10 1q22 2 31.5 13t9.5 43v358q0 70 -52 70q-51 0 -51 -70v-317q0 -10 -10 -10h-82q-10 0 -10 10v462q0 10 10 10h82q10 0 10 -10v-38h1q13 25 35 41t57 16q54 0 83 -35.5t29 -114.5v-377q0 -73 -33.5 -108.5t-108.5 -35.5h-11z" />
    <glyph glyph-name="Omacron" unicode="&#x14c;" horiz-adv-x="429" 
d="M112 780q-10 0 -10 10v60q0 10 10 10h205q10 0 10 -10v-60q0 -10 -10 -10h-205zM215 -9q-63 0 -103.5 27.5t-57.5 78.5q-4 11 -6.5 24t-4 38t-2 67.5t-0.5 113.5t0.5 113.5t2 67.5t4 38t6.5 24q17 51 57.5 78.5t103.5 27.5t103 -27.5t57 -78.5q4 -11 6.5 -24t4 -38
t2 -67.5t0.5 -113.5t-0.5 -113.5t-2 -67.5t-4 -38t-6.5 -24q-17 -51 -57 -78.5t-103 -27.5zM215 88q21 0 36.5 10.5t20.5 27.5q2 7 3.5 15t2 29t1 60.5t0.5 109.5t-0.5 109.5t-1 60.5t-2 29t-3.5 15q-5 17 -20.5 27.5t-36.5 10.5q-22 0 -37.5 -10.5t-20.5 -27.5
q-2 -7 -3.5 -15t-2.5 -29t-1 -60.5v-109.5v-109.5t1 -60.5t2.5 -29t3.5 -15q5 -17 20.5 -27.5t37.5 -10.5z" />
    <glyph glyph-name="omacron" unicode="&#x14d;" horiz-adv-x="385" 
d="M91 588q-10 0 -10 10v60q0 10 10 10h205q10 0 10 -10v-60q0 -10 -10 -10h-205zM348 241q0 -38 -0.5 -62.5t-2 -41t-3.5 -27.5t-5 -20q-15 -47 -52 -73t-93 -26q-55 0 -92 26t-52 73q-3 9 -5 20t-3.5 27.5t-2 41t-0.5 62.5q0 37 0.5 62t2 41.5t3.5 27.5t5 20q15 47 52 73
t92 26q56 0 93 -26t52 -73q3 -9 5 -20t3.5 -27.5t2 -41.5t0.5 -62zM246 241v58.5t-1 34t-2 18.5t-2 11q-11 34 -49 34q-37 0 -48 -34q-2 -5 -2.5 -11t-1.5 -18.5t-1 -34v-58.5v-58.5t1 -34t1.5 -18.5t2.5 -11q11 -34 48 -34q38 0 49 34q1 5 2 11t2 18.5t1 34v58.5z" />
    <glyph glyph-name="Obreve" unicode="&#x14e;" horiz-adv-x="429" 
d="M214 742q-30 0 -52 9.5t-37.5 26t-24 38t-10.5 45.5q0 10 10 10h45q7 0 10 -10q8 -21 22 -34.5t37 -13.5t37.5 13.5t22.5 34.5q3 10 10 10h45q10 0 10 -10q-2 -24 -10.5 -45.5t-24 -38t-38 -26t-52.5 -9.5zM215 -9q-63 0 -103.5 27.5t-57.5 78.5q-4 11 -6.5 24t-4 38
t-2 67.5t-0.5 113.5t0.5 113.5t2 67.5t4 38t6.5 24q17 51 57.5 78.5t103.5 27.5t103 -27.5t57 -78.5q4 -11 6.5 -24t4 -38t2 -67.5t0.5 -113.5t-0.5 -113.5t-2 -67.5t-4 -38t-6.5 -24q-17 -51 -57 -78.5t-103 -27.5zM215 88q21 0 36.5 10.5t20.5 27.5q2 7 3.5 15t2 29
t1 60.5t0.5 109.5t-0.5 109.5t-1 60.5t-2 29t-3.5 15q-5 17 -20.5 27.5t-36.5 10.5q-22 0 -37.5 -10.5t-20.5 -27.5q-2 -7 -3.5 -15t-2.5 -29t-1 -60.5v-109.5v-109.5t1 -60.5t2.5 -29t3.5 -15q5 -17 20.5 -27.5t37.5 -10.5z" />
    <glyph glyph-name="obreve" unicode="&#x14f;" horiz-adv-x="385" 
d="M348 241q0 -38 -0.5 -62.5t-2 -41t-3.5 -27.5t-5 -20q-15 -47 -52 -73t-93 -26q-55 0 -92 26t-52 73q-3 9 -5 20t-3.5 27.5t-2 41t-0.5 62.5q0 37 0.5 62t2 41.5t3.5 27.5t5 20q15 47 52 73t92 26q56 0 93 -26t52 -73q3 -9 5 -20t3.5 -27.5t2 -41.5t0.5 -62zM246 241
v58.5t-1 34t-2 18.5t-2 11q-11 34 -49 34q-37 0 -48 -34q-2 -5 -2.5 -11t-1.5 -18.5t-1 -34v-58.5v-58.5t1 -34t1.5 -18.5t2.5 -11q11 -34 48 -34q38 0 49 34q1 5 2 11t2 18.5t1 34v58.5zM193 556q-59 0 -89.5 35t-34.5 84q0 10 10 10h45q7 0 10 -10q8 -22 22 -35.5
t37 -13.5t37.5 13.5t22.5 35.5q3 10 10 10h45q10 0 10 -10q-4 -49 -34.5 -84t-90.5 -35z" />
    <glyph glyph-name="Ohungarumlaut" unicode="&#x150;" horiz-adv-x="429" 
d="M215 -9q-63 0 -103.5 27.5t-57.5 78.5q-4 11 -6.5 24t-4 38t-2 67.5t-0.5 113.5t0.5 113.5t2 67.5t4 38t6.5 24q17 51 57.5 78.5t103.5 27.5t103 -27.5t57 -78.5q4 -11 6.5 -24t4 -38t2 -67.5t0.5 -113.5t-0.5 -113.5t-2 -67.5t-4 -38t-6.5 -24q-17 -51 -57 -78.5
t-103 -27.5zM215 88q21 0 36.5 10.5t20.5 27.5q2 7 3.5 15t2 29t1 60.5t0.5 109.5t-0.5 109.5t-1 60.5t-2 29t-3.5 15q-5 17 -20.5 27.5t-36.5 10.5q-22 0 -37.5 -10.5t-20.5 -27.5q-2 -7 -3.5 -15t-2.5 -29t-1 -60.5v-109.5v-109.5t1 -60.5t2.5 -29t3.5 -15
q5 -17 20.5 -27.5t37.5 -10.5zM254 761q-5 0 -6.5 2.5t1.5 7.5l69 107q7 10 17 10h68q5 0 6 -3t-2 -7l-84 -107q-9 -10 -19 -10h-50zM121 761q-5 0 -6.5 2.5t1.5 7.5l70 107q7 10 17 10h67q5 0 6 -3t-2 -7l-84 -107q-9 -10 -19 -10h-50z" />
    <glyph glyph-name="ohungarumlaut" unicode="&#x151;" horiz-adv-x="385" 
d="M229 555q-11 0 -6 10l61 125q4 10 16 10h67q5 0 6 -3t-1 -7l-75 -125q-6 -10 -17 -10h-51zM97 555q-11 0 -6 10l60 125q4 10 16 10h67q5 0 6 -3t-1 -7l-74 -125q-6 -10 -18 -10h-50zM348 241q0 -38 -0.5 -62.5t-2 -41t-3.5 -27.5t-5 -20q-15 -47 -52 -73t-93 -26
q-55 0 -92 26t-52 73q-3 9 -5 20t-3.5 27.5t-2 41t-0.5 62.5q0 37 0.5 62t2 41.5t3.5 27.5t5 20q15 47 52 73t92 26q56 0 93 -26t52 -73q3 -9 5 -20t3.5 -27.5t2 -41.5t0.5 -62zM246 241v58.5t-1 34t-2 18.5t-2 11q-11 34 -49 34q-37 0 -48 -34q-2 -5 -2.5 -11t-1.5 -18.5
t-1 -34v-58.5v-58.5t1 -34t1.5 -18.5t2.5 -11q11 -34 48 -34q38 0 49 34q1 5 2 11t2 18.5t1 34v58.5z" />
    <glyph glyph-name="OE" unicode="&#x152;" horiz-adv-x="608" 
d="M289 0q-10 0 -10 10v11h-1q-11 -13 -31.5 -21.5t-49.5 -8.5q-53 0 -89.5 25.5t-53.5 76.5q-4 11 -6.5 24.5t-4 39.5t-2 69t-0.5 114t0.5 114t2 69t4 39.5t6.5 24.5q17 51 53.5 76.5t89.5 25.5q29 0 49.5 -8.5t31.5 -21.5h1v11q0 10 10 10h280q10 0 10 -10v-77
q0 -10 -10 -10h-177q-6 0 -6 -6v-179q0 -6 6 -6h153q10 0 10 -10v-77q0 -10 -10 -10h-153q-6 0 -6 -6v-186q0 -6 6 -6h177q10 0 10 -10v-77q0 -10 -10 -10h-280zM215 88q21 0 36.5 10.5t20.5 27.5q2 7 3.5 15t2 29t1 60.5t0.5 109.5t-0.5 109.5t-1 60.5t-2 29t-3.5 15
q-5 17 -20.5 27.5t-36.5 10.5q-22 0 -37.5 -10.5t-20.5 -27.5q-2 -7 -3.5 -15t-2.5 -29t-1 -60.5v-109.5v-109.5t1 -60.5t2.5 -29t3.5 -15q5 -17 20.5 -27.5t37.5 -10.5z" />
    <glyph glyph-name="oe" unicode="&#x153;" horiz-adv-x="589" 
d="M399 -9q-32 0 -59.5 10t-42.5 27h-2q-37 -37 -103 -37q-55 0 -92 26t-52 73q-3 9 -5 20t-3.5 27.5t-2 41t-0.5 62.5q0 37 0.5 62t2 41.5t3.5 27.5t5 20q15 47 52 73t92 26q65 0 103 -38h1q20 19 45 28.5t59 9.5q57 0 93 -26t51 -72q3 -9 5 -20t3.5 -30t2 -49.5t0.5 -77.5
q0 -10 -10 -10h-191q-6 0 -6 -6q0 -23 0.5 -37.5t1 -23t1.5 -13.5t2 -9q11 -33 47 -33q40 0 53 44q3 9 12 7l77 -15q9 -1 7 -12q-11 -54 -50.5 -85.5t-99.5 -31.5zM447 288q6 0 6 6q0 37 -2 51.5t-5 22.5q-5 14 -16 23t-30 9q-18 0 -29.5 -9t-16.5 -23q-3 -8 -4.5 -22.5
t-1.5 -51.5q0 -6 6 -6h93zM246 241v58.5t-1 34t-2 18.5t-2 11q-11 34 -49 34q-37 0 -48 -34q-2 -5 -2.5 -11t-1.5 -18.5t-1 -34v-58.5v-58.5t1 -34t1.5 -18.5t2.5 -11q11 -34 48 -34q38 0 49 34q1 5 2 11t2 18.5t1 34v58.5z" />
    <glyph glyph-name="Racute" unicode="&#x154;" horiz-adv-x="436" 
d="M311 0q-8 0 -11 7l-83 271h-17h-34q-6 0 -6 -6v-262q0 -10 -10 -10h-87q-10 0 -10 10v660q0 10 10 10h137q45 0 81 -10.5t61 -34.5t38.5 -62.5t13.5 -94.5q0 -67 -21.5 -109.5t-59.5 -64.5l96 -294q4 -10 -5 -10h-93zM201 373q45 0 65.5 22t20.5 83q0 60 -20.5 82.5
t-65.5 22.5h-35q-6 0 -6 -6v-198q0 -6 6 -6h35zM151 761q-5 0 -7 3t1 7l77 107q4 5 7 7.5t9 2.5h81q5 0 6.5 -3t-1.5 -7l-98 -107q-10 -10 -20 -10h-55z" />
    <glyph glyph-name="racute" unicode="&#x155;" horiz-adv-x="295" 
d="M119 555q-11 0 -6 10l69 125q6 10 16 10h81q5 0 6.5 -3t-1.5 -7l-90 -125q-8 -10 -18 -10h-57zM61 0q-10 0 -10 10v462q0 10 10 10h82q10 0 10 -10v-47h1q14 29 39 47.5t67 18.5h9t9 -1q10 -3 7 -11l-23 -85q-2 -6 -10 -6h-16q-38 0 -60.5 -23t-22.5 -71v-284
q0 -10 -10 -10h-82z" />
    <glyph glyph-name="Rcommaaccent" unicode="&#x156;" horiz-adv-x="436" 
d="M186 -221q-8 0 -8 10v147q0 10 10 10h70q10 0 10 -10v-55q0 -13 -8 -22l-61 -73q-6 -7 -13 -7zM311 0q-8 0 -11 7l-83 271h-17h-34q-6 0 -6 -6v-262q0 -10 -10 -10h-87q-10 0 -10 10v660q0 10 10 10h137q45 0 81 -10.5t61 -34.5t38.5 -62.5t13.5 -94.5
q0 -67 -21.5 -109.5t-59.5 -64.5l96 -294q4 -10 -5 -10h-93zM201 373q45 0 65.5 22t20.5 83q0 60 -20.5 82.5t-65.5 22.5h-35q-6 0 -6 -6v-198q0 -6 6 -6h35z" />
    <glyph glyph-name="rcommaaccent" unicode="&#x157;" horiz-adv-x="295" 
d="M66 -221q-8 0 -8 10v147q0 10 10 10h70q10 0 10 -10v-55q0 -13 -8 -22l-61 -73q-6 -7 -13 -7zM61 0q-10 0 -10 10v462q0 10 10 10h82q10 0 10 -10v-47h1q14 29 39 47.5t67 18.5h9t9 -1q10 -3 7 -11l-23 -85q-2 -6 -10 -6h-16q-38 0 -60.5 -23t-22.5 -71v-284
q0 -10 -10 -10h-82z" />
    <glyph glyph-name="Rcaron" unicode="&#x158;" horiz-adv-x="436" 
d="M166 747q-10 0 -17 10l-88 125q-3 4 -2 7t6 3h60q10 0 19 -10l47 -59h2l48 59q9 10 19 10h60q5 0 6 -3t-2 -7l-88 -125q-7 -10 -18 -10h-52zM311 0q-8 0 -11 7l-83 271h-17h-34q-6 0 -6 -6v-262q0 -10 -10 -10h-87q-10 0 -10 10v660q0 10 10 10h137q45 0 81 -10.5
t61 -34.5t38.5 -62.5t13.5 -94.5q0 -67 -21.5 -109.5t-59.5 -64.5l96 -294q4 -10 -5 -10h-93zM201 373q45 0 65.5 22t20.5 83q0 60 -20.5 82.5t-65.5 22.5h-35q-6 0 -6 -6v-198q0 -6 6 -6h35z" />
    <glyph glyph-name="rcaron" unicode="&#x159;" horiz-adv-x="295" 
d="M132 555q-10 0 -17 10l-88 125q-3 4 -2 7t6 3h60q10 0 19 -10l47 -60h2l48 60q9 10 19 10h60q5 0 6 -3t-2 -7l-88 -125q-7 -10 -18 -10h-52zM61 0q-10 0 -10 10v462q0 10 10 10h82q10 0 10 -10v-47h1q14 29 39 47.5t67 18.5h9t9 -1q10 -3 7 -11l-23 -85q-2 -6 -10 -6h-16
q-38 0 -60.5 -23t-22.5 -71v-284q0 -10 -10 -10h-82z" />
    <glyph glyph-name="Sacute" unicode="&#x15a;" horiz-adv-x="404" 
d="M375 195q0 -50 -9 -88.5t-29.5 -64t-54 -38.5t-81.5 -13q-166 0 -170 178q0 10 8 11l84 14q11 2 11 -9q2 -54 18.5 -77t51.5 -23q32 0 48 20.5t16 76.5q0 27 -3 46t-10.5 32.5t-20.5 22.5t-33 17l-41 16q-35 14 -58.5 31t-37.5 39.5t-20 52t-6 69.5q0 88 40 134.5
t125 46.5t123.5 -43t43.5 -123q0 -8 -9 -11l-80 -12q-11 -2 -11 8q-2 42 -16.5 64.5t-47.5 22.5q-62 0 -62 -82q0 -24 2.5 -40t10 -27.5t20.5 -19.5t33 -16l41 -16q33 -13 56.5 -29.5t38.5 -39.5t22 -55t7 -75zM166 761q-5 0 -7 3t1 7l77 107q4 5 7 7.5t9 2.5h81q5 0 6.5 -3
t-1.5 -7l-98 -107q-10 -10 -20 -10h-55z" />
    <glyph glyph-name="sacute" unicode="&#x15b;" horiz-adv-x="350" 
d="M134 555q-11 0 -6 10l69 125q6 10 16 10h81q5 0 6.5 -3t-1.5 -7l-90 -125q-8 -10 -18 -10h-57zM176 -9q-66 0 -105 33t-45 90q-2 10 8 12l72 14q10 2 12 -8q4 -29 20 -42.5t39 -13.5t37.5 14.5t14.5 40.5q0 23 -11 37.5t-41 25.5l-39 15q-48 18 -76 52.5t-28 88.5
q0 30 10 56t29 44.5t45 29.5t59 11q32 0 56.5 -9t41.5 -24t27.5 -35t13.5 -42q2 -11 -7 -13l-68 -13q-9 -1 -12 8q-5 19 -17 31.5t-35 12.5t-35 -14.5t-12 -35.5q0 -17 11 -31.5t41 -25.5l39 -15q57 -22 80.5 -57.5t23.5 -89.5q0 -32 -10 -58.5t-29 -46.5t-46.5 -31
t-63.5 -11z" />
    <glyph glyph-name="Scircumflex" unicode="&#x15c;" horiz-adv-x="404" 
d="M375 195q0 -50 -9 -88.5t-29.5 -64t-54 -38.5t-81.5 -13q-166 0 -170 178q0 10 8 11l84 14q11 2 11 -9q2 -54 18.5 -77t51.5 -23q32 0 48 20.5t16 76.5q0 27 -3 46t-10.5 32.5t-20.5 22.5t-33 17l-41 16q-35 14 -58.5 31t-37.5 39.5t-20 52t-6 69.5q0 88 40 134.5
t125 46.5t123.5 -43t43.5 -123q0 -8 -9 -11l-80 -12q-11 -2 -11 8q-2 42 -16.5 64.5t-47.5 22.5q-62 0 -62 -82q0 -24 2.5 -40t10 -27.5t20.5 -19.5t33 -16l41 -16q33 -13 56.5 -29.5t38.5 -39.5t22 -55t7 -75zM271 750q-10 0 -19 10l-48 60h-2l-47 -60q-9 -10 -19 -10h-60
q-5 0 -6 3t2 7l88 125q7 10 17 10h52q11 0 18 -10l88 -125q3 -4 2 -7t-6 -3h-60z" />
    <glyph glyph-name="scircumflex" unicode="&#x15d;" horiz-adv-x="350" 
d="M245 555q-10 0 -19 10l-48 60h-2l-47 -60q-9 -10 -19 -10h-60q-5 0 -6 3t2 7l88 125q7 10 17 10h52q11 0 18 -10l88 -125q3 -4 2 -7t-6 -3h-60zM176 -9q-66 0 -105 33t-45 90q-2 10 8 12l72 14q10 2 12 -8q4 -29 20 -42.5t39 -13.5t37.5 14.5t14.5 40.5q0 23 -11 37.5
t-41 25.5l-39 15q-48 18 -76 52.5t-28 88.5q0 30 10 56t29 44.5t45 29.5t59 11q32 0 56.5 -9t41.5 -24t27.5 -35t13.5 -42q2 -11 -7 -13l-68 -13q-9 -1 -12 8q-5 19 -17 31.5t-35 12.5t-35 -14.5t-12 -35.5q0 -17 11 -31.5t41 -25.5l39 -15q57 -22 80.5 -57.5t23.5 -89.5
q0 -32 -10 -58.5t-29 -46.5t-46.5 -31t-63.5 -11z" />
    <glyph glyph-name="Scedilla" unicode="&#x15e;" horiz-adv-x="404" 
d="M163 -6q-129 18 -132 175q0 10 8 11l84 14q11 2 11 -9q2 -54 18.5 -77t51.5 -23q32 0 48 20.5t16 76.5q0 27 -3 46t-10.5 32.5t-20.5 22.5t-33 17l-41 16q-35 14 -58.5 31t-37.5 39.5t-20 52t-6 69.5q0 88 40 134.5t125 46.5t123.5 -43t43.5 -123q0 -8 -9 -11l-80 -12
q-11 -2 -11 8q-2 42 -16.5 64.5t-47.5 22.5q-62 0 -62 -82q0 -24 2.5 -40t10 -27.5t20.5 -19.5t33 -16l41 -16q33 -13 56.5 -29.5t38.5 -39.5t22 -55t7 -75q0 -89 -30 -139.5t-102 -61.5l-49 -139q-4 -10 -16 -10h-66q-10 0 -7 10z" />
    <glyph glyph-name="scedilla" unicode="&#x15f;" horiz-adv-x="350" 
d="M136 -5q-48 9 -76.5 40t-33.5 79q-2 10 8 12l72 14q10 2 12 -8q4 -29 20 -42.5t39 -13.5t37.5 14.5t14.5 40.5q0 23 -11 37.5t-41 25.5l-39 15q-48 18 -76 52.5t-28 88.5q0 30 10 56t29 44.5t45 29.5t59 11q32 0 56.5 -9t41.5 -24t27.5 -35t13.5 -42q2 -11 -7 -13
l-68 -13q-9 -1 -12 8q-5 19 -17 31.5t-35 12.5t-35 -14.5t-12 -35.5q0 -17 11 -31.5t41 -25.5l39 -15q57 -22 80.5 -57.5t23.5 -89.5t-28 -93t-81 -50l-49 -140q-4 -10 -16 -10h-66q-10 0 -7 10z" />
    <glyph glyph-name="Scaron" unicode="&#x160;" horiz-adv-x="404" 
d="M375 195q0 -50 -9 -88.5t-29.5 -64t-54 -38.5t-81.5 -13q-166 0 -170 178q0 10 8 11l84 14q11 2 11 -9q2 -54 18.5 -77t51.5 -23q32 0 48 20.5t16 76.5q0 27 -3 46t-10.5 32.5t-20.5 22.5t-33 17l-41 16q-35 14 -58.5 31t-37.5 39.5t-20 52t-6 69.5q0 88 40 134.5
t125 46.5t123.5 -43t43.5 -123q0 -8 -9 -11l-80 -12q-11 -2 -11 8q-2 42 -16.5 64.5t-47.5 22.5q-62 0 -62 -82q0 -24 2.5 -40t10 -27.5t20.5 -19.5t33 -16l41 -16q33 -13 56.5 -29.5t38.5 -39.5t22 -55t7 -75zM168 747q-10 0 -17 10l-88 125q-3 4 -2 7t6 3h60q10 0 19 -10
l47 -59h2l48 59q9 10 19 10h60q5 0 6 -3t-2 -7l-88 -125q-7 -10 -18 -10h-52z" />
    <glyph glyph-name="scaron" unicode="&#x161;" horiz-adv-x="350" 
d="M151 555q-10 0 -17 10l-88 125q-3 4 -2 7t6 3h60q10 0 19 -10l47 -60h2l48 60q9 10 19 10h60q5 0 6 -3t-2 -7l-88 -125q-7 -10 -18 -10h-52zM176 -9q-66 0 -105 33t-45 90q-2 10 8 12l72 14q10 2 12 -8q4 -29 20 -42.5t39 -13.5t37.5 14.5t14.5 40.5q0 23 -11 37.5
t-41 25.5l-39 15q-48 18 -76 52.5t-28 88.5q0 30 10 56t29 44.5t45 29.5t59 11q32 0 56.5 -9t41.5 -24t27.5 -35t13.5 -42q2 -11 -7 -13l-68 -13q-9 -1 -12 8q-5 19 -17 31.5t-35 12.5t-35 -14.5t-12 -35.5q0 -17 11 -31.5t41 -25.5l39 -15q57 -22 80.5 -57.5t23.5 -89.5
q0 -32 -10 -58.5t-29 -46.5t-46.5 -31t-63.5 -11z" />
    <glyph glyph-name="Tcommaaccent" unicode="&#x162;" horiz-adv-x="375" 
d="M153 -221q-8 0 -8 10v147q0 10 10 10h70q10 0 10 -10v-55q0 -13 -8 -22l-61 -73q-6 -7 -13 -7zM144 0q-10 0 -10 10v567q0 6 -6 6h-104q-10 0 -10 10v77q0 10 10 10h327q10 0 10 -10v-77q0 -10 -10 -10h-104q-6 0 -6 -6v-567q0 -10 -10 -10h-87z" />
    <glyph glyph-name="tcommaaccent" unicode="&#x163;" horiz-adv-x="255" 
d="M112 -221q-8 0 -8 10v147q0 10 10 10h70q10 0 10 -10v-55q0 -13 -8 -22l-61 -73q-6 -7 -13 -7zM189 -6q-63 0 -93 30.5t-30 102.5v271q0 6 -6 6h-29q-10 0 -10 10v58q0 10 10 10h29q6 0 6 6v132q0 10 10 10h82q10 0 10 -10v-132q0 -6 6 -6h45q10 0 10 -10v-58
q0 -10 -10 -10h-45q-6 0 -6 -6v-269q0 -41 39 -41h12q10 0 10 -10v-74q0 -10 -10 -10h-30z" />
    <glyph glyph-name="Tcaron" unicode="&#x164;" horiz-adv-x="375" 
d="M163 747q-10 0 -17 10l-88 125q-3 4 -2 7t6 3h60q10 0 19 -10l47 -59h2l48 59q9 10 19 10h60q5 0 6 -3t-2 -7l-88 -125q-7 -10 -18 -10h-52zM144 0q-10 0 -10 10v567q0 6 -6 6h-104q-10 0 -10 10v77q0 10 10 10h327q10 0 10 -10v-77q0 -10 -10 -10h-104q-6 0 -6 -6v-567
q0 -10 -10 -10h-87z" />
    <glyph glyph-name="tcaron" unicode="&#x165;" horiz-adv-x="255" 
d="M208 511q-9 0 -9 9v150q0 10 10 10h69q10 0 10 -10v-57q0 -8 -1.5 -12.5t-5.5 -9.5l-60 -73q-6 -7 -13 -7zM189 -6q-63 0 -93 30.5t-30 102.5v271q0 6 -6 6h-29q-10 0 -10 10v58q0 10 10 10h29q6 0 6 6v132q0 10 10 10h82q10 0 10 -10v-132q0 -6 6 -6h45q10 0 10 -10v-58
q0 -10 -10 -10h-45q-6 0 -6 -6v-269q0 -41 39 -41h12q10 0 10 -10v-74q0 -10 -10 -10h-30z" />
    <glyph glyph-name="Tbar" unicode="&#x166;" horiz-adv-x="375" 
d="M144 0q-10 0 -10 10v343q0 6 -6 6h-60q-10 0 -10 10v71q0 10 10 10h60q6 0 6 6v121q0 6 -6 6h-104q-10 0 -10 10v77q0 10 10 10h327q10 0 10 -10v-77q0 -10 -10 -10h-104q-6 0 -6 -6v-121q0 -6 6 -6h60q10 0 10 -10v-71q0 -10 -10 -10h-60q-6 0 -6 -6v-343q0 -10 -10 -10
h-87z" />
    <glyph glyph-name="tbar" unicode="&#x167;" horiz-adv-x="255" 
d="M189 -6q-63 0 -93 30.5t-30 102.5v128q0 6 -6 6h-21q-10 0 -10 10v56q0 10 10 10h21q6 0 6 6v55q0 6 -6 6h-29q-10 0 -10 10v58q0 10 10 10h29q6 0 6 6v132q0 10 10 10h82q10 0 10 -10v-132q0 -6 6 -6h45q10 0 10 -10v-58q0 -10 -10 -10h-45q-6 0 -6 -6v-55q0 -6 6 -6h28
q10 0 10 -10v-56q0 -10 -10 -10h-28q-6 0 -6 -6v-126q0 -41 39 -41h12q10 0 10 -10v-74q0 -10 -10 -10h-30z" />
    <glyph glyph-name="Utilde" unicode="&#x168;" horiz-adv-x="443" 
d="M266 763q-17 0 -28 5t-24 13q-12 8 -19.5 12t-18.5 4q-16 0 -26.5 -7.5t-21.5 -18.5q-4 -4 -8 -2.5t-4 6.5v61q0 9 10 19t22 17t29 7t28 -5t23 -13q13 -8 20.5 -12t18.5 -4q16 0 26.5 7.5t21.5 18.5q4 4 8 2.5t4 -6.5v-61q0 -5 -2 -9t-8 -10q-10 -10 -22 -17t-29 -7z
M222 -9q-79 0 -124.5 45.5t-45.5 136.5v497q0 10 10 10h87q10 0 10 -10v-511q0 -32 16.5 -51.5t46.5 -19.5t46 19.5t16 51.5v511q0 10 10 10h87q10 0 10 -10v-497q0 -91 -45 -136.5t-124 -45.5z" />
    <glyph glyph-name="utilde" unicode="&#x169;" horiz-adv-x="403" 
d="M260 0q-10 0 -10 10v38h-1q-13 -25 -34.5 -41t-56.5 -16q-54 0 -82.5 35t-28.5 115v331q0 10 10 10h82q10 0 10 -10v-317q0 -70 50 -70q51 0 51 70v317q0 10 10 10h82q10 0 10 -10v-462q0 -10 -10 -10h-82zM247 567q-17 0 -28 5t-24 13q-12 8 -19.5 12t-18.5 4
q-16 0 -26.5 -7.5t-21.5 -18.5q-4 -4 -8 -2.5t-4 6.5v61q0 9 10 19t22 17t29 7t28 -5t23 -13q13 -8 20.5 -12t18.5 -4q16 0 26.5 7t21.5 19q4 4 8 2.5t4 -6.5v-61q0 -5 -2 -9t-8 -10q-10 -10 -22 -17t-29 -7z" />
    <glyph glyph-name="Umacron" unicode="&#x16a;" horiz-adv-x="443" 
d="M119 780q-10 0 -10 10v60q0 10 10 10h205q10 0 10 -10v-60q0 -10 -10 -10h-205zM222 -9q-79 0 -124.5 45.5t-45.5 136.5v497q0 10 10 10h87q10 0 10 -10v-511q0 -32 16.5 -51.5t46.5 -19.5t46 19.5t16 51.5v511q0 10 10 10h87q10 0 10 -10v-497q0 -91 -45 -136.5
t-124 -45.5z" />
    <glyph glyph-name="umacron" unicode="&#x16b;" horiz-adv-x="403" 
d="M260 0q-10 0 -10 10v38h-1q-13 -25 -34.5 -41t-56.5 -16q-54 0 -82.5 35t-28.5 115v331q0 10 10 10h82q10 0 10 -10v-317q0 -70 50 -70q51 0 51 70v317q0 10 10 10h82q10 0 10 -10v-462q0 -10 -10 -10h-82zM100 588q-10 0 -10 10v60q0 10 10 10h205q10 0 10 -10v-60
q0 -10 -10 -10h-205z" />
    <glyph glyph-name="Ubreve" unicode="&#x16c;" horiz-adv-x="443" 
d="M221 742q-30 0 -52 9.5t-37.5 26t-24 38t-10.5 45.5q0 10 10 10h45q7 0 10 -10q8 -21 22 -34.5t37 -13.5t37.5 13.5t22.5 34.5q3 10 10 10h45q10 0 10 -10q-2 -24 -10.5 -45.5t-24 -38t-38 -26t-52.5 -9.5zM222 -9q-79 0 -124.5 45.5t-45.5 136.5v497q0 10 10 10h87
q10 0 10 -10v-511q0 -32 16.5 -51.5t46.5 -19.5t46 19.5t16 51.5v511q0 10 10 10h87q10 0 10 -10v-497q0 -91 -45 -136.5t-124 -45.5z" />
    <glyph glyph-name="ubreve" unicode="&#x16d;" horiz-adv-x="403" 
d="M260 0q-10 0 -10 10v38h-1q-13 -25 -34.5 -41t-56.5 -16q-54 0 -82.5 35t-28.5 115v331q0 10 10 10h82q10 0 10 -10v-317q0 -70 50 -70q51 0 51 70v317q0 10 10 10h82q10 0 10 -10v-462q0 -10 -10 -10h-82zM202 556q-59 0 -89.5 35t-34.5 84q0 10 10 10h45q7 0 10 -10
q8 -22 22 -35.5t37 -13.5t37.5 13.5t22.5 35.5q3 10 10 10h45q10 0 10 -10q-4 -49 -34.5 -84t-90.5 -35z" />
    <glyph glyph-name="Uring" unicode="&#x16e;" horiz-adv-x="443" 
d="M222 -9q-79 0 -124.5 45.5t-45.5 136.5v497q0 10 10 10h87q10 0 10 -10v-511q0 -32 16.5 -51.5t46.5 -19.5t46 19.5t16 51.5v511q0 10 10 10h87q10 0 10 -10v-497q0 -91 -45 -136.5t-124 -45.5zM221 721q-38 0 -64 26t-26 65q0 38 26 64t64 26q39 0 65 -26t26 -64
q0 -39 -26 -65t-65 -26zM221 764q20 0 33 14t13 34t-13 33.5t-33 13.5t-32.5 -13.5t-12.5 -33.5t12.5 -34t32.5 -14z" />
    <glyph glyph-name="uring" unicode="&#x16f;" horiz-adv-x="403" 
d="M202 539q-38 0 -64 26t-26 64q0 39 26 65t64 26q39 0 65 -26t26 -65q0 -38 -26 -64t-65 -26zM202 582q20 0 33 13.5t13 33.5q0 21 -13 34.5t-33 13.5t-32.5 -13.5t-12.5 -34.5q0 -20 12.5 -33.5t32.5 -13.5zM260 0q-10 0 -10 10v38h-1q-13 -25 -34.5 -41t-56.5 -16
q-54 0 -82.5 35t-28.5 115v331q0 10 10 10h82q10 0 10 -10v-317q0 -70 50 -70q51 0 51 70v317q0 10 10 10h82q10 0 10 -10v-462q0 -10 -10 -10h-82z" />
    <glyph glyph-name="Uhungarumlaut" unicode="&#x170;" horiz-adv-x="443" 
d="M222 -9q-79 0 -124.5 45.5t-45.5 136.5v497q0 10 10 10h87q10 0 10 -10v-511q0 -32 16.5 -51.5t46.5 -19.5t46 19.5t16 51.5v511q0 10 10 10h87q10 0 10 -10v-497q0 -91 -45 -136.5t-124 -45.5zM258 761q-5 0 -6.5 2.5t1.5 7.5l69 107q7 10 17 10h68q5 0 6 -3t-2 -7
l-84 -107q-9 -10 -19 -10h-50zM125 761q-5 0 -6.5 2.5t1.5 7.5l70 107q7 10 17 10h67q5 0 6 -3t-2 -7l-84 -107q-9 -10 -19 -10h-50z" />
    <glyph glyph-name="uhungarumlaut" unicode="&#x171;" horiz-adv-x="403" 
d="M260 0q-10 0 -10 10v38h-1q-13 -25 -34.5 -41t-56.5 -16q-54 0 -82.5 35t-28.5 115v331q0 10 10 10h82q10 0 10 -10v-317q0 -70 50 -70q51 0 51 70v317q0 10 10 10h82q10 0 10 -10v-462q0 -10 -10 -10h-82zM238 555q-11 0 -6 10l61 125q4 10 16 10h67q5 0 6 -3t-1 -7
l-75 -125q-6 -10 -17 -10h-51zM106 555q-11 0 -6 10l60 125q4 10 16 10h67q5 0 6 -3t-1 -7l-74 -125q-6 -10 -18 -10h-50z" />
    <glyph glyph-name="Uogonek" unicode="&#x172;" horiz-adv-x="443" 
d="M225 -190q-41 0 -65.5 21t-24.5 62q0 26 9.5 48.5t33.5 53.5q-59 11 -92.5 55t-33.5 123v497q0 10 10 10h87q10 0 10 -10v-511q0 -32 16.5 -51.5t46.5 -19.5t46 19.5t16 51.5v511q0 10 10 10h87q10 0 10 -10v-497q0 -78 -33.5 -122.5t-90.5 -55.5q-31 -35 -39.5 -53.5
t-8.5 -32.5q0 -24 19 -24q10 0 18 5q9 6 13 -4l21 -46q3 -8 -5 -13q-10 -7 -27 -12t-33 -5z" />
    <glyph glyph-name="uogonek" unicode="&#x173;" horiz-adv-x="403" 
d="M284 -190q-41 0 -65.5 21t-24.5 62q0 33 17 59.5t42 49.5q-3 3 -3 8v38h-1q-13 -25 -34.5 -41t-56.5 -16q-54 0 -82.5 35t-28.5 115v331q0 10 10 10h82q10 0 10 -10v-317q0 -70 50 -70q51 0 51 70v317q0 10 10 10h82q10 0 10 -10v-462q0 -7 -7 -11q-29 -19 -48 -44.5
t-19 -45.5q0 -24 19 -24q10 0 18 5q9 6 13 -4l21 -46q3 -8 -5 -13q-10 -7 -27 -12t-33 -5z" />
    <glyph glyph-name="Wcircumflex" unicode="&#x174;" horiz-adv-x="579" 
d="M371 0q-8 0 -10 10l-69 437h-2l-72 -437q-2 -10 -10 -10h-75q-8 0 -10 10l-105 660q-2 10 9 10h86q10 0 11 -10l49 -443h3l73 443q1 10 11 10h59q10 0 11 -10l73 -443h3l52 443q1 10 11 10h83q11 0 9 -10l-106 -660q-2 -10 -10 -10h-74zM356 750q-10 0 -19 10l-48 60h-2
l-47 -60q-9 -10 -19 -10h-60q-5 0 -6 3t2 7l88 125q7 10 17 10h52q11 0 18 -10l88 -125q3 -4 2 -7t-6 -3h-60z" />
    <glyph glyph-name="wcircumflex" unicode="&#x175;" horiz-adv-x="541" 
d="M337 555q-10 0 -19 10l-48 60h-2l-47 -60q-9 -10 -19 -10h-60q-5 0 -6 3t2 7l88 125q7 10 17 10h52q11 0 18 -10l88 -125q3 -4 2 -7t-6 -3h-60zM333 0q-11 0 -12 10l-50 280h-2l-49 -280q-1 -10 -12 -10h-70q-10 0 -11 10l-109 462q-3 10 7 10h84q9 0 11 -10l54 -298h1
l56 298q2 10 11 10h59q9 0 11 -10l54 -298h1l55 298q2 10 11 10h83q10 0 7 -10l-108 -462q-3 -10 -12 -10h-70z" />
    <glyph glyph-name="Ycircumflex" unicode="&#x176;" horiz-adv-x="386" 
d="M150 0q-10 0 -10 10v269l-130 391q-3 10 8 10h88q9 0 12 -10l76 -263h3l74 263q3 10 12 10h86q11 0 8 -10l-130 -391v-269q0 -10 -10 -10h-87zM262 750q-10 0 -19 10l-48 60h-2l-47 -60q-9 -10 -19 -10h-60q-5 0 -6 3t2 7l88 125q7 10 17 10h52q11 0 18 -10l88 -125
q3 -4 2 -7t-6 -3h-60z" />
    <glyph glyph-name="ycircumflex" unicode="&#x177;" horiz-adv-x="370" 
d="M62 -180q-10 0 -10 10v74q0 10 10 10l14 1q22 2 33.5 13.5t19.5 41.5l11 48l-120 454q-3 10 7 10h84q9 0 11 -10l64 -298h1l64 298q2 10 11 10h81q10 0 7 -10l-127 -500q-12 -47 -25 -77t-29.5 -46.5t-39 -22.5t-52.5 -6h-15zM254 555q-10 0 -19 10l-48 60h-2l-47 -60
q-9 -10 -19 -10h-60q-5 0 -6 3t2 7l88 125q7 10 17 10h52q11 0 18 -10l88 -125q3 -4 2 -7t-6 -3h-60z" />
    <glyph glyph-name="Ydieresis" unicode="&#x178;" horiz-adv-x="386" 
d="M150 0q-10 0 -10 10v269l-130 391q-3 10 8 10h88q9 0 12 -10l76 -263h3l74 263q3 10 12 10h86q11 0 8 -10l-130 -391v-269q0 -10 -10 -10h-87zM238 769q-10 0 -10 10v86q0 10 10 10h65q10 0 10 -10v-86q0 -10 -10 -10h-65zM86 769q-10 0 -10 10v86q0 10 10 10h65
q10 0 10 -10v-86q0 -10 -10 -10h-65z" />
    <glyph glyph-name="Zacute" unicode="&#x179;" horiz-adv-x="370" 
d="M45 0q-10 0 -10 10v72q0 4 2 10l187 489v2h-169q-10 0 -10 10v77q0 10 10 10h271q10 0 10 -10v-74q0 -4 -2 -10l-184 -487v-2h176q10 0 10 -10v-77q0 -10 -10 -10h-281zM147 761q-5 0 -7 3t1 7l77 107q4 5 7 7.5t9 2.5h81q5 0 6.5 -3t-1.5 -7l-98 -107q-10 -10 -20 -10
h-55z" />
    <glyph glyph-name="zacute" unicode="&#x17a;" horiz-adv-x="320" 
d="M130 555q-11 0 -6 10l69 125q6 10 16 10h81q5 0 6.5 -3t-1.5 -7l-90 -125q-8 -10 -18 -10h-57zM38 0q-10 0 -10 10v68q0 7 3 13l149 299v2h-132q-10 0 -10 10v70q0 10 10 10h238q10 0 10 -10v-57q0 -7 -3 -13l-155 -309v-2h148q10 0 10 -10v-71q0 -10 -10 -10h-248z" />
    <glyph glyph-name="Zdotaccent" unicode="&#x17b;" horiz-adv-x="370" 
d="M148 769q-10 0 -10 10v86q0 10 10 10h82q10 0 10 -10v-86q0 -10 -10 -10h-82zM45 0q-10 0 -10 10v72q0 4 2 10l187 489v2h-169q-10 0 -10 10v77q0 10 10 10h271q10 0 10 -10v-74q0 -4 -2 -10l-184 -487v-2h176q10 0 10 -10v-77q0 -10 -10 -10h-281z" />
    <glyph glyph-name="zdotaccent" unicode="&#x17c;" horiz-adv-x="320" 
d="M38 0q-10 0 -10 10v68q0 7 3 13l149 299v2h-132q-10 0 -10 10v70q0 10 10 10h238q10 0 10 -10v-57q0 -7 -3 -13l-155 -309v-2h148q10 0 10 -10v-71q0 -10 -10 -10h-248zM122 574q-10 0 -10 10v86q0 10 10 10h82q10 0 10 -10v-86q0 -10 -10 -10h-82z" />
    <glyph glyph-name="Zcaron" unicode="&#x17d;" horiz-adv-x="370" 
d="M163 747q-10 0 -17 10l-88 125q-3 4 -2 7t6 3h60q10 0 19 -10l47 -59h2l48 59q9 10 19 10h60q5 0 6 -3t-2 -7l-88 -125q-7 -10 -18 -10h-52zM45 0q-10 0 -10 10v72q0 4 2 10l187 489v2h-169q-10 0 -10 10v77q0 10 10 10h271q10 0 10 -10v-74q0 -4 -2 -10l-184 -487v-2
h176q10 0 10 -10v-77q0 -10 -10 -10h-281z" />
    <glyph glyph-name="zcaron" unicode="&#x17e;" horiz-adv-x="320" 
d="M137 555q-10 0 -17 10l-88 125q-3 4 -2 7t6 3h60q10 0 19 -10l47 -60h2l48 60q9 10 19 10h60q5 0 6 -3t-2 -7l-88 -125q-7 -10 -18 -10h-52zM38 0q-10 0 -10 10v68q0 7 3 13l149 299v2h-132q-10 0 -10 10v70q0 10 10 10h238q10 0 10 -10v-57q0 -7 -3 -13l-155 -309v-2
h148q10 0 10 -10v-71q0 -10 -10 -10h-248z" />
    <glyph glyph-name="florin" unicode="&#x192;" 
d="M260 325l-46 -343q-11 -83 -48.5 -122.5t-116.5 -39.5h-21q-10 0 -10 10v74q0 10 10 10h15q32 0 48 13.5t21 49.5l47 348h-67q-10 0 -10 10v62q0 10 10 10h78l15 111q11 83 48.5 122.5t116.5 39.5h21q10 0 10 -10v-74q0 -10 -10 -10h-15q-32 0 -48 -13.5t-21 -49.5
l-16 -116h67q10 0 10 -10v-62q0 -10 -10 -10h-78z" />
    <glyph glyph-name="Aringacute" unicode="&#x1fa;" horiz-adv-x="421" 
d="M181 773q-5 0 -6 3t2 7l82 95q5 5 9 7.5t12 2.5h77q5 0 6.5 -3t-1.5 -7l-103 -95q-10 -10 -20 -10h-58zM316 0q-9 0 -11 10l-27 137h-135l-27 -137q-2 -10 -11 -10h-85q-10 0 -8 10l127 569q3 9 10 10q-27 25 -27 67q0 39 25.5 64.5t64.5 25.5t64.5 -25.5t25.5 -64.5
q0 -20 -7.5 -37.5t-20.5 -29.5q9 0 11 -10l124 -569q2 -10 -8 -10h-85zM212 609q20 0 32.5 13.5t12.5 33.5t-12.5 33.5t-32.5 13.5t-32.5 -13.5t-12.5 -33.5t12.5 -33.5t32.5 -13.5zM160 237h101l-48 253h-3z" />
    <glyph glyph-name="aringacute" unicode="&#x1fb;" horiz-adv-x="383" 
d="M157 773q-5 0 -6 3t2 7l82 95q5 5 9 7.5t12 2.5h77q5 0 6.5 -3t-1.5 -7l-104 -95q-5 -5 -9 -7.5t-10 -2.5h-58zM249 0q-10 0 -10 10v38h-1q-9 -26 -32.5 -41.5t-56.5 -15.5q-21 0 -41.5 7t-37 23.5t-26.5 44.5t-10 69q0 43 12 72t32 47t46.5 26t56.5 8h52q6 0 6 6v28
q0 40 -14 58.5t-52 18.5q-24 0 -42.5 -7.5t-37.5 -20.5q-10 -7 -15 4l-26 59q-4 7 3 14q24 19 57 31t74 12q82 0 116.5 -38.5t34.5 -126.5v-316q0 -10 -10 -10h-78zM179 75q27 0 43.5 19t16.5 49v57q0 6 -6 6h-35q-37 0 -52 -18.5t-15 -48.5q0 -64 48 -64zM191 539
q-38 0 -64 26t-26 64q0 39 26 65t64 26q39 0 65 -26t26 -65q0 -38 -26 -64t-65 -26zM191 582q20 0 33 13.5t13 33.5q0 21 -13 34.5t-33 13.5t-32.5 -13.5t-12.5 -34.5q0 -20 12.5 -33.5t32.5 -13.5z" />
    <glyph glyph-name="AEacute" unicode="&#x1fc;" horiz-adv-x="656" 
d="M320 761q-5 0 -7 3t1 7l77 107q4 5 7 7.5t9 2.5h81q5 0 6.5 -3t-1.5 -7l-98 -107q-10 -10 -20 -10h-55zM339 0q-10 0 -10 10v131q0 6 -6 6h-157l-50 -137q-3 -10 -13 -10h-84q-10 0 -7 10l247 660q3 10 11 10h347q10 0 10 -10v-77q0 -10 -10 -10h-175q-6 0 -6 -6v-179
q0 -6 6 -6h152q10 0 10 -10v-77q0 -10 -10 -10h-152q-6 0 -6 -6v-186q0 -6 6 -6h175q10 0 10 -10v-77q0 -10 -10 -10h-278zM199 237h124q6 0 6 6v339h-3z" />
    <glyph glyph-name="aeacute" unicode="&#x1fd;" horiz-adv-x="578" 
d="M258 555q-11 0 -6 10l69 125q6 10 16 10h81q5 0 6.5 -3t-1.5 -7l-90 -125q-8 -10 -18 -10h-57zM388 -9q-41 0 -72 13t-51 45h-1q-25 -34 -52 -46t-63 -12q-20 0 -40.5 7t-37 23.5t-27 44.5t-10.5 69q0 43 12 72t32 47t46.5 26t56.5 8h52q6 0 6 6v28q0 40 -14 58.5
t-52 18.5q-24 0 -42.5 -7.5t-37.5 -20.5q-10 -7 -15 4l-26 59q-4 7 3 14q24 19 57 31t74 12q71 0 106 -33h1q17 17 42 25t54 8q57 0 93 -25t51 -71q3 -9 5 -20t3.5 -30.5t2 -50t0.5 -78.5q0 -10 -10 -10h-191q-6 0 -6 -6q0 -23 0.5 -37t1 -23t1.5 -14t2 -9q11 -33 47 -33
q40 0 53 44q3 9 12 7l77 -15q9 -1 7 -12q-11 -54 -50.5 -85.5t-99.5 -31.5zM436 288q6 0 6 6q0 37 -2 51.5t-5 22.5q-5 14 -16 23t-30 9q-18 0 -29.5 -9t-16.5 -23q-3 -8 -4.5 -22.5t-1.5 -51.5q0 -6 6 -6h93zM179 75q27 0 43.5 19t16.5 49v57q0 6 -6 6h-35q-37 0 -52 -18.5
t-15 -48.5q0 -64 48 -64z" />
    <glyph glyph-name="Oslashacute" unicode="&#x1fe;" horiz-adv-x="429" 
d="M40 -30q-11 0 -6 10l35 82q-10 18 -15 35q-4 11 -6.5 24t-4 38t-2 67.5t-0.5 113.5t0.5 113.5t2 67.5t4 38t6.5 24q17 51 57.5 78.5t103.5 27.5q69 0 113 -36l21 48q4 9 13 9h26q10 0 7 -10l-36 -82q5 -8 9 -17t7 -18q4 -11 6.5 -24t4 -38t2 -67.5t0.5 -113.5
t-0.5 -113.5t-2 -67.5t-4 -38t-6.5 -24q-17 -51 -57 -78.5t-103 -27.5q-71 0 -115 35l-20 -47q-4 -9 -13 -9h-27zM150 238l125 305l-3 11q-5 17 -20.5 27.5t-36.5 10.5q-22 0 -37.5 -10.5t-20.5 -27.5q-2 -7 -3.5 -15t-2.5 -29t-1 -60.5v-109.5v-102zM215 88q21 0 36.5 10.5
t20.5 27.5q2 7 3.5 15t2 29t1 60.5t0.5 109.5v101l-125 -304l3 -11q5 -17 20.5 -27.5t37.5 -10.5zM175 761q-5 0 -7 3t1 7l77 107q4 5 7 7.5t9 2.5h81q5 0 6.5 -3t-1.5 -7l-98 -107q-10 -10 -20 -10h-55z" />
    <glyph glyph-name="oslashacute" unicode="&#x1ff;" horiz-adv-x="385" 
d="M348 241q0 -38 -0.5 -62.5t-2 -41t-3.5 -27.5t-5 -20q-15 -47 -52 -73t-93 -26q-55 0 -92 26l-19 -37q-5 -10 -13 -10h-22q-5 0 -7 2.5t0 7.5l33 64q-17 20 -24 46q-3 9 -5 20t-3.5 27.5t-2 41t-0.5 62.5q0 37 0.5 62t2 41.5t3.5 27.5t5 20q15 47 52 73t92 26t93 -26
l19 37q5 10 13 10h22q5 0 7 -2.5t0 -7.5l-33 -65q15 -20 24 -45q3 -9 5 -20t3.5 -27.5t2 -41.5t0.5 -62zM138 241q0 -25 -0.5 -42t0.5 -30l99 206q-14 23 -45 23q-38 0 -49 -34q-2 -5 -2.5 -11t-1.5 -19t-1 -34.5v-58.5zM247 310l-99 -204q14 -22 44 -22q39 0 50 34
q1 5 2 11t2 19t1 34.5v58.5v69zM156 555q-11 0 -6 10l69 125q6 10 16 10h81q5 0 6.5 -3t-1.5 -7l-90 -125q-8 -10 -18 -10h-57z" />
    <glyph glyph-name="Scommaaccent" unicode="&#x218;" horiz-adv-x="404" 
d="M167 -221q-8 0 -8 10v147q0 10 10 10h70q10 0 10 -10v-55q0 -13 -8 -22l-61 -73q-6 -7 -13 -7zM375 195q0 -50 -9 -88.5t-29.5 -64t-54 -38.5t-81.5 -13q-166 0 -170 178q0 10 8 11l84 14q11 2 11 -9q2 -54 18.5 -77t51.5 -23q32 0 48 20.5t16 76.5q0 27 -3 46
t-10.5 32.5t-20.5 22.5t-33 17l-41 16q-35 14 -58.5 31t-37.5 39.5t-20 52t-6 69.5q0 88 40 134.5t125 46.5t123.5 -43t43.5 -123q0 -8 -9 -11l-80 -12q-11 -2 -11 8q-2 42 -16.5 64.5t-47.5 22.5q-62 0 -62 -82q0 -24 2.5 -40t10 -27.5t20.5 -19.5t33 -16l41 -16
q33 -13 56.5 -29.5t38.5 -39.5t22 -55t7 -75z" />
    <glyph glyph-name="scommaaccent" unicode="&#x219;" horiz-adv-x="350" 
d="M140 -221q-8 0 -8 10v147q0 10 10 10h70q10 0 10 -10v-55q0 -13 -8 -22l-61 -73q-6 -7 -13 -7zM176 -9q-66 0 -105 33t-45 90q-2 10 8 12l72 14q10 2 12 -8q4 -29 20 -42.5t39 -13.5t37.5 14.5t14.5 40.5q0 23 -11 37.5t-41 25.5l-39 15q-48 18 -76 52.5t-28 88.5
q0 30 10 56t29 44.5t45 29.5t59 11q32 0 56.5 -9t41.5 -24t27.5 -35t13.5 -42q2 -11 -7 -13l-68 -13q-9 -1 -12 8q-5 19 -17 31.5t-35 12.5t-35 -14.5t-12 -35.5q0 -17 11 -31.5t41 -25.5l39 -15q57 -22 80.5 -57.5t23.5 -89.5q0 -32 -10 -58.5t-29 -46.5t-46.5 -31
t-63.5 -11z" />
    <glyph glyph-name="uni021A" unicode="&#x21a;" horiz-adv-x="375" 
d="M153 -221q-8 0 -8 10v147q0 10 10 10h70q10 0 10 -10v-55q0 -13 -8 -22l-61 -73q-6 -7 -13 -7zM144 0q-10 0 -10 10v567q0 6 -6 6h-104q-10 0 -10 10v77q0 10 10 10h327q10 0 10 -10v-77q0 -10 -10 -10h-104q-6 0 -6 -6v-567q0 -10 -10 -10h-87z" />
    <glyph glyph-name="uni021B" unicode="&#x21b;" horiz-adv-x="255" 
d="M112 -221q-8 0 -8 10v147q0 10 10 10h70q10 0 10 -10v-55q0 -13 -8 -22l-61 -73q-6 -7 -13 -7zM189 -6q-63 0 -93 30.5t-30 102.5v271q0 6 -6 6h-29q-10 0 -10 10v58q0 10 10 10h29q6 0 6 6v132q0 10 10 10h82q10 0 10 -10v-132q0 -6 6 -6h45q10 0 10 -10v-58
q0 -10 -10 -10h-45q-6 0 -6 -6v-269q0 -41 39 -41h12q10 0 10 -10v-74q0 -10 -10 -10h-30z" />
    <glyph glyph-name="uni0237" unicode="&#x237;" horiz-adv-x="204" 
d="M-4 -180q-10 0 -10 10v74q0 10 10 10l14 1q22 2 31.5 13t9.5 42v502q0 10 10 10h82q10 0 10 -10v-508q0 -73 -33.5 -108.5t-108.5 -35.5h-15z" />
    <glyph glyph-name="circumflex" unicode="&#x2c6;" horiz-adv-x="415" 
d="M275 555q-10 0 -19 10l-48 60h-2l-47 -60q-9 -10 -19 -10h-60q-5 0 -6 3t2 7l88 125q7 10 17 10h52q11 0 18 -10l88 -125q3 -4 2 -7t-6 -3h-60z" />
    <glyph glyph-name="caron" unicode="&#x2c7;" horiz-adv-x="415" 
d="M181 555q-10 0 -17 10l-88 125q-3 4 -2 7t6 3h60q10 0 19 -10l47 -60h2l48 60q9 10 19 10h60q5 0 6 -3t-2 -7l-88 -125q-7 -10 -18 -10h-52z" />
    <glyph glyph-name="uni02C9" unicode="&#x2c9;" horiz-adv-x="415" 
d="M105 780q-10 0 -10 10v60q0 10 10 10h205q10 0 10 -10v-60q0 -10 -10 -10h-205z" />
    <glyph glyph-name="breve" unicode="&#x2d8;" horiz-adv-x="415" 
d="M207 556q-59 0 -89.5 35t-34.5 84q0 10 10 10h45q7 0 10 -10q8 -22 22 -35.5t37 -13.5t37.5 13.5t22.5 35.5q3 10 10 10h45q10 0 10 -10q-4 -49 -34.5 -84t-90.5 -35z" />
    <glyph glyph-name="dotaccent" unicode="&#x2d9;" horiz-adv-x="415" 
d="M166 574q-10 0 -10 10v86q0 10 10 10h82q10 0 10 -10v-86q0 -10 -10 -10h-82z" />
    <glyph glyph-name="ring" unicode="&#x2da;" horiz-adv-x="415" 
d="M207 539q-38 0 -64 26t-26 64q0 39 26 65t64 26q39 0 65 -26t26 -65q0 -38 -26 -64t-65 -26zM207 582q20 0 33 13.5t13 33.5q0 21 -13 34.5t-33 13.5t-32.5 -13.5t-12.5 -34.5q0 -20 12.5 -33.5t32.5 -13.5z" />
    <glyph glyph-name="ogonek" unicode="&#x2db;" horiz-adv-x="415" 
d="M220 -190q-41 0 -65 21t-24 62q0 33 16.5 59t39.5 48q10 10 18 10h75q5 0 6 -4t-3 -6q-29 -20 -49 -45t-20 -46q0 -24 20 -24q10 0 18 5q9 6 13 -4l20 -46q3 -8 -5 -13q-10 -7 -26.5 -12t-33.5 -5z" />
    <glyph glyph-name="tilde" unicode="&#x2dc;" horiz-adv-x="415" 
d="M251 567q-17 0 -28 5t-24 13q-12 8 -19.5 12t-18.5 4q-16 0 -26.5 -7.5t-21.5 -18.5q-4 -4 -8 -2.5t-4 6.5v61q0 9 10 19t22 17t29 7t28 -5t23 -13q13 -8 20.5 -12t18.5 -4q16 0 26.5 7t21.5 19q4 4 8 2.5t4 -6.5v-61q0 -5 -2 -9t-8 -10q-10 -10 -22 -17t-29 -7z" />
    <glyph glyph-name="hungarumlaut" unicode="&#x2dd;" horiz-adv-x="415" 
d="M227 555q-11 0 -6 10l61 125q4 10 16 10h67q5 0 6 -3t-1 -7l-75 -125q-6 -10 -17 -10h-51zM95 555q-11 0 -6 10l60 125q4 10 16 10h67q5 0 6 -3t-1 -7l-74 -125q-6 -10 -18 -10h-50z" />
    <glyph glyph-name="Delta" unicode="&#x394;" horiz-adv-x="421" 
d="M20 0q-10 0 -8 10l147 660q3 10 11 10h84q9 0 11 -10l144 -660q2 -10 -8 -10h-381zM282 98q6 0 5 6l-74 386h-3l-76 -386q-2 -6 5 -6h143z" />
    <glyph glyph-name="Delta" unicode="&#x2206;" horiz-adv-x="421" 
d="M20 0q-10 0 -8 10l147 660q3 10 11 10h84q9 0 11 -10l144 -660q2 -10 -8 -10h-381zM282 98q6 0 5 6l-74 386h-3l-76 -386q-2 -6 5 -6h143z" />
    <glyph glyph-name="Omega" unicode="&#x3a9;" horiz-adv-x="429" 
d="M253 0q-10 0 -10 10v73q0 9 9 15q10 8 15.5 18t8.5 34.5t4 69t1 120.5q0 69 -0.5 108.5t-1 60t-2 28.5t-3.5 15q-5 17 -20.5 28.5t-38.5 11.5t-39 -11.5t-21 -28.5q-2 -7 -3.5 -15t-2.5 -28.5t-1 -60v-108.5q0 -76 1 -120.5t4 -69t8.5 -34.5t15.5 -18q9 -6 9 -15v-73
q0 -10 -10 -10h-135q-10 0 -10 10v78q0 10 10 10h37v1q-11 10 -18.5 22.5t-12 37t-6.5 67.5t-2 114t0.5 113t2 67t4 37.5t6.5 23.5q17 51 58.5 79.5t104.5 28.5t104 -28.5t58 -79.5q4 -11 6.5 -23.5t4 -37.5t2 -67t0.5 -113t-2 -114t-6.5 -67.5t-12 -37t-18.5 -22.5v-1h37
q10 0 10 -10v-78q0 -10 -10 -10h-135z" />
    <glyph glyph-name="Omega" unicode="&#x2126;" horiz-adv-x="429" 
d="M253 0q-10 0 -10 10v73q0 9 9 15q10 8 15.5 18t8.5 34.5t4 69t1 120.5q0 69 -0.5 108.5t-1 60t-2 28.5t-3.5 15q-5 17 -20.5 28.5t-38.5 11.5t-39 -11.5t-21 -28.5q-2 -7 -3.5 -15t-2.5 -28.5t-1 -60v-108.5q0 -76 1 -120.5t4 -69t8.5 -34.5t15.5 -18q9 -6 9 -15v-73
q0 -10 -10 -10h-135q-10 0 -10 10v78q0 10 10 10h37v1q-11 10 -18.5 22.5t-12 37t-6.5 67.5t-2 114t0.5 113t2 67t4 37.5t6.5 23.5q17 51 58.5 79.5t104.5 28.5t104 -28.5t58 -79.5q4 -11 6.5 -23.5t4 -37.5t2 -67t0.5 -113t-2 -114t-6.5 -67.5t-12 -37t-18.5 -22.5v-1h37
q10 0 10 -10v-78q0 -10 -10 -10h-135z" />
    <glyph glyph-name="pi" unicode="&#x3c0;" horiz-adv-x="428" 
d="M381 -6q-64 0 -92.5 30t-28.5 99v259q0 6 -6 6h-78q-6 0 -6 -6v-372q0 -10 -10 -10h-82q-10 0 -10 10v372q0 6 -6 6h-38q-10 0 -10 10v74q0 10 10 10h378q10 0 10 -10v-74q0 -10 -10 -10h-37q-6 0 -6 -6v-261q0 -21 6 -28t21 -7h4q10 0 10 -10v-72q0 -10 -10 -10h-9z" />
    <glyph glyph-name="Wgrave" unicode="&#x1e80;" horiz-adv-x="579" 
d="M263 761q-10 0 -20 10l-99 107q-3 4 -1.5 7t6.5 3h81q7 0 10 -2.5t7 -7.5l76 -107q3 -4 1.5 -7t-6.5 -3h-55zM371 0q-8 0 -10 10l-69 437h-2l-72 -437q-2 -10 -10 -10h-75q-8 0 -10 10l-105 660q-2 10 9 10h86q10 0 11 -10l49 -443h3l73 443q1 10 11 10h59q10 0 11 -10
l73 -443h3l52 443q1 10 11 10h83q11 0 9 -10l-106 -660q-2 -10 -10 -10h-74z" />
    <glyph glyph-name="wgrave" unicode="&#x1e81;" horiz-adv-x="541" 
d="M333 0q-11 0 -12 10l-50 280h-2l-49 -280q-1 -10 -12 -10h-70q-10 0 -11 10l-109 462q-3 10 7 10h84q9 0 11 -10l54 -298h1l56 298q2 10 11 10h59q9 0 11 -10l54 -298h1l55 298q2 10 11 10h83q10 0 7 -10l-108 -462q-3 -10 -12 -10h-70zM242 555q-11 0 -18 10l-90 125
q-3 4 -1.5 7t6.5 3h81q10 0 16 -10l69 -125q5 -10 -6 -10h-57z" />
    <glyph glyph-name="Wacute" unicode="&#x1e82;" horiz-adv-x="579" 
d="M261 761q-5 0 -7 3t1 7l77 107q4 5 7 7.5t9 2.5h81q5 0 6.5 -3t-1.5 -7l-98 -107q-10 -10 -20 -10h-55zM371 0q-8 0 -10 10l-69 437h-2l-72 -437q-2 -10 -10 -10h-75q-8 0 -10 10l-105 660q-2 10 9 10h86q10 0 11 -10l49 -443h3l73 443q1 10 11 10h59q10 0 11 -10
l73 -443h3l52 443q1 10 11 10h83q11 0 9 -10l-106 -660q-2 -10 -10 -10h-74z" />
    <glyph glyph-name="wacute" unicode="&#x1e83;" horiz-adv-x="541" 
d="M240 555q-11 0 -6 10l69 125q6 10 16 10h81q5 0 6.5 -3t-1.5 -7l-90 -125q-8 -10 -18 -10h-57zM333 0q-11 0 -12 10l-50 280h-2l-49 -280q-1 -10 -12 -10h-70q-10 0 -11 10l-109 462q-3 10 7 10h84q9 0 11 -10l54 -298h1l56 298q2 10 11 10h59q9 0 11 -10l54 -298h1
l55 298q2 10 11 10h83q10 0 7 -10l-108 -462q-3 -10 -12 -10h-70z" />
    <glyph glyph-name="Wdieresis" unicode="&#x1e84;" horiz-adv-x="579" 
d="M332 769q-10 0 -10 10v86q0 10 10 10h65q10 0 10 -10v-86q0 -10 -10 -10h-65zM180 769q-10 0 -10 10v86q0 10 10 10h65q10 0 10 -10v-86q0 -10 -10 -10h-65zM371 0q-8 0 -10 10l-69 437h-2l-72 -437q-2 -10 -10 -10h-75q-8 0 -10 10l-105 660q-2 10 9 10h86q10 0 11 -10
l49 -443h3l73 443q1 10 11 10h59q10 0 11 -10l73 -443h3l52 443q1 10 11 10h83q11 0 9 -10l-106 -660q-2 -10 -10 -10h-74z" />
    <glyph glyph-name="wdieresis" unicode="&#x1e85;" horiz-adv-x="541" 
d="M313 574q-10 0 -10 10v86q0 10 10 10h65q10 0 10 -10v-86q0 -10 -10 -10h-65zM161 574q-10 0 -10 10v86q0 10 10 10h65q10 0 10 -10v-86q0 -10 -10 -10h-65zM333 0q-11 0 -12 10l-50 280h-2l-49 -280q-1 -10 -12 -10h-70q-10 0 -11 10l-109 462q-3 10 7 10h84q9 0 11 -10
l54 -298h1l56 298q2 10 11 10h59q9 0 11 -10l54 -298h1l55 298q2 10 11 10h83q10 0 7 -10l-108 -462q-3 -10 -12 -10h-70z" />
    <glyph glyph-name="Ygrave" unicode="&#x1ef2;" horiz-adv-x="386" 
d="M150 0q-10 0 -10 10v269l-130 391q-3 10 8 10h88q9 0 12 -10l76 -263h3l74 263q3 10 12 10h86q11 0 8 -10l-130 -391v-269q0 -10 -10 -10h-87zM177 761q-10 0 -20 10l-99 107q-3 4 -1.5 7t6.5 3h81q7 0 10 -2.5t7 -7.5l76 -107q3 -4 1.5 -7t-6.5 -3h-55z" />
    <glyph glyph-name="ygrave" unicode="&#x1ef3;" horiz-adv-x="370" 
d="M62 -180q-10 0 -10 10v74q0 10 10 10l14 1q22 2 33.5 13.5t19.5 41.5l11 48l-120 454q-3 10 7 10h84q9 0 11 -10l64 -298h1l64 298q2 10 11 10h81q10 0 7 -10l-127 -500q-12 -47 -25 -77t-29.5 -46.5t-39 -22.5t-52.5 -6h-15zM161 555q-11 0 -18 10l-90 125q-3 4 -1.5 7
t6.5 3h81q10 0 16 -10l69 -125q5 -10 -6 -10h-57z" />
    <glyph glyph-name="endash" unicode="&#x2013;" horiz-adv-x="408" 
d="M26 225q-10 0 -10 10v61q0 10 10 10h356q10 0 10 -10v-61q0 -10 -10 -10h-356z" />
    <glyph glyph-name="emdash" unicode="&#x2014;" horiz-adv-x="594" 
d="M26 225q-10 0 -10 10v61q0 10 10 10h542q10 0 10 -10v-61q0 -10 -10 -10h-542z" />
    <glyph glyph-name="quoteleft" unicode="&#x2018;" horiz-adv-x="171" 
d="M50 493q-10 0 -10 10v73q0 14 8 23l62 75q6 7 12 7q9 0 9 -9v-169q0 -10 -10 -10h-71z" />
    <glyph glyph-name="quoteright" unicode="&#x2019;" horiz-adv-x="171" 
d="M49 492q-9 0 -9 9v169q0 10 10 10h71q10 0 10 -10v-73q0 -14 -8 -23l-62 -75q-6 -7 -12 -7z" />
    <glyph glyph-name="quotesinglbase" unicode="&#x201a;" horiz-adv-x="171" 
d="M49 -93q-9 0 -9 9v169q0 10 10 10h71q10 0 10 -10v-73q0 -14 -8 -23l-62 -75q-6 -7 -12 -7z" />
    <glyph glyph-name="quotedblleft" unicode="&#x201c;" horiz-adv-x="299" 
d="M178 493q-10 0 -10 10v73q0 14 8 23l62 75q6 7 12 7q9 0 9 -9v-169q0 -10 -10 -10h-71zM50 493q-10 0 -10 10v73q0 14 8 23l62 75q6 7 12 7q9 0 9 -9v-169q0 -10 -10 -10h-71z" />
    <glyph glyph-name="quotedblright" unicode="&#x201d;" horiz-adv-x="299" 
d="M177 492q-9 0 -9 9v169q0 10 10 10h71q10 0 10 -10v-73q0 -14 -8 -23l-62 -75q-6 -7 -12 -7zM49 492q-9 0 -9 9v169q0 10 10 10h71q10 0 10 -10v-73q0 -14 -8 -23l-62 -75q-6 -7 -12 -7z" />
    <glyph glyph-name="quotedblbase" unicode="&#x201e;" horiz-adv-x="299" 
d="M177 -94q-9 0 -9 9v170q0 10 10 10h71q10 0 10 -10v-74q0 -14 -8 -23l-62 -75q-6 -7 -12 -7zM49 -94q-9 0 -9 9v170q0 10 10 10h71q10 0 10 -10v-74q0 -14 -8 -23l-62 -75q-6 -7 -12 -7z" />
    <glyph glyph-name="dagger" unicode="&#x2020;" horiz-adv-x="520" 
d="M221 -180q-10 0 -10 10v523q0 6 -6 6h-114q-10 0 -10 10v70q0 10 10 10h114q6 0 6 6v215q0 10 10 10h78q10 0 10 -10v-215q0 -6 6 -6h114q10 0 10 -10v-70q0 -10 -10 -10h-114q-6 0 -6 -6v-523q0 -10 -10 -10h-78z" />
    <glyph glyph-name="daggerdbl" unicode="&#x2021;" horiz-adv-x="520" 
d="M221 -180q-10 0 -10 10v185q0 6 -6 6h-114q-10 0 -10 10v70q0 10 10 10h114q6 0 6 6v266q0 6 -6 6h-114q-10 0 -10 10v70q0 10 10 10h114q6 0 6 6v185q0 10 10 10h78q10 0 10 -10v-185q0 -6 6 -6h114q10 0 10 -10v-70q0 -10 -10 -10h-114q-6 0 -6 -6v-266q0 -6 6 -6h114
q10 0 10 -10v-70q0 -10 -10 -10h-114q-6 0 -6 -6v-185q0 -10 -10 -10h-78z" />
    <glyph glyph-name="bullet" unicode="&#x2022;" horiz-adv-x="443" 
d="M221 179q-28 0 -51.5 9.5t-41 27t-27 41t-9.5 51.5t9.5 51.5t27 40.5t41 27t51.5 10t51.5 -10t41 -27t27.5 -40.5t10 -51.5t-10 -51.5t-27.5 -41t-41 -27t-51.5 -9.5z" />
    <glyph glyph-name="ellipsis" unicode="&#x2026;" horiz-adv-x="591" 
d="M450 0q-10 0 -10 10v99q0 10 10 10h85q10 0 10 -10v-99q0 -10 -10 -10h-85zM253 0q-10 0 -10 10v99q0 10 10 10h85q10 0 10 -10v-99q0 -10 -10 -10h-85zM56 0q-10 0 -10 10v99q0 10 10 10h85q10 0 10 -10v-99q0 -10 -10 -10h-85z" />
    <glyph glyph-name="perthousand" unicode="&#x2030;" horiz-adv-x="932" 
d="M180 -9q-10 0 -7 10l252 678q4 10 13 10h55q10 0 7 -10l-253 -678q-4 -10 -13 -10h-54zM161 328q-38 0 -61.5 16t-32.5 45q-2 8 -3.5 15.5t-2.5 20t-1 31.5v51v51t1 32t2.5 19.5t3.5 15.5q9 29 32.5 45t61.5 16q37 0 60.5 -16t32.5 -45q3 -8 4.5 -15.5t2 -19.5t1 -32
t0.5 -51q0 -32 -0.5 -51t-1 -31.5t-2 -20t-4.5 -15.5q-9 -29 -32.5 -45t-60.5 -16zM161 392q18 0 25 17q1 2 1.5 6t1 14.5t0.5 28.5v49v49.5t-0.5 28.5t-1 14t-1.5 6q-7 17 -25 17q-20 0 -25 -17q-1 -2 -1.5 -6t-1 -14t-0.5 -28.5v-49.5v-49t0.5 -28.5t1 -14.5t1.5 -6
q5 -17 25 -17zM771 -6q-38 0 -61 16t-32 45q-3 7 -4.5 15t-2 20t-1 31.5t-0.5 51.5q0 31 0.5 50.5t1 32t2 20t4.5 15.5q9 29 32 45t61 16q37 0 60.5 -16t32.5 -45q3 -8 4.5 -15.5t2 -20t1 -32t0.5 -50.5q0 -32 -0.5 -51.5t-1 -31.5t-2 -20t-4.5 -15q-9 -29 -32.5 -45
t-60.5 -16zM512 -6q-37 0 -60.5 16t-32.5 45q-3 7 -4.5 15t-2 20t-1 31.5t-0.5 51.5q0 31 0.5 50.5t1 32t2 20t4.5 15.5q9 29 32.5 45t60.5 16q38 0 61.5 -16t31.5 -45q3 -8 4.5 -15.5t2 -20t1 -32t0.5 -50.5q0 -32 -0.5 -51.5t-1 -31.5t-2 -20t-4.5 -15q-8 -29 -31.5 -45
t-61.5 -16zM771 58q20 0 25 17q1 2 1.5 6t1 14t0.5 28.5v49.5v49t-0.5 28.5t-1 14.5t-1.5 6q-5 17 -25 17t-25 -17q-1 -2 -1.5 -6t-1 -14.5t-0.5 -28.5v-49v-49.5t0.5 -28.5t1 -14t1.5 -6q5 -17 25 -17zM512 58q20 0 25 17q1 2 1.5 6t1 14t0.5 28.5v49.5v49t-0.5 28.5
t-1 14.5t-1.5 6q-5 17 -25 17t-25 -17q-1 -2 -1.5 -6t-1 -14.5t-0.5 -28.5v-49v-49.5t0.5 -28.5t1 -14t1.5 -6q5 -17 25 -17z" />
    <glyph glyph-name="guilsinglleft" unicode="&#x2039;" horiz-adv-x="284" 
d="M37 257q-7 7 0 14l177 178q3 3 6.5 2t3.5 -6v-80q0 -8 -10 -18l-78 -79q-4 -4 0 -8l78 -79q10 -10 10 -18v-80q0 -5 -3.5 -6t-6.5 2z" />
    <glyph glyph-name="guilsinglright" unicode="&#x203a;" horiz-adv-x="284" 
d="M70 79q-3 -3 -6.5 -2t-3.5 6v80q0 8 10 18l79 79q4 4 0 8l-79 79q-10 10 -10 18v80q0 5 3.5 6t6.5 -2l177 -178q7 -7 0 -14z" />
    <glyph glyph-name="fraction" unicode="&#x2044;" horiz-adv-x="143" 
d="M-85 -9q-10 0 -7 10l252 678q4 10 13 10h54q10 0 7 -10l-252 -678q-4 -10 -13 -10h-54z" />
    <glyph glyph-name="uni2070" unicode="&#x2070;" horiz-adv-x="281" 
d="M140 422q-41 0 -66.5 18t-35.5 47q-2 6 -3.5 14t-2.5 23t-1.5 40.5t-0.5 68.5t0.5 68.5t1.5 40.5t2.5 23t3.5 14q10 29 35.5 47t66.5 18q42 0 67 -18t35 -47q2 -6 3.5 -14t2.5 -23t1.5 -40.5t0.5 -68.5t-0.5 -68.5t-1.5 -40.5t-2.5 -23t-3.5 -14q-10 -29 -35 -47t-67 -18
zM140 493q20 0 26 18q1 2 2 6t1.5 16t0.5 35.5v64.5v64.5t-0.5 35.5t-1.5 16t-2 6q-6 18 -26 18t-26 -18q-1 -2 -1.5 -6t-1 -16t-0.5 -35.5v-64.5v-64.5t0.5 -35.5t1 -16t1.5 -6q6 -18 26 -18z" />
    <glyph glyph-name="uni2074" unicode="&#x2074;" horiz-adv-x="281" 
d="M169 430q-10 0 -10 10v36q0 6 -6 6h-123q-10 0 -10 10v50q0 7 3 16l88 268q3 10 12 10h62q10 0 7 -10l-89 -271v-3h50q6 0 6 6v95q0 10 10 10h55q10 0 10 -10v-95q0 -6 5 -6h15q10 0 10 -10v-50q0 -10 -10 -10h-14q-6 0 -6 -6v-36q0 -10 -10 -10h-55z" />
    <glyph glyph-name="uni2075" unicode="&#x2075;" horiz-adv-x="281" 
d="M140 422q-39 0 -65.5 17t-36.5 48q-3 9 -4 17.5t-1 13.5q0 11 10 12l54 6q12 2 12 -10q0 -10 3 -17q5 -16 26 -16q20 0 27 16q2 4 2.5 12t0.5 39q0 29 -0.5 37.5t-2.5 12.5q-3 6 -9.5 11t-17.5 5q-16 0 -25 -14q-8 -10 -16 -10h-51q-10 0 -10 10v214q0 10 10 10h190
q10 0 10 -10v-51q0 -10 -10 -10h-120q-6 0 -6 -6v-76h1q16 14 46 14q33 0 54.5 -13.5t31.5 -44.5q3 -10 4 -27t1 -52t-1.5 -49t-4.5 -24q-10 -31 -36 -48t-66 -17z" />
    <glyph glyph-name="uni2076" unicode="&#x2076;" horiz-adv-x="281" 
d="M140 422q-39 0 -66.5 17.5t-37.5 48.5q-3 10 -4.5 22.5t-1.5 41.5q0 23 1 39t3.5 29t7 24.5t10.5 26.5l69 155q4 10 14 10h62q11 0 8 -10l-65 -147l1 -1q6 2 17 2q65 0 85 -59q4 -11 5.5 -25.5t1.5 -43.5t-1.5 -41.5t-4.5 -22.5q-10 -31 -37 -48.5t-67 -17.5zM140 493
q11 0 17.5 5t8.5 12q2 4 3 11.5t1 30.5q0 22 -1 29t-3 11q-2 7 -8.5 12t-17.5 5t-17.5 -5t-8.5 -12q-2 -4 -2.5 -11t-0.5 -29q0 -23 0.5 -30.5t2.5 -11.5q2 -7 8.5 -12t17.5 -5z" />
    <glyph glyph-name="uni2077" unicode="&#x2077;" horiz-adv-x="281" 
d="M69 430q-11 0 -8 10l106 322v3h-50q-6 0 -6 -6v-32q0 -10 -10 -10h-57q-10 0 -10 10v99q0 10 10 10h196q10 0 10 -10v-50q0 -9 -3 -18l-103 -318q-3 -10 -13 -10h-62z" />
    <glyph glyph-name="uni2078" unicode="&#x2078;" horiz-adv-x="281" 
d="M140 422q-39 0 -66.5 17.5t-37.5 48.5q-3 10 -4.5 22t-1.5 40q0 20 1.5 30.5t3.5 18.5q8 26 31 43v1q-23 17 -31 43q-5 17 -5 39q0 21 1.5 32t4.5 21q10 31 37.5 48.5t66.5 17.5q40 0 67 -17.5t37 -48.5q3 -10 4.5 -21t1.5 -32q0 -22 -5 -39q-4 -12 -11 -23t-19 -20v-1
q12 -9 19 -20t11 -23q2 -8 3.5 -18.5t1.5 -30.5q0 -28 -1.5 -40t-4.5 -22q-10 -31 -37 -48.5t-67 -17.5zM140 677q11 0 17.5 5t8.5 12q2 4 3 9.5t1 21.5t-1 21.5t-3 9.5q-2 7 -8.5 12t-17.5 5t-17.5 -5t-8.5 -12q-2 -4 -2.5 -9.5t-0.5 -21.5t0.5 -21.5t2.5 -9.5
q2 -7 8.5 -12t17.5 -5zM140 493q11 0 17.5 5t8.5 12q2 4 3 11t1 29q0 21 -1 28t-3 11q-2 7 -8.5 12t-17.5 5t-17.5 -5t-8.5 -12q-2 -4 -2.5 -11t-0.5 -28q0 -22 0.5 -29t2.5 -11q2 -7 8.5 -12t17.5 -5z" />
    <glyph glyph-name="uni2079" unicode="&#x2079;" horiz-adv-x="281" 
d="M83 430q-11 0 -8 10l66 147l-1 1q-2 -1 -7.5 -1.5t-9.5 -0.5q-66 0 -86 59q-4 11 -5.5 25.5t-1.5 43.5t1.5 41.5t4.5 22.5q10 31 37.5 48.5t66.5 17.5q40 0 67 -17.5t37 -48.5q3 -10 4.5 -22.5t1.5 -41.5q0 -23 -1 -39t-3.5 -29t-7 -24.5t-10.5 -26.5l-69 -155
q-4 -10 -13 -10h-63zM140 657q11 0 17.5 5t8.5 12q2 4 3 11t1 29q0 23 -1 30.5t-3 11.5q-2 7 -8.5 12t-17.5 5t-17.5 -5t-8.5 -12q-2 -4 -2.5 -11.5t-0.5 -30.5q0 -22 0.5 -29t2.5 -11q2 -7 8.5 -12t17.5 -5z" />
    <glyph glyph-name="uni2080" unicode="&#x2080;" horiz-adv-x="281" 
d="M140 -163q-41 0 -66.5 18t-35.5 47q-2 6 -3.5 14t-2.5 23t-1.5 40.5t-0.5 68.5t0.5 68.5t1.5 40.5t2.5 23t3.5 14q10 29 35.5 47t66.5 18q42 0 67 -18t35 -47q2 -6 3.5 -14t2.5 -23t1.5 -40.5t0.5 -68.5t-0.5 -68.5t-1.5 -40.5t-2.5 -23t-3.5 -14q-10 -29 -35 -47
t-67 -18zM140 -92q20 0 26 18q1 2 2 6t1.5 16t0.5 35.5v64.5v64.5t-0.5 35.5t-1.5 16t-2 6q-6 18 -26 18t-26 -18q-1 -2 -1.5 -6t-1 -16t-0.5 -35.5v-64.5v-64.5t0.5 -35.5t1 -16t1.5 -6q6 -18 26 -18z" />
    <glyph glyph-name="uni2081" unicode="&#x2081;" horiz-adv-x="281" 
d="M130 -155q-10 0 -10 10v307h-1l-57 -32q-5 -3 -8.5 -1.5t-3.5 6.5v61q0 8 8 13l60 37q8 5 15 5h58q10 0 10 -10v-386q0 -10 -10 -10h-61z" />
    <glyph glyph-name="uni2082" unicode="&#x2082;" horiz-adv-x="281" 
d="M45 -155q-10 0 -10 10v48q0 8 5 16l111 169q9 13 13 25t4 29q0 15 -0.5 20.5t-2.5 9.5q-7 16 -27 16q-21 0 -26 -16q-2 -4 -2.5 -10.5t-0.5 -29.5q0 -12 -12 -10l-54 6q-10 1 -10 12q0 21 1.5 32.5t4.5 20.5q10 31 36 48.5t65 17.5q40 0 66 -17.5t36 -48.5q3 -9 4.5 -20
t1.5 -30q0 -51 -26 -90l-90 -136v-1h106q10 0 10 -10v-51q0 -10 -10 -10h-193z" />
    <glyph glyph-name="uni2083" unicode="&#x2083;" horiz-adv-x="281" 
d="M139 -163q-39 0 -65 17t-36 48q-6 19 -6 40q0 11 10 12l54 6q12 2 12 -10t0.5 -17t2.5 -9q5 -16 26 -16q20 0 27 16q2 4 2.5 10.5t0.5 26.5t-0.5 27.5t-2.5 12.5q-5 17 -27 17h-8q-10 0 -10 10v52q0 10 10 10h7q22 0 29 17q2 5 2 11v23q0 16 -0.5 21.5t-2.5 9.5
q-7 16 -27 16q-21 0 -26 -16q-2 -4 -2.5 -9t-0.5 -17t-12 -10l-54 6q-10 1 -10 12q0 20 6 40q10 31 36 48t65 17q40 0 66 -17t36 -48q3 -10 4.5 -21.5t1.5 -31.5q0 -21 -1 -30t-3 -16q-9 -27 -36 -38v-1q27 -16 35 -40q3 -8 4 -19t1 -36t-1.5 -37t-4.5 -22q-10 -31 -36 -48
t-66 -17z" />
    <glyph glyph-name="uni2084" unicode="&#x2084;" horiz-adv-x="281" 
d="M169 -155q-10 0 -10 10v36q0 6 -6 6h-123q-10 0 -10 10v50q0 7 3 16l88 268q3 10 12 10h62q10 0 7 -10l-89 -271v-3h50q6 0 6 6v95q0 10 10 10h55q10 0 10 -10v-95q0 -6 5 -6h15q10 0 10 -10v-50q0 -10 -10 -10h-14q-6 0 -6 -6v-36q0 -10 -10 -10h-55z" />
    <glyph glyph-name="uni2085" unicode="&#x2085;" horiz-adv-x="281" 
d="M140 -163q-39 0 -65.5 17t-36.5 48q-3 9 -4 17.5t-1 13.5q0 11 10 12l54 6q12 2 12 -10q0 -10 3 -17q5 -16 26 -16q20 0 27 16q2 4 2.5 12t0.5 39q0 29 -0.5 37.5t-2.5 12.5q-3 6 -9.5 11t-17.5 5q-16 0 -25 -14q-8 -10 -16 -10h-51q-10 0 -10 10v214q0 10 10 10h190
q10 0 10 -10v-51q0 -10 -10 -10h-120q-6 0 -6 -6v-76h1q16 14 46 14q33 0 54.5 -13.5t31.5 -44.5q3 -10 4 -27t1 -52t-1.5 -49t-4.5 -24q-10 -31 -36 -48t-66 -17z" />
    <glyph glyph-name="uni2086" unicode="&#x2086;" horiz-adv-x="281" 
d="M140 -163q-39 0 -66.5 17.5t-37.5 48.5q-3 10 -4.5 22.5t-1.5 41.5q0 23 1 39t3.5 29t7 24.5t10.5 26.5l69 155q4 10 14 10h62q11 0 8 -10l-65 -147l1 -1q6 2 17 2q65 0 85 -59q4 -11 5.5 -25.5t1.5 -43.5t-1.5 -41.5t-4.5 -22.5q-10 -31 -37 -48.5t-67 -17.5zM140 -92
q11 0 17.5 5t8.5 12q2 4 3 11.5t1 30.5q0 22 -1 29t-3 11q-2 7 -8.5 12t-17.5 5t-17.5 -5t-8.5 -12q-2 -4 -2.5 -11t-0.5 -29q0 -23 0.5 -30.5t2.5 -11.5q2 -7 8.5 -12t17.5 -5z" />
    <glyph glyph-name="uni2087" unicode="&#x2087;" horiz-adv-x="281" 
d="M69 -155q-11 0 -8 10l106 322v3h-50q-6 0 -6 -6v-32q0 -10 -10 -10h-57q-10 0 -10 10v99q0 10 10 10h196q10 0 10 -10v-50q0 -9 -3 -18l-103 -318q-3 -10 -13 -10h-62z" />
    <glyph glyph-name="uni2088" unicode="&#x2088;" horiz-adv-x="281" 
d="M140 -163q-39 0 -66.5 17.5t-37.5 48.5q-3 10 -4.5 22t-1.5 40q0 20 1.5 30.5t3.5 18.5q8 26 31 43v1q-23 17 -31 43q-5 17 -5 39q0 21 1.5 32t4.5 21q10 31 37.5 48.5t66.5 17.5q40 0 67 -17.5t37 -48.5q3 -10 4.5 -21t1.5 -32q0 -22 -5 -39q-4 -12 -11 -23t-19 -20v-1
q12 -9 19 -20t11 -23q2 -8 3.5 -18.5t1.5 -30.5q0 -28 -1.5 -40t-4.5 -22q-10 -31 -37 -48.5t-67 -17.5zM140 92q11 0 17.5 5t8.5 12q2 4 3 9.5t1 21.5t-1 21.5t-3 9.5q-2 7 -8.5 12t-17.5 5t-17.5 -5t-8.5 -12q-2 -4 -2.5 -9.5t-0.5 -21.5t0.5 -21.5t2.5 -9.5q2 -7 8.5 -12
t17.5 -5zM140 -92q11 0 17.5 5t8.5 12q2 4 3 11t1 29q0 21 -1 28t-3 11q-2 7 -8.5 12t-17.5 5t-17.5 -5t-8.5 -12q-2 -4 -2.5 -11t-0.5 -28q0 -22 0.5 -29t2.5 -11q2 -7 8.5 -12t17.5 -5z" />
    <glyph glyph-name="uni2089" unicode="&#x2089;" horiz-adv-x="281" 
d="M83 -155q-11 0 -8 10l66 147l-1 1q-2 -1 -7.5 -1.5t-9.5 -0.5q-66 0 -86 59q-4 11 -5.5 25.5t-1.5 43.5t1.5 41.5t4.5 22.5q10 31 37.5 48.5t66.5 17.5q40 0 67 -17.5t37 -48.5q3 -10 4.5 -22.5t1.5 -41.5q0 -23 -1 -39t-3.5 -29t-7 -24.5t-10.5 -26.5l-69 -155
q-4 -10 -13 -10h-63zM140 72q11 0 17.5 5t8.5 12q2 4 3 11t1 29q0 23 -1 30.5t-3 11.5q-2 7 -8.5 12t-17.5 5t-17.5 -5t-8.5 -12q-2 -4 -2.5 -11.5t-0.5 -30.5q0 -22 0.5 -29t2.5 -11q2 -7 8.5 -12t17.5 -5z" />
    <glyph glyph-name="Euro" unicode="&#x20ac;" 
d="M222 -9q-57 0 -91 25.5t-49 70.5q-3 9 -5 18.5t-3.5 25.5t-2 40.5t-0.5 63.5q0 6 -6 6h-36q-10 0 -10 10v54q0 10 10 10h36q6 0 6 6v43q0 6 -6 6h-36q-10 0 -10 10v54q0 10 10 10h36q6 0 6 6q0 37 0.5 60.5t2 39t3.5 25t5 18.5q15 45 49 70.5t91 25.5q69 0 108 -39
t44 -101q2 -11 -7 -12l-77 -15q-10 -2 -12 8q-4 31 -16 48.5t-38 17.5q-35 0 -46 -34q-2 -5 -2.5 -10t-1.5 -16.5t-1 -31.5v-54q0 -6 6 -6h130q10 0 10 -10l-10 -54q-1 -10 -10 -10h-120q-6 0 -6 -6v-43q0 -6 6 -6h115q10 0 10 -10l-10 -54q-1 -10 -10 -10h-105q-6 0 -6 -6
v-57t1 -33t1.5 -17.5t2.5 -9.5q11 -34 46 -34q26 0 38 17.5t16 48.5q2 10 12 8l77 -15q9 -1 7 -12q-5 -62 -44 -101t-108 -39z" />
    <glyph glyph-name="afii61289" unicode="&#x2113;" horiz-adv-x="413" 
d="M98 175q-7 -6 -14 1l-36 41q-7 7 1 14l78 75v204q0 87 35 134t100 47q54 0 87 -33.5t33 -93.5q0 -66 -37.5 -129t-115.5 -138v-172q0 -26 7.5 -38t25.5 -12q9 0 17 3.5t17 10.5t14 -2l28 -41q6 -8 -3 -15q-22 -20 -47 -31t-54 -11q-49 0 -78 32t-29 111v70zM229 411
q40 49 54.5 84t14.5 70q0 50 -32 50q-17 0 -27 -17t-10 -60v-127z" />
    <glyph glyph-name="trademark" unicode="&#x2122;" horiz-adv-x="660" 
d="M538 286q-10 0 -10 10v202h-1l-39 -141q-3 -10 -12 -10h-29q-9 0 -12 10l-40 141h-1v-202q0 -10 -10 -10h-52q-10 0 -10 10v374q0 10 10 10h58q10 0 13 -10l59 -217h2l56 217q3 10 13 10h57q10 0 10 -10v-374q0 -10 -10 -10h-52zM140 286q-10 0 -10 10v306q0 6 -6 6h-54
q-10 0 -10 10v52q0 10 10 10h197q10 0 10 -10v-52q0 -10 -10 -10h-54q-6 0 -6 -6v-306q0 -10 -10 -10h-57z" />
    <glyph glyph-name="estimated" unicode="&#x212e;" horiz-adv-x="579" 
d="M288 -9q-53 0 -96 19.5t-73.5 53.5t-47 80t-16.5 98t16.5 97.5t47 79.5t73.5 53t96 19t96.5 -18t74 -51t48 -79t17.5 -101h-366v-165q54 -52 130 -52q57 0 99 25.5t75 83.5l33 -21q-42 -64 -89 -93t-118 -29zM421 406q-29 27 -62 41t-71 14q-77 0 -130 -55v-131h263v131z
" />
    <glyph glyph-name="onethird" unicode="&#x2153;" horiz-adv-x="758" 
d="M159 274q-10 0 -10 10v307h-1l-57 -32q-5 -3 -8.5 -1.5t-3.5 6.5v61q0 8 8 13l60 37q8 5 15 5h58q10 0 10 -10v-386q0 -10 -10 -10h-61zM202 -9q-10 0 -7 10l252 678q4 10 13 10h54q10 0 7 -10l-252 -678q-4 -10 -13 -10h-54zM569 -7q-39 0 -65 17t-36 48q-6 19 -6 40
q0 11 10 12l54 6q12 2 12 -10t0.5 -17t2.5 -9q5 -16 26 -16q20 0 27 16q2 4 2.5 10.5t0.5 26.5t-0.5 27.5t-2.5 12.5q-5 17 -27 17h-8q-10 0 -10 10v52q0 10 10 10h7q22 0 29 17q2 5 2 11v23q0 16 -0.5 21.5t-2.5 9.5q-7 16 -27 16q-21 0 -26 -16q-2 -4 -2.5 -9t-0.5 -17
t-12 -10l-54 6q-10 1 -10 12q0 20 6 40q10 31 36 48t65 17q40 0 66 -17t36 -48q3 -10 4.5 -21.5t1.5 -31.5q0 -21 -1 -30t-3 -16q-9 -27 -36 -38v-1q27 -16 35 -40q3 -8 4 -19t1 -36t-1.5 -37t-4.5 -22q-10 -31 -36 -48t-66 -17z" />
    <glyph glyph-name="twothirds" unicode="&#x2154;" horiz-adv-x="816" 
d="M91 274q-10 0 -10 10v48q0 8 5 16l111 169q9 13 13 25t4 29q0 15 -0.5 20.5t-2.5 9.5q-7 16 -27 16q-21 0 -26 -16q-2 -4 -2.5 -10.5t-0.5 -29.5q0 -12 -12 -10l-54 6q-10 1 -10 12q0 21 1.5 32.5t4.5 20.5q10 31 36 48.5t65 17.5q40 0 66 -17.5t36 -48.5q3 -9 4.5 -20
t1.5 -30q0 -51 -26 -90l-90 -136v-1h106q10 0 10 -10v-51q0 -10 -10 -10h-193zM259 -9q-10 0 -7 10l252 678q4 10 13 10h54q10 0 7 -10l-252 -678q-4 -10 -13 -10h-54zM627 -7q-39 0 -65 17t-36 48q-6 19 -6 40q0 11 10 12l54 6q12 2 12 -10t0.5 -17t2.5 -9q5 -16 26 -16
q20 0 27 16q2 4 2.5 10.5t0.5 26.5t-0.5 27.5t-2.5 12.5q-5 17 -27 17h-8q-10 0 -10 10v52q0 10 10 10h7q22 0 29 17q2 5 2 11v23q0 16 -0.5 21.5t-2.5 9.5q-7 16 -27 16q-21 0 -26 -16q-2 -4 -2.5 -9t-0.5 -17t-12 -10l-54 6q-10 1 -10 12q0 20 6 40q10 31 36 48t65 17
q40 0 66 -17t36 -48q3 -10 4.5 -21.5t1.5 -31.5q0 -21 -1 -30t-3 -16q-9 -27 -36 -38v-1q27 -16 35 -40q3 -8 4 -19t1 -36t-1.5 -37t-4.5 -22q-10 -31 -36 -48t-66 -17z" />
    <glyph glyph-name="oneeighth" unicode="&#x215b;" horiz-adv-x="762" 
d="M159 274q-10 0 -10 10v307h-1l-57 -32q-5 -3 -8.5 -1.5t-3.5 6.5v61q0 8 8 13l60 37q8 5 15 5h58q10 0 10 -10v-386q0 -10 -10 -10h-61zM572 -7q-39 0 -66.5 17.5t-37.5 48.5q-3 10 -4.5 22t-1.5 40q0 20 1.5 30.5t3.5 18.5q8 26 31 43v1q-23 17 -31 43q-5 17 -5 39
q0 21 1.5 32t4.5 21q10 31 37.5 48.5t66.5 17.5q40 0 67 -17.5t37 -48.5q3 -10 4.5 -21t1.5 -32q0 -22 -5 -39q-4 -12 -11 -23t-19 -20v-1q12 -9 19 -20t11 -23q2 -8 3.5 -18.5t1.5 -30.5q0 -28 -1.5 -40t-4.5 -22q-10 -31 -37 -48.5t-67 -17.5zM572 248q11 0 17.5 5t8.5 12
q2 4 3 9.5t1 21.5t-1 21.5t-3 9.5q-2 7 -8.5 12t-17.5 5t-17.5 -5t-8.5 -12q-2 -4 -2.5 -9.5t-0.5 -21.5t0.5 -21.5t2.5 -9.5q2 -7 8.5 -12t17.5 -5zM572 64q11 0 17.5 5t8.5 12q2 4 3 11t1 29q0 21 -1 28t-3 11q-2 7 -8.5 12t-17.5 5t-17.5 -5t-8.5 -12q-2 -4 -2.5 -11
t-0.5 -28q0 -22 0.5 -29t2.5 -11q2 -7 8.5 -12t17.5 -5zM202 -9q-10 0 -7 10l252 678q4 10 13 10h54q10 0 7 -10l-252 -678q-4 -10 -13 -10h-54z" />
    <glyph glyph-name="threeeighths" unicode="&#x215c;" horiz-adv-x="802" 
d="M611 -7q-39 0 -66.5 17.5t-37.5 48.5q-3 10 -4.5 22t-1.5 40q0 20 1.5 30.5t3.5 18.5q8 26 31 43v1q-23 17 -31 43q-5 17 -5 39q0 21 1.5 32t4.5 21q10 31 37.5 48.5t66.5 17.5q40 0 67 -17.5t37 -48.5q3 -10 4.5 -21t1.5 -32q0 -22 -5 -39q-4 -12 -11 -23t-19 -20v-1
q12 -9 19 -20t11 -23q2 -8 3.5 -18.5t1.5 -30.5q0 -28 -1.5 -40t-4.5 -22q-10 -31 -37 -48.5t-67 -17.5zM611 248q11 0 17.5 5t8.5 12q2 4 3 9.5t1 21.5t-1 21.5t-3 9.5q-2 7 -8.5 12t-17.5 5t-17.5 -5t-8.5 -12q-2 -4 -2.5 -9.5t-0.5 -21.5t0.5 -21.5t2.5 -9.5
q2 -7 8.5 -12t17.5 -5zM611 64q11 0 17.5 5t8.5 12q2 4 3 11t1 29q0 21 -1 28t-3 11q-2 7 -8.5 12t-17.5 5t-17.5 -5t-8.5 -12q-2 -4 -2.5 -11t-0.5 -28q0 -22 0.5 -29t2.5 -11q2 -7 8.5 -12t17.5 -5zM242 -9q-10 0 -7 10l252 678q4 10 13 10h54q10 0 7 -10l-252 -678
q-4 -10 -13 -10h-54zM186 266q-39 0 -65 17t-36 48q-6 19 -6 40q0 11 10 12l54 6q12 2 12 -10t0.5 -17t2.5 -9q5 -16 26 -16q20 0 27 16q2 4 2.5 10.5t0.5 26.5t-0.5 27.5t-2.5 12.5q-5 17 -27 17h-8q-10 0 -10 10v52q0 10 10 10h7q22 0 29 17q2 5 2 11v23q0 16 -0.5 21.5
t-2.5 9.5q-7 16 -27 16q-21 0 -26 -16q-2 -4 -2.5 -9t-0.5 -17t-12 -10l-54 6q-10 1 -10 12q0 20 6 40q10 31 36 48t65 17q40 0 66 -17t36 -48q3 -10 4.5 -21.5t1.5 -31.5q0 -21 -1 -30t-3 -16q-9 -27 -36 -38v-1q27 -16 35 -40q3 -8 4 -19t1 -36t-1.5 -37t-4.5 -22
q-10 -31 -36 -48t-66 -17z" />
    <glyph glyph-name="fiveeighths" unicode="&#x215d;" horiz-adv-x="802" 
d="M611 -7q-39 0 -66.5 17.5t-37.5 48.5q-3 10 -4.5 22t-1.5 40q0 20 1.5 30.5t3.5 18.5q8 26 31 43v1q-23 17 -31 43q-5 17 -5 39q0 21 1.5 32t4.5 21q10 31 37.5 48.5t66.5 17.5q40 0 67 -17.5t37 -48.5q3 -10 4.5 -21t1.5 -32q0 -22 -5 -39q-4 -12 -11 -23t-19 -20v-1
q12 -9 19 -20t11 -23q2 -8 3.5 -18.5t1.5 -30.5q0 -28 -1.5 -40t-4.5 -22q-10 -31 -37 -48.5t-67 -17.5zM611 248q11 0 17.5 5t8.5 12q2 4 3 9.5t1 21.5t-1 21.5t-3 9.5q-2 7 -8.5 12t-17.5 5t-17.5 -5t-8.5 -12q-2 -4 -2.5 -9.5t-0.5 -21.5t0.5 -21.5t2.5 -9.5
q2 -7 8.5 -12t17.5 -5zM611 64q11 0 17.5 5t8.5 12q2 4 3 11t1 29q0 21 -1 28t-3 11q-2 7 -8.5 12t-17.5 5t-17.5 -5t-8.5 -12q-2 -4 -2.5 -11t-0.5 -28q0 -22 0.5 -29t2.5 -11q2 -7 8.5 -12t17.5 -5zM242 -9q-10 0 -7 10l252 678q4 10 13 10h54q10 0 7 -10l-252 -678
q-4 -10 -13 -10h-54zM186 266q-39 0 -65.5 17t-36.5 48q-3 9 -4 17.5t-1 13.5q0 11 10 12l54 6q12 2 12 -10q0 -10 3 -17q5 -16 26 -16q20 0 27 16q2 4 2.5 12t0.5 39q0 29 -0.5 37.5t-2.5 12.5q-3 6 -9.5 11t-17.5 5q-16 0 -25 -14q-8 -10 -16 -10h-51q-10 0 -10 10v214
q0 10 10 10h190q10 0 10 -10v-51q0 -10 -10 -10h-120q-6 0 -6 -6v-76h1q16 14 46 14q33 0 54.5 -13.5t31.5 -44.5q3 -10 4 -27t1 -52t-1.5 -49t-4.5 -24q-10 -31 -36 -48t-66 -17z" />
    <glyph glyph-name="seveneighths" unicode="&#x215e;" horiz-adv-x="757" 
d="M566 -7q-39 0 -66.5 17.5t-37.5 48.5q-3 10 -4.5 22t-1.5 40q0 20 1.5 30.5t3.5 18.5q8 26 31 43v1q-23 17 -31 43q-5 17 -5 39q0 21 1.5 32t4.5 21q10 31 37.5 48.5t66.5 17.5q40 0 67 -17.5t37 -48.5q3 -10 4.5 -21t1.5 -32q0 -22 -5 -39q-4 -12 -11 -23t-19 -20v-1
q12 -9 19 -20t11 -23q2 -8 3.5 -18.5t1.5 -30.5q0 -28 -1.5 -40t-4.5 -22q-10 -31 -37 -48.5t-67 -17.5zM566 248q11 0 17.5 5t8.5 12q2 4 3 9.5t1 21.5t-1 21.5t-3 9.5q-2 7 -8.5 12t-17.5 5t-17.5 -5t-8.5 -12q-2 -4 -2.5 -9.5t-0.5 -21.5t0.5 -21.5t2.5 -9.5
q2 -7 8.5 -12t17.5 -5zM566 64q11 0 17.5 5t8.5 12q2 4 3 11t1 29q0 21 -1 28t-3 11q-2 7 -8.5 12t-17.5 5t-17.5 -5t-8.5 -12q-2 -4 -2.5 -11t-0.5 -28q0 -22 0.5 -29t2.5 -11q2 -7 8.5 -12t17.5 -5zM114 274q-11 0 -8 10l106 322v3h-50q-6 0 -6 -6v-32q0 -10 -10 -10h-57
q-10 0 -10 10v99q0 10 10 10h196q10 0 10 -10v-50q0 -9 -3 -18l-103 -318q-3 -10 -13 -10h-62zM196 -9q-10 0 -7 10l252 678q4 10 13 10h54q10 0 7 -10l-252 -678q-4 -10 -13 -10h-54z" />
    <glyph glyph-name="partialdiff" unicode="&#x2202;" horiz-adv-x="412" 
d="M181 -11q-34 0 -60 15t-44 41.5t-27 63.5t-9 82q0 48 11 90t32 73t50.5 48.5t66.5 17.5q48 0 76 -26h2q-3 97 -27.5 153.5t-69.5 56.5q-16 0 -31 -5.5t-27 -14.5q-9 -7 -14 2l-35 51q-5 8 3 14q23 17 50.5 28.5t61.5 11.5q45 0 78.5 -22.5t56.5 -64t34.5 -101.5
t11.5 -135q0 -191 -51 -285t-139 -94zM188 77q16 0 31 11.5t27 38t20.5 69.5t11.5 106q-14 15 -29 24t-35 9q-38 0 -59.5 -39.5t-21.5 -100.5q0 -57 13.5 -87.5t41.5 -30.5z" />
    <glyph glyph-name="product" unicode="&#x220f;" horiz-adv-x="526" 
d="M377 -180q-10 0 -10 10v806q0 6 -6 6h-196q-6 0 -6 -6v-806q0 -10 -10 -10h-86q-10 0 -10 10v900q0 10 10 10h400q10 0 10 -10v-900q0 -10 -10 -10h-86z" />
    <glyph glyph-name="summation" unicode="&#x2211;" horiz-adv-x="486" 
d="M50 -180q-10 0 -10 10v74q0 5 2 9l175 405l-170 323q-3 6 -3 11v78q0 10 10 10h373q10 0 10 -10v-78q0 -10 -10 -10h-261l164 -309q3 -7 0 -14l-178 -401h285q10 0 10 -10v-78q0 -10 -10 -10h-387z" />
    <glyph glyph-name="minus" unicode="&#x2212;" 
d="M46 231q-10 0 -10 10v70q0 10 10 10h306q10 0 10 -10v-70q0 -10 -10 -10h-306z" />
    <glyph glyph-name="uni2215" unicode="&#x2215;" horiz-adv-x="143" 
d="M-85 -9q-10 0 -7 10l252 678q4 10 13 10h54q10 0 7 -10l-252 -678q-4 -10 -13 -10h-54z" />
    <glyph glyph-name="uni2219" unicode="&#x2219;" horiz-adv-x="197" 
d="M56 205q-10 0 -10 10v99q0 10 10 10h85q10 0 10 -10v-99q0 -10 -10 -10h-85z" />
    <glyph glyph-name="radical" unicode="&#x221a;" horiz-adv-x="568" 
d="M259 -180q-9 0 -12 10l-110 262q-3 6 -9 3l-58 -24q-10 -5 -13 4l-25 55q-5 9 4 13l131 58q10 5 14 -4l102 -245h3l183 778q3 10 12 10h67q11 0 8 -10l-219 -900q-3 -10 -12 -10h-66z" />
    <glyph glyph-name="infinity" unicode="&#x221e;" horiz-adv-x="667" 
d="M498 92q-48 0 -85 22.5t-80 72.5q-22 -25 -41.5 -43t-39 -29.5t-40 -17t-44.5 -5.5q-33 0 -60.5 10.5t-47.5 30.5t-31 48.5t-11 64.5q0 72 42 113.5t109 41.5q22 0 41.5 -5.5t39 -17t40 -30t43.5 -44.5q24 26 44 44.5t39 30t38.5 17t42.5 5.5q66 0 109 -41t43 -114
q0 -72 -42 -113t-109 -41zM494 166q36 0 56.5 22.5t20.5 59.5q0 36 -21 57.5t-57 21.5q-24 0 -48.5 -17.5t-62.5 -63.5q20 -23 35.5 -38.5t28 -24.5t24.5 -13t24 -4zM172 166q25 0 49.5 18.5t62.5 62.5q-38 45 -62.5 62.5t-47.5 17.5q-35 0 -56.5 -21.5t-21.5 -57.5
q0 -38 20.5 -60t55.5 -22z" />
    <glyph glyph-name="integral" unicode="&#x222b;" horiz-adv-x="312" 
d="M59 -180h-12.5t-12.5 1q-10 2 -10 10v76q0 10 10 10h17q28 0 41 18.5t13 61.5v560q0 94 37 138.5t111 44.5h13t12 -1q10 -2 10 -10v-76q0 -10 -10 -10h-16q-29 0 -42 -18.5t-13 -61.5v-560q0 -94 -37 -138.5t-111 -44.5z" />
    <glyph glyph-name="approxequal" unicode="&#x2248;" horiz-adv-x="414" 
d="M269 306q-24 0 -40.5 8t-30.5 17q-11 8 -21.5 14t-23.5 6q-15 0 -25 -8t-24 -32q-5 -8 -14 -3l-47 25q-10 5 -4 15q23 43 47.5 63.5t58.5 20.5q25 0 41 -8t30 -17q11 -8 21.5 -14.5t23.5 -6.5q16 0 26 8.5t24 32.5q5 8 14 3l46 -25q10 -5 4 -15q-23 -43 -47 -63.5
t-59 -20.5zM269 122q-24 0 -40.5 8t-30.5 17q-11 8 -21.5 14t-23.5 6q-15 0 -25 -8t-24 -32q-5 -8 -14 -3l-47 25q-10 5 -4 15q23 43 47.5 63.5t58.5 20.5q25 0 41 -8t30 -17q11 -8 21.5 -14t23.5 -6q16 0 26 8t24 32q5 8 14 3l46 -25q10 -5 4 -15q-23 -43 -47 -63.5
t-59 -20.5z" />
    <glyph glyph-name="notequal" unicode="&#x2260;" 
d="M261 328l-48 -104h139q10 0 10 -10v-69q0 -10 -10 -10h-181l-34 -74q-4 -10 -13 -10h-55q-11 0 -8 10l34 74h-49q-10 0 -10 10v69q0 10 10 10h91l48 104h-139q-10 0 -10 10v69q0 10 10 10h181l35 74q4 10 13 10h55q12 0 7 -10l-35 -74h50q10 0 10 -10v-69q0 -10 -10 -10
h-91z" />
    <glyph glyph-name="lessequal" unicode="&#x2264;" 
d="M46 250q-10 3 -10 14v62q0 11 10 14l306 123q10 3 10 -7v-74q0 -9 -10 -13l-191 -73v-2l191 -73q10 -4 10 -13v-74q0 -10 -10 -7zM46 0q-10 0 -10 10v69q0 10 10 10h306q10 0 10 -10v-69q0 -10 -10 -10h-306z" />
    <glyph glyph-name="greaterequal" unicode="&#x2265;" 
d="M46 127q-10 -3 -10 7v74q0 9 10 13l192 73v2l-192 73q-10 4 -10 13v74q0 10 10 7l306 -123q10 -3 10 -14v-62q0 -11 -10 -14zM46 0q-10 0 -10 10v69q0 10 10 10h306q10 0 10 -10v-69q0 -10 -10 -10h-306z" />
    <glyph glyph-name="lozenge" unicode="&#x25ca;" horiz-adv-x="445" 
d="M187 -52q-10 0 -14 10l-151 364q-3 7 0 14l151 364q4 10 14 10h72q10 0 14 -10l150 -364q3 -7 0 -14l-150 -364q-4 -10 -14 -10h-72zM227 51l107 278l-111 278h-2l-109 -278l113 -278h2z" />
    <glyph glyph-name="uniF8FF" unicode="&#xf8ff;" horiz-adv-x="388" 
d="M10 0q-10 0 -10 10v660q0 10 10 10h368q10 0 10 -10v-660q0 -10 -10 -10h-368zM324 55q6 0 6 6v558q0 6 -6 6h-259q-6 0 -6 -6v-558q0 -6 6 -6h259zM168 224q-10 0 -10 10v46q0 21 13 44l36 67q9 17 13 30t4 34q0 19 -3 28q-7 20 -30 20q-22 0 -29 -20q-2 -5 -2.5 -13
t-0.5 -28q0 -10 -11 -8l-46 4q-9 1 -9 11q0 23 2 34.5t4 18.5q9 28 34 44.5t59 16.5q35 0 60 -16.5t34 -44.5q2 -7 4 -18t2 -26q0 -26 -5 -42.5t-16 -36.5l-35 -67q-5 -9 -7.5 -17.5t-2.5 -18.5v-42q0 -10 -10 -10h-48zM168 114q-10 0 -10 10v58q0 10 10 10h48q10 0 10 -10
v-58q0 -10 -10 -10h-48z" />
    <glyph glyph-name="glyph220" horiz-adv-x="0" 
 />
    <glyph glyph-name="glyph221" horiz-adv-x="415" 
d="M241 761q-10 0 -20 10l-99 107q-3 4 -1.5 7t6.5 3h81q7 0 10 -2.5t7 -7.5l76 -107q3 -4 1.5 -7t-6.5 -3h-55z" />
    <glyph glyph-name="glyph222" horiz-adv-x="415" 
d="M129 761q-5 0 -7 3t1 7l77 107q4 5 7 7.5t9 2.5h81q5 0 6.5 -3t-1.5 -7l-98 -107q-10 -10 -20 -10h-55z" />
    <glyph glyph-name="glyph223" horiz-adv-x="415" 
d="M275 750q-10 0 -19 10l-48 60h-2l-47 -60q-9 -10 -19 -10h-60q-5 0 -6 3t2 7l88 125q7 10 17 10h52q11 0 18 -10l88 -125q3 -4 2 -7t-6 -3h-60z" />
    <glyph glyph-name="glyph224" horiz-adv-x="415" 
d="M181 747q-10 0 -17 10l-88 125q-3 4 -2 7t6 3h60q10 0 19 -10l47 -59h2l48 59q9 10 19 10h60q5 0 6 -3t-2 -7l-88 -125q-7 -10 -18 -10h-52z" />
    <glyph glyph-name="glyph225" horiz-adv-x="415" 
d="M172 511q-9 0 -9 9v150q0 10 10 10h69q10 0 10 -10v-57q0 -8 -1.5 -12.5t-5.5 -9.5l-60 -73q-6 -7 -13 -7z" />
    <glyph glyph-name="glyph226" horiz-adv-x="415" 
d="M251 763q-17 0 -28 5t-24 13q-12 8 -19.5 12t-18.5 4q-16 0 -26.5 -7.5t-21.5 -18.5q-4 -4 -8 -2.5t-4 6.5v61q0 9 10 19t22 17t29 7t28 -5t23 -13q13 -8 20.5 -12t18.5 -4q16 0 26.5 7.5t21.5 18.5q4 4 8 2.5t4 -6.5v-61q0 -5 -2 -9t-8 -10q-10 -10 -22 -17t-29 -7z" />
    <glyph glyph-name="glyph227" horiz-adv-x="415" 
d="M251 769q-10 0 -10 10v86q0 10 10 10h65q10 0 10 -10v-86q0 -10 -10 -10h-65zM99 769q-10 0 -10 10v86q0 10 10 10h65q10 0 10 -10v-86q0 -10 -10 -10h-65z" />
    <glyph glyph-name="glyph228" horiz-adv-x="415" 
d="M105 780q-10 0 -10 10v60q0 10 10 10h205q10 0 10 -10v-60q0 -10 -10 -10h-205z" />
    <glyph glyph-name="glyph229" horiz-adv-x="415" 
d="M207 742q-30 0 -52 9.5t-37.5 26t-24 38t-10.5 45.5q0 10 10 10h45q7 0 10 -10q8 -21 22 -34.5t37 -13.5t37.5 13.5t22.5 34.5q3 10 10 10h45q10 0 10 -10q-2 -24 -10.5 -45.5t-24 -38t-38 -26t-52.5 -9.5z" />
    <glyph glyph-name="glyph230" horiz-adv-x="415" 
d="M207 721q-38 0 -64 26t-26 65q0 38 26 64t64 26q39 0 65 -26t26 -64q0 -39 -26 -65t-65 -26zM207 764q20 0 33 14t13 34t-13 33.5t-33 13.5t-32.5 -13.5t-12.5 -33.5t12.5 -34t32.5 -14z" />
    <glyph glyph-name="glyph231" horiz-adv-x="415" 
d="M230 761q-5 0 -6.5 2.5t1.5 7.5l69 107q7 10 17 10h68q5 0 6 -3t-2 -7l-84 -107q-9 -10 -19 -10h-50zM97 761q-5 0 -6.5 2.5t1.5 7.5l70 107q7 10 17 10h67q5 0 6 -3t-2 -7l-84 -107q-9 -10 -19 -10h-50z" />
    <glyph glyph-name="glyph232" horiz-adv-x="415" 
d="M166 769q-10 0 -10 10v86q0 10 10 10h82q10 0 10 -10v-86q0 -10 -10 -10h-82z" />
    <glyph glyph-name="glyph233" horiz-adv-x="415" 
d="M171 -221q-8 0 -8 10v147q0 10 10 10h70q10 0 10 -10v-55q0 -13 -8 -22l-61 -73q-6 -7 -13 -7z" />
    <glyph glyph-name="glyph234" horiz-adv-x="415" 
d="M173 572q-10 0 -10 10v55q0 8 1 12.5t6 9.5l61 73q6 7 13 7q9 0 9 -10v-147q0 -10 -10 -10h-70z" />
    <glyph glyph-name="glyph235" horiz-adv-x="421" 
d="M20 0q-10 0 -8 10l147 660q3 10 11 10h84q9 0 11 -10l144 -660q2 -10 -8 -10h-381zM282 98q6 0 5 6l-74 386h-3l-76 -386q-2 -6 5 -6h143z" />
    <glyph glyph-name="glyph236" horiz-adv-x="429" 
d="M253 0q-10 0 -10 10v73q0 9 9 15q10 8 15.5 18t8.5 34.5t4 69t1 120.5q0 69 -0.5 108.5t-1 60t-2 28.5t-3.5 15q-5 17 -20.5 28.5t-38.5 11.5t-39 -11.5t-21 -28.5q-2 -7 -3.5 -15t-2.5 -28.5t-1 -60v-108.5q0 -76 1 -120.5t4 -69t8.5 -34.5t15.5 -18q9 -6 9 -15v-73
q0 -10 -10 -10h-135q-10 0 -10 10v78q0 10 10 10h37v1q-11 10 -18.5 22.5t-12 37t-6.5 67.5t-2 114t0.5 113t2 67t4 37.5t6.5 23.5q17 51 58.5 79.5t104.5 28.5t104 -28.5t58 -79.5q4 -11 6.5 -23.5t4 -37.5t2 -67t0.5 -113t-2 -114t-6.5 -67.5t-12 -37t-18.5 -22.5v-1h37
q10 0 10 -10v-78q0 -10 -10 -10h-135z" />
    <glyph glyph-name="glyph237" horiz-adv-x="407" 
d="M264 0q-10 0 -10 10v38h-1q-9 -28 -29 -42t-47 -14q-7 0 -14 1.5t-10 4.5v-168q0 -10 -10 -10h-82q-10 0 -10 10v642q0 10 10 10h82q10 0 10 -10v-317q0 -70 51 -70q50 0 50 70v317q0 10 10 10h82q10 0 10 -10v-462q0 -10 -10 -10h-82z" />
    <glyph glyph-name="exclam.aalt" horiz-adv-x="232" 
d="M92 170q-10 0 -10 10l-22 332q0 10 10 10h92q10 0 10 -10l-22 -332q0 -10 -10 -10h-48zM74 0q-10 0 -10 10v99q0 10 10 10h84q10 0 10 -10v-99q0 -10 -10 -10h-84z" />
    <glyph glyph-name="dollar.sc" horiz-adv-x="378" 
d="M183 -53q-10 0 -10 10v35q-68 4 -100 39t-37 99q0 11 8 12l70 13q9 2 11 -8q2 -34 13.5 -50t34.5 -19v146l-20 6q-58 17 -85 52t-27 99q0 69 34.5 107t97.5 42v27q0 10 10 10h16q10 0 10 -10v-27q58 -5 89 -39.5t39 -94.5q0 -11 -8 -12l-67 -9q-9 -2 -11 8q-7 53 -42 60
v-134l14 -4q64 -19 91 -55t27 -104q0 -67 -30.5 -108t-101.5 -46v-35q0 -10 -10 -10h-16zM133 383q0 -23 8 -37.5t32 -25.5v124q-40 -7 -40 -61zM248 145q0 23 -8.5 39t-30.5 27v-132q20 5 29.5 20t9.5 46z" />
    <glyph glyph-name="percent.aalt" horiz-adv-x="664" 
d="M183 -9q-10 0 -7 10l239 519q4 10 13 10h53q10 0 7 -10l-239 -519q-4 -10 -13 -10h-53zM166 256q-34 0 -57.5 15t-31.5 40q-4 10 -5.5 26t-1.5 55q0 19 0.5 32t1 22t2 15t3.5 11q8 26 31.5 41t57.5 15q35 0 58.5 -15t31.5 -41q1 -5 2.5 -11t2.5 -15t1.5 -22t0.5 -32
q0 -39 -2 -55t-5 -26q-8 -25 -31.5 -40t-58.5 -15zM166 318q17 0 22 15q1 2 1.5 5t1 9.5t0.5 17v27.5v27.5t-0.5 16.5t-1 9t-1.5 6q-5 14 -22 14q-16 0 -21 -14q-1 -3 -1.5 -6t-1 -9t-0.5 -16.5v-27.5v-27.5t0.5 -17t1 -9.5t1.5 -5q4 -15 21 -15zM497 -7q-34 0 -57.5 15
t-31.5 41q-4 10 -5.5 25.5t-1.5 54.5q0 19 0.5 32t1 22t2 15t3.5 11q8 26 31.5 41t57.5 15q35 0 58 -15t31 -41q2 -5 3.5 -11t2.5 -15t1.5 -22t0.5 -32q0 -39 -2 -54.5t-6 -25.5q-8 -26 -31 -41t-58 -15zM497 56q17 0 22 14q1 2 1.5 5t1 9.5t0.5 17v27.5v27.5t-0.5 17
t-1 9.5t-1.5 5q-5 14 -22 14q-16 0 -21 -14q-1 -2 -1.5 -5t-1 -9.5t-0.5 -17v-27.5v-27.5t0.5 -17t1 -9.5t1.5 -5q5 -14 21 -14z" />
    <glyph glyph-name="ampersand.aalt" horiz-adv-x="491" 
d="M395 -6q-27 0 -39.5 5.5t-23.5 19.5l-19 25q-52 -53 -125 -53q-66 0 -100.5 33.5t-34.5 87.5q0 18 3.5 35t13 36.5t27 42t45.5 50.5l-9 13q-31 41 -43.5 66.5t-12.5 53.5q0 52 37 87t98 35q30 0 54.5 -9.5t42.5 -26t27.5 -38.5t9.5 -48q0 -14 -3.5 -27t-13 -29.5
t-26.5 -36.5t-44 -47l59 -75l39 61q5 8 14 4l54 -35q9 -5 4 -14l-56 -86l19 -23q8 -11 14.5 -14t15.5 -3h3q10 0 10 -10v-70q0 -10 -10 -10h-30zM171 412q0 -12 5.5 -27.5t28.5 -46.5q29 29 38.5 44.5t9.5 29.5q0 15 -10 28t-30 13q-19 0 -30.5 -13t-11.5 -28zM198 79
q14 0 29.5 8t33.5 28l-67 90q-27 -29 -36 -45.5t-9 -35.5q0 -20 13 -32.5t36 -12.5z" />
    <glyph glyph-name="zero.sc" horiz-adv-x="378" 
d="M189 -9q-52 0 -87 23t-49 66q-3 8 -4.5 18t-3 29t-2 50.5t-0.5 83.5t0.5 83.5t2 50.5t3 28.5t4.5 17.5q14 44 49 67t87 23t87 -23t49 -67q3 -8 4.5 -17.5t3 -28.5t2 -50.5t0.5 -83.5t-0.5 -83.5t-2 -50.5t-3 -29t-4.5 -18q-14 -43 -49 -66t-87 -23zM189 84q31 0 40 28
q1 4 2 9.5t1.5 20.5t0.5 43v76v76t-0.5 42.5t-1.5 20t-2 9.5q-9 28 -40 28t-40 -28q-1 -4 -2 -9.5t-1.5 -20t-0.5 -42.5v-76v-76t0.5 -43t1.5 -20.5t2 -9.5q9 -28 40 -28z" />
    <glyph glyph-name="one.sc" horiz-adv-x="378" 
d="M165 0q-10 0 -10 10v398h-1l-79 -44q-11 -6 -11 7v83q0 8 7 14l81 49q8 5 16 5h79q10 0 10 -10v-502q0 -10 -10 -10h-82z" />
    <glyph glyph-name="two.sc" horiz-adv-x="378" 
d="M53 0q-9 0 -9 8v72q0 7 3 11l159 207q14 19 19.5 35.5t5.5 46.5q0 12 -0.5 19t-2.5 12q-9 26 -41 26t-41 -26q-2 -5 -2.5 -12t-0.5 -24q0 -12 -12 -10l-77 8q-10 1 -10 12q0 20 1 32.5t5 24.5q14 43 50 66t87 23t87 -22.5t50 -66.5q5 -14 7 -27.5t2 -35.5q0 -47 -12 -77
t-34 -58l-119 -150v-1h155q10 0 10 -10v-73q0 -10 -10 -10h-270z" />
    <glyph glyph-name="three.sc" horiz-adv-x="378" 
d="M187 -9q-51 0 -87 23t-50 66q-4 12 -5 23.5t-1 23.5q0 11 10 12l77 8q12 2 12 -10q0 -17 3 -26q10 -27 41 -27t41 27q2 5 2.5 13.5t0.5 31.5q0 17 -0.5 25.5t-2.5 13.5q-5 13 -14.5 19t-29.5 6h-13q-10 0 -10 10v73q0 10 10 10h13q36 0 44 24q2 5 2.5 11.5t0.5 23.5
q0 18 -0.5 26t-2.5 13q-9 26 -41 26t-41 -26q-3 -11 -3 -26q0 -12 -12 -10l-77 7q-10 1 -10 12q0 13 1 24.5t5 23.5q14 43 50 66t87 23t87 -22.5t50 -66.5q2 -7 4 -13t3 -13.5t1.5 -18t0.5 -25.5q0 -17 -1.5 -28t-4.5 -20q-12 -34 -46 -53v-2q17 -10 28.5 -22.5t17.5 -30.5
q3 -9 4.5 -21.5t1.5 -38.5q0 -31 -2 -46.5t-7 -29.5q-14 -44 -50 -66.5t-87 -22.5z" />
    <glyph glyph-name="four.sc" horiz-adv-x="378" 
d="M222 0q-10 0 -10 10v49q0 6 -6 6h-171q-10 0 -10 10v73q0 5 2 11l130 355q3 8 12 8h84q11 0 8 -11l-129 -350v-2h74q6 0 6 6v125q0 10 10 10h80q10 0 10 -10v-125q0 -6 5 -6h28q10 0 10 -10v-74q0 -10 -10 -10h-27q-6 0 -6 -6v-49q0 -10 -10 -10h-80z" />
    <glyph glyph-name="five.sc" horiz-adv-x="378" 
d="M187 -9q-51 0 -87 22.5t-50 66.5q-5 15 -5 33q0 11 10 12l76 8q11 1 13 -10l3 -13q9 -26 41 -26q30 0 39 27q2 5 3 15t1 41t-1 40.5t-3 14.5q-9 27 -39 27q-28 0 -40 -18q-5 -8 -16 -8h-67q-10 0 -10 10v279q0 10 10 10h258q10 0 10 -10v-74q0 -10 -10 -10h-171
q-6 0 -6 -6v-98h2q23 18 68 18q44 0 71 -21t38 -56q2 -6 3.5 -13.5t2.5 -18.5t1.5 -27t0.5 -39q0 -39 -2.5 -57t-6.5 -31q-14 -44 -50 -66t-87 -22z" />
    <glyph glyph-name="six.sc" horiz-adv-x="378" 
d="M189 -9q-51 0 -87 22.5t-50 66.5q-5 14 -7 29.5t-2 44.5q0 24 1.5 43.5t5 37t9.5 33.5t14 34l99 210q5 10 16 10h81q11 0 6 -11l-96 -198l2 -2q10 4 33 4q43 0 71.5 -20.5t40.5 -58.5q5 -14 7 -32t2 -50q0 -29 -2 -44.5t-7 -29.5q-14 -44 -50 -66.5t-87 -22.5zM189 84
q30 0 40 27q2 5 3 13.5t1 29.5q0 20 -1 28t-3 13q-9 27 -40 27t-40 -27q-2 -5 -3 -13t-1 -28q0 -21 1 -29.5t3 -13.5q10 -27 40 -27z" />
    <glyph glyph-name="seven.sc" horiz-adv-x="378" 
d="M86 0q-5 0 -7.5 3t-0.5 10l157 414v1h-90q-6 0 -6 -6v-37q0 -10 -10 -10h-73q-10 0 -10 10v127q0 10 10 10h270q10 0 10 -10v-75q0 -5 -2 -11l-154 -416q-4 -10 -15 -10h-79z" />
    <glyph glyph-name="eight.sc" horiz-adv-x="378" 
d="M189 -9q-51 0 -87 22.5t-50 66.5q-5 14 -7 29.5t-2 46.5q0 26 2 39t5 23q6 17 16 31.5t26 22.5v2q-16 8 -26 22.5t-16 31.5q-3 10 -5 21.5t-2 28.5q0 22 2 36t7 28q14 44 50 66.5t87 22.5t87 -22.5t50 -66.5q5 -14 7 -28t2 -36q0 -17 -2 -28.5t-5 -21.5q-6 -17 -16 -31.5
t-26 -22.5v-2q16 -8 26 -22.5t16 -31.5q3 -10 5 -23t2 -39q0 -32 -2 -47t-7 -29q-14 -44 -50 -66.5t-87 -22.5zM189 319q30 0 40 27q2 5 3 12t1 20q0 14 -1 21t-3 12q-9 26 -40 26t-40 -26q-2 -5 -3 -12t-1 -21q0 -13 1 -20t3 -12q10 -27 40 -27zM189 84q30 0 40 27
q2 5 3 13.5t1 31.5t-1 31t-3 13q-9 27 -40 27t-40 -27q-2 -5 -3 -13t-1 -31t1 -31.5t3 -13.5q10 -27 40 -27z" />
    <glyph glyph-name="nine.sc" horiz-adv-x="378" 
d="M109 0q-12 0 -6 11l96 198l-2 2q-10 -4 -33 -4q-87 0 -112 79q-5 14 -7 32t-2 50q0 29 2 44.5t7 29.5q14 44 50 66.5t87 22.5t87 -22.5t50 -66.5q5 -14 7 -29.5t2 -44.5q0 -24 -1.5 -44t-5 -37t-9.5 -33t-14 -34l-99 -210q-5 -10 -16 -10h-81zM189 300q31 0 40 27
q2 5 3 13t1 28q0 21 -1 29.5t-3 13.5q-9 26 -40 26t-40 -26q-2 -5 -3 -13.5t-1 -29.5q0 -20 1 -28t3 -13q9 -27 40 -27z" />
    <glyph glyph-name="question.aalt" horiz-adv-x="341" 
d="M126 168q-10 0 -10 10v26q0 20 3 31.5t14 25.5l46 59q17 22 23.5 36t6.5 34q0 13 -3 22q-10 25 -41 25q-16 0 -26 -7.5t-14 -18.5q-3 -8 -4 -31q0 -11 -10 -9l-80 8q-9 1 -9 10q0 20 2.5 34t6.5 25q14 41 50 62t85 21q51 0 87 -22t50 -64q5 -14 6.5 -27t1.5 -24
q0 -29 -8 -51.5t-22 -40.5l-46 -58q-8 -11 -11.5 -21t-3.5 -25v-20q0 -10 -10 -10h-84zM126 0q-10 0 -10 10v99q0 10 10 10h84q10 0 10 -10v-99q0 -10 -10 -10h-84z" />
    <glyph glyph-name="a.sc" horiz-adv-x="391" 
d="M293 0q-8 0 -10 10l-21 87h-132l-21 -87q-2 -10 -10 -10h-81q-11 0 -8 10l134 502q3 10 12 10h80q9 0 12 -10l134 -502q3 -10 -8 -10h-81zM152 188h88l-42 179h-3z" />
    <glyph glyph-name="B.aalt" horiz-adv-x="401" 
d="M62 0q-10 0 -10 10v502q0 10 10 10h139q88 0 126 -32t38 -101q0 -51 -17.5 -77.5t-52.5 -38.5v-1q37 -8 57.5 -37.5t20.5 -81.5q0 -84 -45 -118.5t-138 -34.5h-128zM190 311q41 0 55.5 13.5t14.5 46.5q0 32 -14.5 45.5t-55.5 13.5h-30q-6 0 -6 -6v-107q0 -6 6 -6h30z
M193 91q44 0 60 15t16 50q0 36 -16 50.5t-60 14.5h-33q-6 0 -6 -6v-118q0 -6 6 -6h33z" />
    <glyph glyph-name="c.aalt" horiz-adv-x="384" 
d="M198 -9q-54 0 -92.5 26t-53.5 73q-3 9 -5 19t-3.5 28t-2 47t-0.5 77t0.5 77t2 46.5t3.5 27.5t5 19q15 48 53.5 74t92.5 26q63 0 105 -34.5t50 -100.5q2 -9 -8 -11l-76 -13q-10 -2 -12 9q-6 27 -19.5 41.5t-38.5 14.5q-39 0 -51 -37q-2 -5 -2.5 -11t-1.5 -20t-1 -39.5
v-68.5v-68.5t1 -40t1.5 -20.5t2.5 -11q12 -37 51 -37q26 0 39 15t19 42q2 11 12 8l76 -12q10 -2 8 -11q-8 -66 -50 -100.5t-105 -34.5z" />
    <glyph glyph-name="D.aalt" horiz-adv-x="419" 
d="M62 0q-10 0 -10 10v502q0 10 10 10h148q64 0 101 -23.5t53 -74.5q4 -11 6.5 -24t4 -32t2.5 -45t1 -62t-1 -62t-2.5 -45t-4 -32.5t-6.5 -24.5q-16 -51 -53 -74t-101 -23h-148zM200 93q28 0 44 10.5t24 34.5q2 7 3.5 15.5t2.5 22t1.5 34t0.5 51.5t-0.5 51.5t-1.5 34
t-2.5 22t-3.5 15.5q-14 44 -68 44h-40q-6 0 -6 -6v-323q0 -6 6 -6h40z" />
    <glyph glyph-name="E.aalt" horiz-adv-x="361" 
d="M62 0q-10 0 -10 10v502q0 10 10 10h262q10 0 10 -10v-74q0 -10 -10 -10h-164q-6 0 -6 -6v-106q0 -6 6 -6h142q10 0 10 -10v-74q0 -10 -10 -10h-142q-6 0 -6 -6v-111q0 -6 6 -6h164q10 0 10 -10v-73q0 -10 -10 -10h-262z" />
    <glyph glyph-name="F.aalt" horiz-adv-x="359" 
d="M62 0q-10 0 -10 10v502q0 10 10 10h262q10 0 10 -10v-74q0 -10 -10 -10h-164q-6 0 -6 -6v-107q0 -6 6 -6h142q10 0 10 -10v-73q0 -10 -10 -10h-142q-6 0 -6 -6v-200q0 -10 -10 -10h-82z" />
    <glyph glyph-name="g.aalt" horiz-adv-x="404" 
d="M202 -9q-55 0 -95 26t-55 73q-3 9 -5 19t-3.5 28t-2 47t-0.5 77t0.5 77t2 46.5t3.5 27.5t5 19q15 48 55 74t95 26q65 0 108.5 -34.5t51.5 -100.5q2 -9 -8 -11l-76 -13q-10 -2 -12 9q-6 28 -21 42t-42 14q-20 0 -34.5 -8.5t-20.5 -28.5q-2 -5 -2.5 -11t-1.5 -20t-1 -39.5
v-68.5v-68.5t1 -40t1.5 -20.5t2.5 -11q6 -19 21 -28t36 -9t36 9t21 28q1 5 2.5 10.5t2 14.5t1 23.5t0.5 37.5q0 6 -6 6h-54q-10 0 -10 10v68q0 10 10 10h146q10 0 10 -10v-31q0 -47 -0.5 -76t-2 -47t-3.5 -28t-5 -19q-15 -47 -55 -73t-96 -26z" />
    <glyph glyph-name="H.aalt" horiz-adv-x="424" 
d="M280 0q-10 0 -10 10v202q0 6 -6 6h-104q-6 0 -6 -6v-202q0 -10 -10 -10h-82q-10 0 -10 10v502q0 10 10 10h82q10 0 10 -10v-194q0 -6 6 -6h104q6 0 6 6v194q0 10 10 10h82q10 0 10 -10v-502q0 -10 -10 -10h-82z" />
    <glyph glyph-name="dotlessi.aalt" horiz-adv-x="206" 
d="M62 0q-10 0 -10 10v502q0 10 10 10h82q10 0 10 -10v-502q0 -10 -10 -10h-82z" />
    <glyph glyph-name="J.aalt" horiz-adv-x="335" 
d="M125 -9q-36 0 -63.5 12t-43.5 28q-6 7 1 14l57 52q7 5 15 0q6 -5 15.5 -9t22.5 -4q25 0 39 15t14 50v363q0 10 10 10h82q10 0 10 -10v-359q0 -84 -43 -123t-116 -39z" />
    <glyph glyph-name="K.aalt" horiz-adv-x="421" 
d="M312 0q-8 0 -12 7l-101 209l-45 -70v-136q0 -10 -10 -10h-82q-10 0 -10 10v502q0 10 10 10h82q10 0 10 -10v-212l126 215q4 7 14 7h85q4 0 5.5 -3t-0.5 -7l-127 -202l147 -300q2 -4 0.5 -7t-5.5 -3h-87z" />
    <glyph glyph-name="L.aalt" horiz-adv-x="348" 
d="M62 0q-10 0 -10 10v502q0 10 10 10h82q10 0 10 -10v-413q0 -6 6 -6h161q10 0 10 -10v-73q0 -10 -10 -10h-259z" />
    <glyph glyph-name="M.aalt" horiz-adv-x="530" 
d="M395 0q-10 0 -10 10v318h-5l-80 -225q-3 -10 -13 -10h-44q-10 0 -13 10l-80 225h-5v-318q0 -10 -10 -10h-73q-10 0 -10 10v502q0 10 10 10h82q13 0 17 -10l104 -283h4l101 283q4 10 17 10h81q10 0 10 -10v-502q0 -10 -10 -10h-73z" />
    <glyph glyph-name="N.aalt" horiz-adv-x="441" 
d="M287 0q-12 0 -16 10l-124 349h-5v-349q0 -10 -10 -10h-70q-10 0 -10 10v502q0 10 10 10h97q13 0 16 -10l119 -347h5v347q0 10 10 10h70q10 0 10 -10v-502q0 -10 -10 -10h-92z" />
    <glyph glyph-name="o.sc" horiz-adv-x="404" 
d="M202 -9q-55 0 -95 26t-55 73q-3 9 -5 19t-3.5 28t-2 47t-0.5 77t0.5 77t2 46.5t3.5 27.5t5 19q15 48 55 74t95 26q56 0 96 -26t55 -74q3 -9 5 -19t3.5 -27.5t2 -46.5t0.5 -77t-0.5 -77t-2 -47t-3.5 -28t-5 -19q-15 -47 -55 -73t-96 -26zM202 84q42 0 55 37q1 5 2 11
t2 20.5t1 40v68.5v68.5t-1 39.5t-2 20t-2 11q-13 37 -55 37q-20 0 -34 -8.5t-20 -28.5q-2 -5 -2.5 -11t-1.5 -20t-1 -39.5v-68.5v-68.5t1 -40t1.5 -20.5t2.5 -11q6 -19 20 -28t34 -9z" />
    <glyph glyph-name="P.aalt" horiz-adv-x="399" 
d="M62 0q-10 0 -10 10v502q0 10 10 10h141q80 0 125 -41t45 -122t-45 -121.5t-125 -40.5h-43q-6 0 -6 -6v-181q0 -10 -10 -10h-82zM192 288q43 0 61 16.5t18 54.5t-18 54.5t-61 16.5h-32q-6 0 -6 -6v-130q0 -6 6 -6h32z" />
    <glyph glyph-name="Q.aalt" horiz-adv-x="404" 
d="M341 -22q-7 -7 -14 1l-35 39q-18 -14 -41 -20.5t-49 -6.5q-55 0 -95 26t-55 73q-3 9 -5 19t-3.5 28t-2 47t-0.5 77t0.5 77t2 47t3.5 28t5 19q15 47 55 73t95 26q56 0 96 -26t55 -73q3 -9 5 -19t3.5 -28t2 -47t0.5 -77t-1 -78.5t-3.5 -51t-7.5 -34.5t-12 -28l40 -39
q6 -8 0 -14zM205 81q16 0 28 6l-39 40q-6 7 1 14l30 28q3 3 7.5 4t8.5 -4l23 -27h2v119q0 43 -0.5 68.5t-1.5 39.5t-2.5 20.5t-3.5 11.5q-6 20 -21 28.5t-35 8.5t-34.5 -8.5t-20.5 -28.5q-2 -5 -2.5 -11.5t-1.5 -20.5t-1 -39.5v-68.5v-68.5t1 -40t1.5 -21t2.5 -11.5
q12 -39 58 -39z" />
    <glyph glyph-name="R.aalt" horiz-adv-x="414" 
d="M297 0q-11 0 -14 10l-72 192h-7h-43q-6 0 -6 -6v-186q0 -10 -10 -10h-82q-10 0 -10 10v502q0 10 10 10h141q80 0 125 -40.5t45 -119.5q0 -51 -18.5 -85.5t-52.5 -53.5l85 -213q3 -10 -7 -10h-84zM193 293q43 0 61 16t18 53q0 36 -18 52t-61 16h-32q-6 0 -6 -6v-125
q0 -6 6 -6h32z" />
    <glyph glyph-name="S.aalt" horiz-adv-x="377" 
d="M195 -9q-78 0 -118.5 36t-45.5 102q-1 10 8 12l78 13q9 2 11 -8q9 -66 64 -66q59 0 59 66q0 27 -13 43.5t-51 28.5l-38 12q-30 10 -51.5 22.5t-34.5 30.5t-19 42t-6 56q0 71 42 110.5t111 39.5q74 0 111.5 -36t45.5 -97q1 -10 -8 -12l-75 -10q-9 -2 -11 8q-5 27 -19 42
t-40 15q-57 0 -57 -58q0 -24 11.5 -39.5t47.5 -26.5l38 -12q33 -10 55 -23.5t35.5 -32.5t19.5 -44t6 -58q0 -72 -39 -114t-117 -42z" />
    <glyph glyph-name="T.aalt" horiz-adv-x="354" 
d="M136 0q-10 0 -10 10v412q0 6 -6 6h-96q-10 0 -10 10v74q0 10 10 10h306q10 0 10 -10v-74q0 -10 -10 -10h-96q-6 0 -6 -6v-412q0 -10 -10 -10h-82z" />
    <glyph glyph-name="U.aalt" horiz-adv-x="421" 
d="M210 -9q-74 0 -116.5 41.5t-42.5 121.5v358q0 10 10 10h82q10 0 10 -10v-358q0 -70 57 -70q58 0 58 70v358q0 10 10 10h82q10 0 10 -10v-358q0 -80 -43 -121.5t-117 -41.5z" />
    <glyph glyph-name="V.aalt" horiz-adv-x="374" 
d="M150 0q-8 0 -10 10l-124 502q-2 10 9 10h81q10 0 11 -10l71 -340h3l69 340q1 10 11 10h79q10 0 8 -10l-124 -502q-2 -10 -10 -10h-74z" />
    <glyph glyph-name="W.aalt" horiz-adv-x="539" 
d="M346 0q-8 0 -10 10l-65 322h-2l-67 -322q-2 -10 -10 -10h-69q-8 0 -10 10l-97 502q-2 10 9 10h79q10 0 11 -10l47 -327h1l66 327q1 10 11 10h58q10 0 11 -10l67 -327h2l47 327q1 10 11 10h78q11 0 9 -10l-97 -502q-2 -10 -10 -10h-70z" />
    <glyph glyph-name="X.aalt" horiz-adv-x="384" 
d="M278 0q-10 0 -14 10l-71 156h-2l-71 -156q-4 -10 -14 -10h-84q-13 0 -7 11l124 262l-111 238q-6 11 7 11h82q10 0 14 -10l61 -139h2l61 139q4 10 14 10h80q12 0 7 -11l-110 -238l123 -262q5 -11 -7 -11h-84z" />
    <glyph glyph-name="Y.aalt" horiz-adv-x="359" 
d="M139 0q-10 0 -10 10v202l-121 300q-3 10 8 10h83q9 0 12 -10l68 -194h3l68 194q3 10 12 10h81q11 0 8 -10l-121 -300v-202q0 -10 -10 -10h-81z" />
    <glyph glyph-name="z.aalt" horiz-adv-x="347" 
d="M42 0q-10 0 -10 10v72q0 7 3 13l173 332v1h-156q-10 0 -10 10v74q0 10 10 10h252q10 0 10 -10v-73q0 -7 -3 -13l-172 -331v-2h166q10 0 10 -10v-73q0 -10 -10 -10h-263z" />
    <glyph glyph-name="Agrave.aalt" horiz-adv-x="391" 
d="M170 595q-11 0 -18 10l-90 125q-3 4 -1.5 7t6.5 3h81q10 0 16 -10l69 -125q5 -10 -6 -10h-57zM293 0q-8 0 -10 10l-21 87h-132l-21 -87q-2 -10 -10 -10h-81q-11 0 -8 10l134 502q3 10 12 10h80q9 0 12 -10l134 -502q3 -10 -8 -10h-81zM152 188h88l-42 179h-3z" />
    <glyph glyph-name="Aacute.aalt" horiz-adv-x="391" 
d="M293 0q-8 0 -10 10l-21 87h-132l-21 -87q-2 -10 -10 -10h-81q-11 0 -8 10l134 502q3 10 12 10h80q9 0 12 -10l134 -502q3 -10 -8 -10h-81zM152 188h88l-42 179h-3zM166 595q-11 0 -6 10l69 125q6 10 16 10h81q5 0 6.5 -3t-1.5 -7l-90 -125q-8 -10 -18 -10h-57z" />
    <glyph glyph-name="Acircumflex.aalt" horiz-adv-x="391" 
d="M293 0q-8 0 -10 10l-21 87h-132l-21 -87q-2 -10 -10 -10h-81q-11 0 -8 10l134 502q3 10 12 10h80q9 0 12 -10l134 -502q3 -10 -8 -10h-81zM152 188h88l-42 179h-3zM265 595q-10 0 -19 10l-48 60h-2l-47 -60q-9 -10 -19 -10h-60q-5 0 -6 3t2 7l88 125q7 10 17 10h52
q11 0 18 -10l88 -125q3 -4 2 -7t-6 -3h-60z" />
    <glyph glyph-name="Atilde.aalt" horiz-adv-x="391" 
d="M242 607q-17 0 -28 5t-24 13q-12 8 -19.5 12t-18.5 4q-16 0 -26.5 -7.5t-21.5 -18.5q-4 -4 -8 -2.5t-4 6.5v61q0 9 10 19t22 17t29 7t28 -5t23 -13q13 -8 20.5 -12t18.5 -4q16 0 26.5 7t21.5 19q4 4 8 2.5t4 -6.5v-61q0 -5 -2 -9t-8 -10q-10 -10 -22 -17t-29 -7zM293 0
q-8 0 -10 10l-21 87h-132l-21 -87q-2 -10 -10 -10h-81q-11 0 -8 10l134 502q3 10 12 10h80q9 0 12 -10l134 -502q3 -10 -8 -10h-81zM152 188h88l-42 179h-3z" />
    <glyph glyph-name="Adieresis.aalt" horiz-adv-x="391" 
d="M293 0q-8 0 -10 10l-21 87h-132l-21 -87q-2 -10 -10 -10h-81q-11 0 -8 10l134 502q3 10 12 10h80q9 0 12 -10l134 -502q3 -10 -8 -10h-81zM152 188h88l-42 179h-3zM241 614q-10 0 -10 10v86q0 10 10 10h65q10 0 10 -10v-86q0 -10 -10 -10h-65zM89 614q-10 0 -10 10v86
q0 10 10 10h65q10 0 10 -10v-86q0 -10 -10 -10h-65z" />
    <glyph glyph-name="Amacron.aalt" horiz-adv-x="391" 
d="M293 0q-8 0 -10 10l-21 87h-132l-21 -87q-2 -10 -10 -10h-81q-11 0 -8 10l134 502q3 10 12 10h80q9 0 12 -10l134 -502q3 -10 -8 -10h-81zM152 188h88l-42 179h-3zM95 628q-10 0 -10 10v60q0 10 10 10h206q10 0 10 -10v-60q0 -10 -10 -10h-206z" />
    <glyph glyph-name="Abreve.aalt" horiz-adv-x="391" 
d="M197 596q-30 0 -52.5 9.5t-38 25.5t-24 38t-10.5 46q0 10 10 10h45q7 0 10 -10q8 -22 22.5 -34.5t37.5 -12.5t38 12.5t23 34.5q3 10 10 10h45q10 0 10 -10q-4 -49 -35 -84t-91 -35zM293 0q-8 0 -10 10l-21 87h-132l-21 -87q-2 -10 -10 -10h-81q-11 0 -8 10l134 502
q3 10 12 10h80q9 0 12 -10l134 -502q3 -10 -8 -10h-81zM152 188h88l-42 179h-3z" />
    <glyph glyph-name="Aring.aalt" horiz-adv-x="391" 
d="M197 579q-38 0 -64 26t-26 64q0 39 26 65t64 26q39 0 65 -26t26 -65q0 -38 -26 -64t-65 -26zM197 622q20 0 33 13.5t13 33.5q0 21 -13 34.5t-33 13.5t-32.5 -13.5t-12.5 -34.5q0 -20 12.5 -33.5t32.5 -13.5zM293 0q-8 0 -10 10l-21 87h-132l-21 -87q-2 -10 -10 -10h-81
q-11 0 -8 10l134 502q3 10 12 10h80q9 0 12 -10l134 -502q3 -10 -8 -10h-81zM152 188h88l-42 179h-3z" />
    <glyph glyph-name="Aogonek.aalt" horiz-adv-x="391" 
d="M167 702q-5 0 -7 3t1 7l77 107q4 5 7 7.5t9 2.5h81q5 0 6.5 -3t-1.5 -7l-98 -107q-10 -10 -20 -10h-55zM293 0q-8 0 -10 10l-21 87h-132l-21 -87q-2 -10 -10 -10h-81q-11 0 -8 10l130 486q-35 25 -35 73q0 39 26 64.5t65 25.5q38 0 64 -25.5t26 -64.5q0 -23 -9 -41.5
t-25 -31.5l130 -486q3 -10 -8 -10h-81zM150 569q0 -20 11.5 -32.5t30.5 -14.5h8q18 2 29.5 14.5t11.5 32.5t-12.5 33.5t-32.5 13.5t-33 -13.5t-13 -33.5zM152 188h88l-42 179h-3z" />
    <glyph glyph-name="Aringacute.aalt" horiz-adv-x="391" 
d="M315 -190q-41 0 -65.5 21t-24.5 62q0 33 17.5 59t43.5 50l-3 8l-21 87h-133l-20 -87q-2 -10 -10 -10h-81q-11 0 -8 10l134 502q3 10 12 10h80q9 0 12 -10l134 -502q1 -7 -4 -10q-29 -20 -49 -45t-20 -46q0 -24 19 -24q10 0 18 5q9 6 13 -4l21 -46q3 -8 -5 -13
q-10 -7 -27 -12t-33 -5zM198 367h-3l-43 -179h88z" />
    <glyph glyph-name="AE.aalt" horiz-adv-x="587" 
d="M288 0q-10 0 -10 10v81q0 6 -6 6h-125l-33 -87q-3 -10 -13 -10h-84q-10 0 -7 10l199 502q3 10 12 10h328q10 0 10 -10v-74q0 -10 -10 -10h-164q-6 0 -6 -6v-106q0 -6 6 -6h142q10 0 10 -10v-74q0 -10 -10 -10h-142q-6 0 -6 -6v-111q0 -6 6 -6h164q10 0 10 -10v-73
q0 -10 -10 -10h-261zM182 188h90q6 0 6 6v234h-3z" />
    </font>
</defs>
</svg>
