<svg id="SL-Projects" xmlns="http://www.w3.org/2000/svg" width="896.4" height="108.87" viewBox="0 0 896.4 108.87">
  <g>
    <path d="M86.11,19.06c-2.48,10.5-9.17,14.83-20,14.83H26.37c-9.17,0-19.47,2.47-22.56,12.25a19.91,19.91,0,0,1-.72-5V39.55c0-11.43,10.81-20.49,20.39-20.49Zm.3,48.2c0,11.84-10.81,20.19-20.49,20.19H23.48c-8.65,0-18.33-6.18-20.08-14.84H59.64a5.24,5.24,0,0,0,5.66-5.56v-.2c0-1.65-.21-5.36-5.66-5.36H23.48c-5.15,0-11.12-2.27-14.62-6.49a9.69,9.69,0,0,1-1.34-4.84c0-8.34,9.68-11.74,16.79-11.74a4.3,4.3,0,0,0-.11,1.13V41.1c0,1.44.11,5.56,5.57,5.56H65.92A20.7,20.7,0,0,1,86.41,67.26Z" fill="#fff"/>
    <path d="M94.66,54.59V19.06h21v49h-5.46C101.14,68.08,96,63.55,94.66,54.59Zm74.77,18a17.1,17.1,0,0,1-17.1,14.84H94.66V66.12c4.42,5.26,10.91,6.39,15.55,6.49Z" fill="#fff"/>
    <path d="M199.4,48.2V59.74H174.58V48.2Z" fill="#fff"/>
    <path d="M289.84,41.41l-.31-.42c-4.64-5.87-11.85-7.1-16.79-7.1H201.05c.93-7.52,8.45-14.83,17.31-14.83h48.1C279.54,19,288.19,28.74,289.84,41.41Zm-.62,9.68c0,8.34-8.24,17.2-16.17,19.57a9.73,9.73,0,0,1-4,.82H230.82v16H209.7V38.32h21.12V56.75h28.84c5.15,0,9.37-5.15,9.37-11.43a12.91,12.91,0,0,0-2-7h5.67C281.8,38.32,289.22,43.16,289.22,51.09Z" fill="#fff"/>
    <path d="M306.83,33.89c-10.4,0-16.79-9.17-17.3-14.83h65.3c12.67.3,21.94,9.88,23.38,22.66-3.92-5.77-10.71-7.83-17.51-7.83Zm55.52,36.56,16.17,16.89H352.36l-15-15.86H319.19v16H298.08V38.32h21.11V56.75H348c5.15,0,9.37-5.15,9.37-11.43a13,13,0,0,0-1.95-7h5.87c9.27,0,15.45,4.84,15.45,14.31l-.11,3.09C374,62.73,368.84,68.19,362.35,70.45Z" fill="#fff"/>
    <path d="M467.3,36.57V41c-4.63-5.87-11.84-7.1-16.89-7.1H413.54c-5.25,0-5.56,4.12-5.56,5.66V68.19h-9.07c-5.25,0-12.05-3.4-12.05-11.95V36.57a17.47,17.47,0,0,1,17.41-17.51h45.52A17.49,17.49,0,0,1,467.3,36.57Zm0,19V70.14a17.54,17.54,0,0,1-17.51,17.41H404.27a17.52,17.52,0,0,1-17.41-17.41V67.46c2.58,3.61,8.55,5.15,12.05,5.15l41.72.11c5.25,0,5.56-4.12,5.56-5.56l-.11-28.84h4.33C461.33,38.32,467.3,44.19,467.3,55.62Z" fill="#fff"/>
    <path d="M552.89,65.4v4.54a17.47,17.47,0,0,1-17.4,17.51H493.05a17.61,17.61,0,0,1-17.3-14.84H536C541.05,72.61,548.36,71.38,552.89,65.4ZM509.74,19.06h43.15V49.85c0,12.16-5.66,18.34-16.89,18.34h-4.22V33.89h-4.84A17.46,17.46,0,0,1,509.74,19.06Z" fill="#fff"/>
    <path d="M563.4,19.06h57.37c9.27,0,15.86,6.48,17.3,14.83H577.31c-4.12,0-9.89,1-13.91,6Zm21.12,53.55h53.55c-.61,6.8-7,14.84-17.3,14.84H563.4V51.91c1.13-9,5.77-13.59,13.91-13.59h7.21v8.34h33.06V61.49H584.52Z" fill="#fff"/>
    <path d="M723.56,33.89H663.21c-5.05,0-12.16,1.23-16.79,7V36.57a17.47,17.47,0,0,1,17.41-17.51h42.43A17.6,17.6,0,0,1,723.56,33.89Zm0,38.83a17.67,17.67,0,0,1-17.3,14.83H663.83a17.46,17.46,0,0,1-17.41-17.41V55.62c0-11.43,6-17.3,16.79-17.3h4.32V67.16c0,1.44.21,5.56,5.57,5.56Z" fill="#fff"/>
    <path d="M806.89,33.89H742.42c-8.86,0-16.28-7.21-17.21-14.83h63.66C798.24,19.06,806.89,26,806.89,33.89Zm-30.38,4.53V87.34h-21V38.42Z" fill="#fff"/>
    <path d="M893,33.89H833.26c-9.17,0-19.47,2.47-22.56,12.25a19.91,19.91,0,0,1-.72-5V39.55c0-11.43,10.82-20.49,20.4-20.49h42.43C889,19.06,893,33.89,893,33.89Zm.31,33.37c0,11.84-10.82,20.19-20.5,20.19H830.38c-8.66,0-18.34-6.18-20.09-14.84h56.24a5.24,5.24,0,0,0,5.66-5.56v-.2c0-1.65-.2-5.36-5.66-5.36H830.38c-5.15,0-11.13-2.27-14.63-6.49a9.79,9.79,0,0,1-1.34-4.84c0-8.34,9.68-11.74,16.79-11.74a4.72,4.72,0,0,0-.1,1.13V41.1c0,1.44.1,5.56,5.56,5.56h36.15A20.71,20.71,0,0,1,893.31,67.26Z" fill="#fff"/>
  </g>
</svg>
