<svg width="1024" height="1024" viewBox="0 0 1024 1024" fill="none" xmlns="http://www.w3.org/2000/svg">
<rect width="1024" height="1024" fill="#F78E57"/>
<g clip-path="url(#clip0_124_19)">
<path d="M511.264 346.167C499.405 397.096 467.296 418.094 415.404 418.094H224.672C180.685 418.094 131.273 430.082 116.449 477.525C114.266 469.553 113.107 461.33 113 453.059L113 445.557C113 390.123 164.873 346.167 210.836 346.167H511.264ZM512.756 579.932C512.756 637.384 460.863 677.872 414.415 677.872H210.836C169.33 677.872 122.882 647.902 114.473 605.945H384.284C412.943 605.945 411.412 578.972 411.412 578.972V577.973C411.412 569.981 410.424 551.999 384.284 551.999H210.836C186.13 551.999 157.471 541.01 140.671 520.521C136.527 513.39 134.308 505.285 134.238 497.015C134.238 456.546 180.743 440.072 214.789 440.072C214.394 441.872 214.225 443.715 214.286 445.557V453.059C214.286 460.052 214.789 480.032 240.968 480.032H414.415C470.746 480.032 512.756 527.984 512.756 579.932ZM552.266 518.484V346.167H653.029V583.928H626.869C583.386 583.928 558.68 561.95 552.266 518.484ZM911 605.906C908.035 636.874 879.376 677.833 828.975 677.833H552.266V574.447C573.581 599.912 604.585 605.416 626.869 605.906H911Z" fill="white"/>
</g>
<defs>
<clipPath id="clip0_124_19">
<rect width="798" height="334" fill="white" transform="translate(113 345)"/>
</clipPath>
</defs>
</svg>
